  0
SECTION
  2
HEADER
  9
$ACADVER
  1
AC1014
  9
$HANDSEED
  5
FFFF
  9
$MEASUREMENT
 70
     1
  0
ENDSEC
  0
SECTION
  2
TABLES
  0
TABLE
  2
VPORT
  5
8
330
0
100
AcDbSymbolTable
 70
     4
  0
VPORT
  5
2E
330
8
100
AcDbSymbolTableRecord
100
AcDbViewportTableRecord
  2
*ACTIVE
 70
     0
 10
0.0
 20
0.0
 11
1.0
 21
1.0
 12
210.0
 22
148.5
 13
0.0
 23
0.0
 14
10.0
 24
10.0
 15
10.0
 25
10.0
 16
0.0
 26
0.0
 36
1.0
 17
0.0
 27
0.0
 37
0.0
 40
341.0
 41
1.24
 42
50.0
 43
0.0
 44
0.0
 50
0.0
 51
0.0
 71
     0
 72
   100
 73
     1
 74
     3
 75
     0
 76
     0
 77
     0
 78
     0
  0
ENDTAB
  0
TABLE
  2
LTYPE
  5
5
330
0
100
AcDbSymbolTable
 70
     1
  0
LTYPE
  5
14
330
5
100
AcDbSymbolTableRecord
100
AcDbLinetypeTableRecord
  2
BYBLOCK
 70
     0
  3

 72
    65
 73
     0
 40
0.0
  0
LTYPE
  5
15
330
5
100
AcDbSymbolTableRecord
100
AcDbLinetypeTableRecord
  2
BYLAYER
 70
     0
  3

 72
    65
 73
     0
 40
0.0
  0
LTYPE
  5
16
330
5
100
AcDbSymbolTableRecord
100
AcDbLinetypeTableRecord
  2
CONTINUOUS
 70
     0
  3
Solid line
 72
    65
 73
     0
 40
0.0
  0
ENDTAB
  0
TABLE
  2
LAYER
  5
2
100
AcDbSymbolTable
 70
7
  0
LAYER
  5
50
100
AcDbSymbolTableRecord
100
AcDbLayerTableRecord
  2
0
 70
0
  6
CONTINUOUS
  0
LAYER
  5
51
100
AcDbSymbolTableRecord
100
AcDbLayerTableRecord
  2
Cutout-nikita
 70
0
  6
CONTINUOUS
  0
LAYER
  5
52
100
AcDbSymbolTableRecord
100
AcDbLayerTableRecord
  2
Info_text
 70
0
  6
CONTINUOUS
  0
LAYER
  5
53
100
AcDbSymbolTableRecord
100
AcDbLayerTableRecord
  2
Clip_Interface_Guides
 70
0
  6
CONTINUOUS
  0
LAYER
  5
54
100
AcDbSymbolTableRecord
100
AcDbLayerTableRecord
  2
Clip_Interface
 70
0
  6
CONTINUOUS
  0
LAYER
  5
55
100
AcDbSymbolTableRecord
100
AcDbLayerTableRecord
  2
Interface_placement_
 70
0
  6
CONTINUOUS
  0
LAYER
  5
56
100
AcDbSymbolTableRecord
100
AcDbLayerTableRecord
  2
Feet
 70
0
  6
CONTINUOUS
  0
ENDTAB
  0
TABLE
  2
STYLE
  5
3
330
0
100
AcDbSymbolTable
 70
     1
  0
STYLE
  5
11
330
3
100
AcDbSymbolTableRecord
100
AcDbTextStyleTableRecord
  2
STANDARD
 70
     0
 40
0.0
 41
1.0
 50
0.0
 71
     0
 42
2.5
  3
txt
  4

  0
ENDTAB
  0
TABLE
  2
VIEW
  5
6
330
0
100
AcDbSymbolTable
 70
     0
  0
ENDTAB
  0
TABLE
  2
UCS
  5
7
330
0
100
AcDbSymbolTable
 70
     0
  0
ENDTAB
  0
TABLE
  2
APPID
  5
9
330
0
100
AcDbSymbolTable
 70
     2
  0
APPID
  5
12
330
9
100
AcDbSymbolTableRecord
100
AcDbRegAppTableRecord
  2
ACAD
 70
     0
  0
ENDTAB
  0
TABLE
  2
DIMSTYLE
  5
A
330
0
100
AcDbSymbolTable
 70
     1
  0
DIMSTYLE
105
27
330
A
100
AcDbSymbolTableRecord
100
AcDbDimStyleTableRecord
  2
ISO-25
 70
     0
  3

  4

  5

  6

  7

 40
1.0
 41
2.5
 42
0.625
 43
3.75
 44
1.25
 45
0.0
 46
0.0
 47
0.0
 48
0.0
140
2.5
141
2.5
142
0.0
143
0.03937007874016
144
1.0
145
0.0
146
1.0
147
0.625
 71
     0
 72
     0
 73
     0
 74
     0
 75
     0
 76
     0
 77
     1
 78
     8
170
     0
171
     3
172
     1
173
     0
174
     0
175
     0
176
     0
177
     0
178
     0
270
     2
271
     2
272
     2
273
     2
274
     3
340
11
275
     0
280
     0
281
     0
282
     0
283
     0
284
     8
285
     0
286
     0
287
     3
288
     0
  0
ENDTAB
  0
TABLE
  2
BLOCK_RECORD
  5
1
330
0
100
AcDbSymbolTable
 70
     1
  0
BLOCK_RECORD
  5
1F
330
1
100
AcDbSymbolTableRecord
100
AcDbBlockTableRecord
  2
*MODEL_SPACE
  0
BLOCK_RECORD
  5
1B
330
1
100
AcDbSymbolTableRecord
100
AcDbBlockTableRecord
  2
*PAPER_SPACE
  0
ENDTAB
  0
ENDSEC
  0
SECTION
  2
BLOCKS
  0
BLOCK
  5
20
330
1F
100
AcDbEntity
  8
0
100
AcDbBlockBegin
  2
*MODEL_SPACE
 70
     0
 10
0.0
 20
0.0
 30
0.0
  3
*MODEL_SPACE
  1

  0
ENDBLK
  5
21
330
1F
100
AcDbEntity
  8
0
100
AcDbBlockEnd
  0
BLOCK
  5
1C
330
1B
100
AcDbEntity
 67
     1
  8
0
100
AcDbBlockBegin
  2
*PAPER_SPACE
  1

  0
ENDBLK
  5
1D
330
1B
100
AcDbEntity
 67
     1
  8
0
100
AcDbBlockEnd
  0
ENDSEC
  0
SECTION
  2
ENTITIES
  0
SPLINE
  5
100
100
AcDbEntity
  8
Clip_Interface
 62
4
100
AcDbSpline
 70
8
 71
3
 72
8
 73
4
 74
0
 40
0
 40
0
 40
0
 40
0
 40
1
 40
1
 40
1
 40
1
 10
97.152726
 20
691.847442
 30
0.0
 10
97.100116
 20
690.923284
 30
0.0
 10
96.845915
 20
690.014387
 30
0.0
 10
96.298513
 20
689.270336
 30
0.0
  0
SPLINE
  5
101
100
AcDbEntity
  8
Clip_Interface
 62
4
100
AcDbSpline
 70
8
 71
3
 72
8
 73
4
 74
0
 40
0
 40
0
 40
0
 40
0
 40
1
 40
1
 40
1
 40
1
 10
96.298513
 20
689.270336
 30
0.0
 10
96.298513
 20
689.270336
 30
0.0
 10
96.198017
 20
689.119442
 30
0.0
 10
95.768312
 20
688.625933
 30
0.0
  0
SPLINE
  5
102
100
AcDbEntity
  8
Clip_Interface
 62
4
100
AcDbSpline
 70
8
 71
3
 72
8
 73
4
 74
0
 40
0
 40
0
 40
0
 40
0
 40
1
 40
1
 40
1
 40
1
 10
95.768312
 20
688.625933
 30
0.0
 10
95.338610
 20
688.132424
 30
0.0
 10
95.204358
 20
687.925094
 30
0.0
 10
94.157558
 20
686.881337
 30
0.0
  0
SPLINE
  5
103
100
AcDbEntity
  8
Clip_Interface
 62
4
100
AcDbSpline
 70
8
 71
3
 72
8
 73
4
 74
0
 40
0
 40
0
 40
0
 40
0
 40
1
 40
1
 40
1
 40
1
 10
94.157558
 20
686.881337
 30
0.0
 10
92.980691
 20
685.707897
 30
0.0
 10
93.093340
 20
685.746912
 30
0.0
 10
92.533368
 20
685.166194
 30
0.0
  0
SPLINE
  5
104
100
AcDbEntity
  8
Clip_Interface
 62
4
100
AcDbSpline
 70
8
 71
3
 72
8
 73
4
 74
0
 40
0
 40
0
 40
0
 40
0
 40
1
 40
1
 40
1
 40
1
 10
92.533368
 20
685.166194
 30
0.0
 10
91.973396
 20
684.585481
 30
0.0
 10
91.449693
 20
683.997220
 30
0.0
 10
90.912279
 20
683.368890
 30
0.0
  0
SPLINE
  5
105
100
AcDbEntity
  8
Clip_Interface
 62
4
100
AcDbSpline
 70
8
 71
3
 72
8
 73
4
 74
0
 40
0
 40
0
 40
0
 40
0
 40
1
 40
1
 40
1
 40
1
 10
90.912279
 20
683.368890
 30
0.0
 10
90.534476
 20
682.927168
 30
0.0
 10
89.883458
 20
681.975766
 30
0.0
 10
89.423998
 20
681.242921
 30
0.0
  0
SPLINE
  5
106
100
AcDbEntity
  8
Clip_Interface
 62
4
100
AcDbSpline
 70
8
 71
3
 72
8
 73
4
 74
0
 40
0
 40
0
 40
0
 40
0
 40
1
 40
1
 40
1
 40
1
 10
89.423998
 20
681.242921
 30
0.0
 10
88.027186
 20
679.014978
 30
0.0
 10
86.567181
 20
676.528009
 30
0.0
 10
85.049589
 20
674.354970
 30
0.0
  0
SPLINE
  5
107
100
AcDbEntity
  8
Clip_Interface
 62
4
100
AcDbSpline
 70
8
 71
3
 72
8
 73
4
 74
0
 40
0
 40
0
 40
0
 40
0
 40
1
 40
1
 40
1
 40
1
 10
85.049589
 20
674.354970
 30
0.0
 10
82.771196
 20
671.092544
 30
0.0
 10
79.650684
 20
668.438045
 30
0.0
 10
76.574136
 20
666.739412
 30
0.0
  0
LWPOLYLINE
  5
108
100
AcDbEntity
  8
Clip_Interface
 62
4
100
AcDbPolyline
 90
8
 70
0
 10
11.760006
 20
691.849029
 30
0.0
 10
11.760006
 20
641.981271
 30
0.0
 10
61.627247
 20
641.981271
 30
0.0
 10
111.494484
 20
641.981271
 30
0.0
 10
111.494484
 20
691.849029
 30
0.0
 10
111.377178
 20
691.849029
 30
0.0
 10
97.152726
 20
691.849029
 30
0.0
 10
97.152726
 20
691.847442
 30
0.0
  0
SPLINE
  5
109
100
AcDbEntity
  8
Clip_Interface
 62
4
100
AcDbSpline
 70
8
 71
3
 72
8
 73
4
 74
0
 40
0
 40
0
 40
0
 40
0
 40
1
 40
1
 40
1
 40
1
 10
46.680355
 20
666.739412
 30
0.0
 10
43.603806
 20
668.438045
 30
0.0
 10
40.483295
 20
671.092544
 30
0.0
 10
38.204902
 20
674.354970
 30
0.0
  0
SPLINE
  5
10a
100
AcDbEntity
  8
Clip_Interface
 62
4
100
AcDbSpline
 70
8
 71
3
 72
8
 73
4
 74
0
 40
0
 40
0
 40
0
 40
0
 40
1
 40
1
 40
1
 40
1
 10
38.204902
 20
674.354970
 30
0.0
 10
36.687307
 20
676.528011
 30
0.0
 10
35.227305
 20
679.014978
 30
0.0
 10
33.830492
 20
681.242921
 30
0.0
  0
SPLINE
  5
10b
100
AcDbEntity
  8
Clip_Interface
 62
4
100
AcDbSpline
 70
8
 71
3
 72
8
 73
4
 74
0
 40
0
 40
0
 40
0
 40
0
 40
1
 40
1
 40
1
 40
1
 10
33.830492
 20
681.242921
 30
0.0
 10
33.371033
 20
681.975766
 30
0.0
 10
32.720015
 20
682.927168
 30
0.0
 10
32.342211
 20
683.368890
 30
0.0
  0
SPLINE
  5
10c
100
AcDbEntity
  8
Clip_Interface
 62
4
100
AcDbSpline
 70
8
 71
3
 72
8
 73
4
 74
0
 40
0
 40
0
 40
0
 40
0
 40
1
 40
1
 40
1
 40
1
 10
32.342211
 20
683.368890
 30
0.0
 10
31.804797
 20
683.997222
 30
0.0
 10
31.281094
 20
684.585481
 30
0.0
 10
30.721122
 20
685.166194
 30
0.0
  0
SPLINE
  5
10d
100
AcDbEntity
  8
Clip_Interface
 62
4
100
AcDbSpline
 70
8
 71
3
 72
8
 73
4
 74
0
 40
0
 40
0
 40
0
 40
0
 40
1
 40
1
 40
1
 40
1
 10
30.721122
 20
685.166194
 30
0.0
 10
30.161150
 20
685.746912
 30
0.0
 10
30.273281
 20
685.707897
 30
0.0
 10
29.096414
 20
686.881337
 30
0.0
  0
SPLINE
  5
10e
100
AcDbEntity
  8
Clip_Interface
 62
4
100
AcDbSpline
 70
8
 71
3
 72
8
 73
4
 74
0
 40
0
 40
0
 40
0
 40
0
 40
1
 40
1
 40
1
 40
1
 10
29.096414
 20
686.881337
 30
0.0
 10
28.049614
 20
687.925094
 30
0.0
 10
27.915880
 20
688.132424
 30
0.0
 10
27.486178
 20
688.625933
 30
0.0
  0
SPLINE
  5
10f
100
AcDbEntity
  8
Clip_Interface
 62
4
100
AcDbSpline
 70
8
 71
3
 72
8
 73
4
 74
0
 40
0
 40
0
 40
0
 40
0
 40
1
 40
1
 40
1
 40
1
 10
27.486178
 20
688.625933
 30
0.0
 10
27.056474
 20
689.119442
 30
0.0
 10
26.955977
 20
689.270336
 30
0.0
 10
26.955977
 20
689.270336
 30
0.0
  0
SPLINE
  5
110
100
AcDbEntity
  8
Clip_Interface
 62
4
100
AcDbSpline
 70
8
 71
3
 72
8
 73
4
 74
0
 40
0
 40
0
 40
0
 40
0
 40
1
 40
1
 40
1
 40
1
 10
26.955977
 20
689.270336
 30
0.0
 10
26.408575
 20
690.014387
 30
0.0
 10
26.154376
 20
690.923284
 30
0.0
 10
26.101766
 20
691.847442
 30
0.0
  0
LWPOLYLINE
  5
111
100
AcDbEntity
  8
Clip_Interface
 62
4
100
AcDbPolyline
 90
5
 70
0
 10
76.574136
 20
666.739412
 30
0.0
 10
76.574136
 20
653.923657
 30
0.0
 10
61.627247
 20
653.923657
 30
0.0
 10
46.680355
 20
653.923657
 30
0.0
 10
46.680355
 20
666.739412
 30
0.0
  0
SPLINE
  5
112
100
AcDbEntity
  8
Clip_Interface
 62
4
100
AcDbSpline
 70
8
 71
3
 72
8
 73
4
 74
0
 40
0
 40
0
 40
0
 40
0
 40
1
 40
1
 40
1
 40
1
 10
106.949822
 20
684.886612
 30
0.0
 10
106.949822
 20
683.903684
 30
0.0
 10
106.425437
 20
682.995421
 30
0.0
 10
105.574196
 20
682.503958
 30
0.0
  0
SPLINE
  5
113
100
AcDbEntity
  8
Clip_Interface
 62
4
100
AcDbSpline
 70
8
 71
3
 72
8
 73
4
 74
0
 40
0
 40
0
 40
0
 40
0
 40
1
 40
1
 40
1
 40
1
 10
105.574196
 20
682.503958
 30
0.0
 10
104.722956
 20
682.012494
 30
0.0
 10
103.674184
 20
682.012494
 30
0.0
 10
102.822944
 20
682.503958
 30
0.0
  0
SPLINE
  5
114
100
AcDbEntity
  8
Clip_Interface
 62
4
100
AcDbSpline
 70
8
 71
3
 72
8
 73
4
 74
0
 40
0
 40
0
 40
0
 40
0
 40
1
 40
1
 40
1
 40
1
 10
102.822944
 20
682.503958
 30
0.0
 10
101.971703
 20
682.995421
 30
0.0
 10
101.447318
 20
683.903684
 30
0.0
 10
101.447318
 20
684.886612
 30
0.0
  0
SPLINE
  5
115
100
AcDbEntity
  8
Clip_Interface
 62
4
100
AcDbSpline
 70
8
 71
3
 72
8
 73
4
 74
0
 40
0
 40
0
 40
0
 40
0
 40
1
 40
1
 40
1
 40
1
 10
101.447318
 20
684.886612
 30
0.0
 10
101.447318
 20
685.869540
 30
0.0
 10
101.971703
 20
686.777803
 30
0.0
 10
102.822944
 20
687.269266
 30
0.0
  0
SPLINE
  5
116
100
AcDbEntity
  8
Clip_Interface
 62
4
100
AcDbSpline
 70
8
 71
3
 72
8
 73
4
 74
0
 40
0
 40
0
 40
0
 40
0
 40
1
 40
1
 40
1
 40
1
 10
102.822944
 20
687.269266
 30
0.0
 10
103.674184
 20
687.760730
 30
0.0
 10
104.722956
 20
687.760730
 30
0.0
 10
105.574196
 20
687.269266
 30
0.0
  0
SPLINE
  5
117
100
AcDbEntity
  8
Clip_Interface
 62
4
100
AcDbSpline
 70
8
 71
3
 72
8
 73
4
 74
0
 40
0
 40
0
 40
0
 40
0
 40
1
 40
1
 40
1
 40
1
 10
105.574196
 20
687.269266
 30
0.0
 10
106.425437
 20
686.777803
 30
0.0
 10
106.949822
 20
685.869540
 30
0.0
 10
106.949822
 20
684.886612
 30
0.0
  0
LWPOLYLINE
  5
118
100
AcDbEntity
  8
Clip_Interface
 62
4
100
AcDbPolyline
 90
4
 70
0
 10
26.101766
 20
691.847442
 30
0.0
 10
26.101766
 20
691.849029
 30
0.0
 10
11.877311
 20
691.849029
 30
0.0
 10
11.760006
 20
691.849029
 30
0.0
  0
SPLINE
  5
119
100
AcDbEntity
  8
Clip_Interface
 62
4
100
AcDbSpline
 70
8
 71
3
 72
8
 73
4
 74
0
 40
0
 40
0
 40
0
 40
0
 40
1
 40
1
 40
1
 40
1
 10
106.949822
 20
668.026855
 30
0.0
 10
106.949822
 20
667.043927
 30
0.0
 10
106.425437
 20
666.135664
 30
0.0
 10
105.574196
 20
665.644201
 30
0.0
  0
SPLINE
  5
11a
100
AcDbEntity
  8
Clip_Interface
 62
4
100
AcDbSpline
 70
8
 71
3
 72
8
 73
4
 74
0
 40
0
 40
0
 40
0
 40
0
 40
1
 40
1
 40
1
 40
1
 10
105.574196
 20
665.644201
 30
0.0
 10
104.722956
 20
665.152737
 30
0.0
 10
103.674184
 20
665.152737
 30
0.0
 10
102.822944
 20
665.644201
 30
0.0
  0
SPLINE
  5
11b
100
AcDbEntity
  8
Clip_Interface
 62
4
100
AcDbSpline
 70
8
 71
3
 72
8
 73
4
 74
0
 40
0
 40
0
 40
0
 40
0
 40
1
 40
1
 40
1
 40
1
 10
102.822944
 20
665.644201
 30
0.0
 10
101.971703
 20
666.135664
 30
0.0
 10
101.447318
 20
667.043927
 30
0.0
 10
101.447318
 20
668.026855
 30
0.0
  0
SPLINE
  5
11c
100
AcDbEntity
  8
Clip_Interface
 62
4
100
AcDbSpline
 70
8
 71
3
 72
8
 73
4
 74
0
 40
0
 40
0
 40
0
 40
0
 40
1
 40
1
 40
1
 40
1
 10
101.447318
 20
668.026855
 30
0.0
 10
101.447318
 20
669.009783
 30
0.0
 10
101.971703
 20
669.918046
 30
0.0
 10
102.822944
 20
670.409509
 30
0.0
  0
SPLINE
  5
11d
100
AcDbEntity
  8
Clip_Interface
 62
4
100
AcDbSpline
 70
8
 71
3
 72
8
 73
4
 74
0
 40
0
 40
0
 40
0
 40
0
 40
1
 40
1
 40
1
 40
1
 10
102.822944
 20
670.409509
 30
0.0
 10
103.674184
 20
670.900973
 30
0.0
 10
104.722956
 20
670.900973
 30
0.0
 10
105.574196
 20
670.409509
 30
0.0
  0
SPLINE
  5
11e
100
AcDbEntity
  8
Clip_Interface
 62
4
100
AcDbSpline
 70
8
 71
3
 72
8
 73
4
 74
0
 40
0
 40
0
 40
0
 40
0
 40
1
 40
1
 40
1
 40
1
 10
105.574196
 20
670.409509
 30
0.0
 10
106.425437
 20
669.918046
 30
0.0
 10
106.949822
 20
669.009783
 30
0.0
 10
106.949822
 20
668.026855
 30
0.0
  0
LWPOLYLINE
  5
11f
100
AcDbEntity
  8
Clip_Interface
 62
4
100
AcDbPolyline
 90
1
 70
1
 10
106.949822
 20
684.886612
 30
0.0
  0
SPLINE
  5
120
100
AcDbEntity
  8
Clip_Interface
 62
4
100
AcDbSpline
 70
8
 71
3
 72
8
 73
4
 74
0
 40
0
 40
0
 40
0
 40
0
 40
1
 40
1
 40
1
 40
1
 10
106.949822
 20
651.167076
 30
0.0
 10
106.949822
 20
650.184148
 30
0.0
 10
106.425437
 20
649.275885
 30
0.0
 10
105.574196
 20
648.784422
 30
0.0
  0
SPLINE
  5
121
100
AcDbEntity
  8
Clip_Interface
 62
4
100
AcDbSpline
 70
8
 71
3
 72
8
 73
4
 74
0
 40
0
 40
0
 40
0
 40
0
 40
1
 40
1
 40
1
 40
1
 10
105.574196
 20
648.784422
 30
0.0
 10
104.722956
 20
648.292958
 30
0.0
 10
103.674184
 20
648.292958
 30
0.0
 10
102.822944
 20
648.784422
 30
0.0
  0
SPLINE
  5
122
100
AcDbEntity
  8
Clip_Interface
 62
4
100
AcDbSpline
 70
8
 71
3
 72
8
 73
4
 74
0
 40
0
 40
0
 40
0
 40
0
 40
1
 40
1
 40
1
 40
1
 10
102.822944
 20
648.784422
 30
0.0
 10
101.971703
 20
649.275885
 30
0.0
 10
101.447318
 20
650.184148
 30
0.0
 10
101.447318
 20
651.167076
 30
0.0
  0
SPLINE
  5
123
100
AcDbEntity
  8
Clip_Interface
 62
4
100
AcDbSpline
 70
8
 71
3
 72
8
 73
4
 74
0
 40
0
 40
0
 40
0
 40
0
 40
1
 40
1
 40
1
 40
1
 10
101.447318
 20
651.167076
 30
0.0
 10
101.447318
 20
652.150004
 30
0.0
 10
101.971703
 20
653.058267
 30
0.0
 10
102.822944
 20
653.549730
 30
0.0
  0
SPLINE
  5
124
100
AcDbEntity
  8
Clip_Interface
 62
4
100
AcDbSpline
 70
8
 71
3
 72
8
 73
4
 74
0
 40
0
 40
0
 40
0
 40
0
 40
1
 40
1
 40
1
 40
1
 10
102.822944
 20
653.549730
 30
0.0
 10
103.674184
 20
654.041194
 30
0.0
 10
104.722956
 20
654.041194
 30
0.0
 10
105.574196
 20
653.549730
 30
0.0
  0
SPLINE
  5
125
100
AcDbEntity
  8
Clip_Interface
 62
4
100
AcDbSpline
 70
8
 71
3
 72
8
 73
4
 74
0
 40
0
 40
0
 40
0
 40
0
 40
1
 40
1
 40
1
 40
1
 10
105.574196
 20
653.549730
 30
0.0
 10
106.425437
 20
653.058267
 30
0.0
 10
106.949822
 20
652.150004
 30
0.0
 10
106.949822
 20
651.167076
 30
0.0
  0
LWPOLYLINE
  5
126
100
AcDbEntity
  8
Clip_Interface
 62
4
100
AcDbPolyline
 90
1
 70
1
 10
106.949822
 20
668.026855
 30
0.0
  0
SPLINE
  5
127
100
AcDbEntity
  8
Clip_Interface
 62
4
100
AcDbSpline
 70
8
 71
3
 72
8
 73
4
 74
0
 40
0
 40
0
 40
0
 40
0
 40
1
 40
1
 40
1
 40
1
 10
89.487336
 20
659.596931
 30
0.0
 10
89.487336
 20
658.614003
 30
0.0
 10
88.962951
 20
657.705740
 30
0.0
 10
88.111710
 20
657.214277
 30
0.0
  0
SPLINE
  5
128
100
AcDbEntity
  8
Clip_Interface
 62
4
100
AcDbSpline
 70
8
 71
3
 72
8
 73
4
 74
0
 40
0
 40
0
 40
0
 40
0
 40
1
 40
1
 40
1
 40
1
 10
88.111710
 20
657.214277
 30
0.0
 10
87.260470
 20
656.722813
 30
0.0
 10
86.211698
 20
656.722813
 30
0.0
 10
85.360458
 20
657.214277
 30
0.0
  0
SPLINE
  5
129
100
AcDbEntity
  8
Clip_Interface
 62
4
100
AcDbSpline
 70
8
 71
3
 72
8
 73
4
 74
0
 40
0
 40
0
 40
0
 40
0
 40
1
 40
1
 40
1
 40
1
 10
85.360458
 20
657.214277
 30
0.0
 10
84.509217
 20
657.705740
 30
0.0
 10
83.984832
 20
658.614003
 30
0.0
 10
83.984832
 20
659.596931
 30
0.0
  0
SPLINE
  5
12a
100
AcDbEntity
  8
Clip_Interface
 62
4
100
AcDbSpline
 70
8
 71
3
 72
8
 73
4
 74
0
 40
0
 40
0
 40
0
 40
0
 40
1
 40
1
 40
1
 40
1
 10
83.984832
 20
659.596931
 30
0.0
 10
83.984832
 20
661.116406
 30
0.0
 10
85.216609
 20
662.348183
 30
0.0
 10
86.736084
 20
662.348183
 30
0.0
  0
SPLINE
  5
12b
100
AcDbEntity
  8
Clip_Interface
 62
4
100
AcDbSpline
 70
8
 71
3
 72
8
 73
4
 74
0
 40
0
 40
0
 40
0
 40
0
 40
1
 40
1
 40
1
 40
1
 10
86.736084
 20
662.348183
 30
0.0
 10
88.255559
 20
662.348183
 30
0.0
 10
89.487336
 20
661.116406
 30
0.0
 10
89.487336
 20
659.596931
 30
0.0
  0
LWPOLYLINE
  5
12c
100
AcDbEntity
  8
Clip_Interface
 62
4
100
AcDbPolyline
 90
1
 70
1
 10
106.949822
 20
651.167076
 30
0.0
  0
SPLINE
  5
12d
100
AcDbEntity
  8
Clip_Interface
 62
4
100
AcDbSpline
 70
8
 71
3
 72
8
 73
4
 74
0
 40
0
 40
0
 40
0
 40
0
 40
1
 40
1
 40
1
 40
1
 10
16.054609
 20
684.886612
 30
0.0
 10
16.054609
 20
683.903684
 30
0.0
 10
16.578994
 20
682.995421
 30
0.0
 10
17.430235
 20
682.503958
 30
0.0
  0
SPLINE
  5
12e
100
AcDbEntity
  8
Clip_Interface
 62
4
100
AcDbSpline
 70
8
 71
3
 72
8
 73
4
 74
0
 40
0
 40
0
 40
0
 40
0
 40
1
 40
1
 40
1
 40
1
 10
17.430235
 20
682.503958
 30
0.0
 10
18.281475
 20
682.012494
 30
0.0
 10
19.330247
 20
682.012494
 30
0.0
 10
20.181487
 20
682.503958
 30
0.0
  0
SPLINE
  5
12f
100
AcDbEntity
  8
Clip_Interface
 62
4
100
AcDbSpline
 70
8
 71
3
 72
8
 73
4
 74
0
 40
0
 40
0
 40
0
 40
0
 40
1
 40
1
 40
1
 40
1
 10
20.181487
 20
682.503958
 30
0.0
 10
21.032728
 20
682.995421
 30
0.0
 10
21.557113
 20
683.903684
 30
0.0
 10
21.557113
 20
684.886612
 30
0.0
  0
SPLINE
  5
130
100
AcDbEntity
  8
Clip_Interface
 62
4
100
AcDbSpline
 70
8
 71
3
 72
8
 73
4
 74
0
 40
0
 40
0
 40
0
 40
0
 40
1
 40
1
 40
1
 40
1
 10
21.557113
 20
684.886612
 30
0.0
 10
21.557113
 20
685.869540
 30
0.0
 10
21.032728
 20
686.777803
 30
0.0
 10
20.181487
 20
687.269266
 30
0.0
  0
SPLINE
  5
131
100
AcDbEntity
  8
Clip_Interface
 62
4
100
AcDbSpline
 70
8
 71
3
 72
8
 73
4
 74
0
 40
0
 40
0
 40
0
 40
0
 40
1
 40
1
 40
1
 40
1
 10
20.181487
 20
687.269266
 30
0.0
 10
19.330247
 20
687.760730
 30
0.0
 10
18.281475
 20
687.760730
 30
0.0
 10
17.430235
 20
687.269266
 30
0.0
  0
SPLINE
  5
132
100
AcDbEntity
  8
Clip_Interface
 62
4
100
AcDbSpline
 70
8
 71
3
 72
8
 73
4
 74
0
 40
0
 40
0
 40
0
 40
0
 40
1
 40
1
 40
1
 40
1
 10
17.430235
 20
687.269266
 30
0.0
 10
16.578994
 20
686.777803
 30
0.0
 10
16.054609
 20
685.869540
 30
0.0
 10
16.054609
 20
684.886612
 30
0.0
  0
LWPOLYLINE
  5
133
100
AcDbEntity
  8
Clip_Interface
 62
4
100
AcDbPolyline
 90
1
 70
1
 10
89.487336
 20
659.596931
 30
0.0
  0
SPLINE
  5
134
100
AcDbEntity
  8
Clip_Interface
 62
4
100
AcDbSpline
 70
8
 71
3
 72
8
 73
4
 74
0
 40
0
 40
0
 40
0
 40
0
 40
1
 40
1
 40
1
 40
1
 10
16.054609
 20
668.026855
 30
0.0
 10
16.054609
 20
667.043927
 30
0.0
 10
16.578994
 20
666.135664
 30
0.0
 10
17.430235
 20
665.644201
 30
0.0
  0
SPLINE
  5
135
100
AcDbEntity
  8
Clip_Interface
 62
4
100
AcDbSpline
 70
8
 71
3
 72
8
 73
4
 74
0
 40
0
 40
0
 40
0
 40
0
 40
1
 40
1
 40
1
 40
1
 10
17.430235
 20
665.644201
 30
0.0
 10
18.281475
 20
665.152737
 30
0.0
 10
19.330247
 20
665.152737
 30
0.0
 10
20.181487
 20
665.644201
 30
0.0
  0
SPLINE
  5
136
100
AcDbEntity
  8
Clip_Interface
 62
4
100
AcDbSpline
 70
8
 71
3
 72
8
 73
4
 74
0
 40
0
 40
0
 40
0
 40
0
 40
1
 40
1
 40
1
 40
1
 10
20.181487
 20
665.644201
 30
0.0
 10
21.032728
 20
666.135664
 30
0.0
 10
21.557113
 20
667.043927
 30
0.0
 10
21.557113
 20
668.026855
 30
0.0
  0
SPLINE
  5
137
100
AcDbEntity
  8
Clip_Interface
 62
4
100
AcDbSpline
 70
8
 71
3
 72
8
 73
4
 74
0
 40
0
 40
0
 40
0
 40
0
 40
1
 40
1
 40
1
 40
1
 10
21.557113
 20
668.026855
 30
0.0
 10
21.557113
 20
669.009783
 30
0.0
 10
21.032728
 20
669.918046
 30
0.0
 10
20.181487
 20
670.409509
 30
0.0
  0
SPLINE
  5
138
100
AcDbEntity
  8
Clip_Interface
 62
4
100
AcDbSpline
 70
8
 71
3
 72
8
 73
4
 74
0
 40
0
 40
0
 40
0
 40
0
 40
1
 40
1
 40
1
 40
1
 10
20.181487
 20
670.409509
 30
0.0
 10
19.330247
 20
670.900973
 30
0.0
 10
18.281475
 20
670.900973
 30
0.0
 10
17.430235
 20
670.409509
 30
0.0
  0
SPLINE
  5
139
100
AcDbEntity
  8
Clip_Interface
 62
4
100
AcDbSpline
 70
8
 71
3
 72
8
 73
4
 74
0
 40
0
 40
0
 40
0
 40
0
 40
1
 40
1
 40
1
 40
1
 10
17.430235
 20
670.409509
 30
0.0
 10
16.578994
 20
669.918046
 30
0.0
 10
16.054609
 20
669.009783
 30
0.0
 10
16.054609
 20
668.026855
 30
0.0
  0
LWPOLYLINE
  5
13a
100
AcDbEntity
  8
Clip_Interface
 62
4
100
AcDbPolyline
 90
1
 70
1
 10
16.054609
 20
684.886612
 30
0.0
  0
SPLINE
  5
13b
100
AcDbEntity
  8
Clip_Interface
 62
4
100
AcDbSpline
 70
8
 71
3
 72
8
 73
4
 74
0
 40
0
 40
0
 40
0
 40
0
 40
1
 40
1
 40
1
 40
1
 10
16.054609
 20
651.167076
 30
0.0
 10
16.054609
 20
650.184148
 30
0.0
 10
16.578994
 20
649.275885
 30
0.0
 10
17.430235
 20
648.784422
 30
0.0
  0
SPLINE
  5
13c
100
AcDbEntity
  8
Clip_Interface
 62
4
100
AcDbSpline
 70
8
 71
3
 72
8
 73
4
 74
0
 40
0
 40
0
 40
0
 40
0
 40
1
 40
1
 40
1
 40
1
 10
17.430235
 20
648.784422
 30
0.0
 10
18.281475
 20
648.292958
 30
0.0
 10
19.330247
 20
648.292958
 30
0.0
 10
20.181487
 20
648.784422
 30
0.0
  0
SPLINE
  5
13d
100
AcDbEntity
  8
Clip_Interface
 62
4
100
AcDbSpline
 70
8
 71
3
 72
8
 73
4
 74
0
 40
0
 40
0
 40
0
 40
0
 40
1
 40
1
 40
1
 40
1
 10
20.181487
 20
648.784422
 30
0.0
 10
21.032728
 20
649.275885
 30
0.0
 10
21.557113
 20
650.184148
 30
0.0
 10
21.557113
 20
651.167076
 30
0.0
  0
SPLINE
  5
13e
100
AcDbEntity
  8
Clip_Interface
 62
4
100
AcDbSpline
 70
8
 71
3
 72
8
 73
4
 74
0
 40
0
 40
0
 40
0
 40
0
 40
1
 40
1
 40
1
 40
1
 10
21.557113
 20
651.167076
 30
0.0
 10
21.557113
 20
652.150004
 30
0.0
 10
21.032728
 20
653.058267
 30
0.0
 10
20.181487
 20
653.549730
 30
0.0
  0
SPLINE
  5
13f
100
AcDbEntity
  8
Clip_Interface
 62
4
100
AcDbSpline
 70
8
 71
3
 72
8
 73
4
 74
0
 40
0
 40
0
 40
0
 40
0
 40
1
 40
1
 40
1
 40
1
 10
20.181487
 20
653.549730
 30
0.0
 10
19.330247
 20
654.041194
 30
0.0
 10
18.281475
 20
654.041194
 30
0.0
 10
17.430235
 20
653.549730
 30
0.0
  0
SPLINE
  5
140
100
AcDbEntity
  8
Clip_Interface
 62
4
100
AcDbSpline
 70
8
 71
3
 72
8
 73
4
 74
0
 40
0
 40
0
 40
0
 40
0
 40
1
 40
1
 40
1
 40
1
 10
17.430235
 20
653.549730
 30
0.0
 10
16.578994
 20
653.058267
 30
0.0
 10
16.054609
 20
652.150004
 30
0.0
 10
16.054609
 20
651.167076
 30
0.0
  0
LWPOLYLINE
  5
141
100
AcDbEntity
  8
Clip_Interface
 62
4
100
AcDbPolyline
 90
1
 70
1
 10
16.054609
 20
668.026855
 30
0.0
  0
SPLINE
  5
142
100
AcDbEntity
  8
Clip_Interface
 62
4
100
AcDbSpline
 70
8
 71
3
 72
8
 73
4
 74
0
 40
0
 40
0
 40
0
 40
0
 40
1
 40
1
 40
1
 40
1
 10
33.517093
 20
659.596931
 30
0.0
 10
33.517093
 20
658.614003
 30
0.0
 10
34.041478
 20
657.705740
 30
0.0
 10
34.892719
 20
657.214277
 30
0.0
  0
SPLINE
  5
143
100
AcDbEntity
  8
Clip_Interface
 62
4
100
AcDbSpline
 70
8
 71
3
 72
8
 73
4
 74
0
 40
0
 40
0
 40
0
 40
0
 40
1
 40
1
 40
1
 40
1
 10
34.892719
 20
657.214277
 30
0.0
 10
35.743959
 20
656.722813
 30
0.0
 10
36.792731
 20
656.722813
 30
0.0
 10
37.643971
 20
657.214277
 30
0.0
  0
SPLINE
  5
144
100
AcDbEntity
  8
Clip_Interface
 62
4
100
AcDbSpline
 70
8
 71
3
 72
8
 73
4
 74
0
 40
0
 40
0
 40
0
 40
0
 40
1
 40
1
 40
1
 40
1
 10
37.643971
 20
657.214277
 30
0.0
 10
38.495212
 20
657.705740
 30
0.0
 10
39.019597
 20
658.614003
 30
0.0
 10
39.019597
 20
659.596931
 30
0.0
  0
SPLINE
  5
145
100
AcDbEntity
  8
Clip_Interface
 62
4
100
AcDbSpline
 70
8
 71
3
 72
8
 73
4
 74
0
 40
0
 40
0
 40
0
 40
0
 40
1
 40
1
 40
1
 40
1
 10
39.019597
 20
659.596931
 30
0.0
 10
39.019597
 20
660.579859
 30
0.0
 10
38.495212
 20
661.488122
 30
0.0
 10
37.643971
 20
661.979585
 30
0.0
  0
SPLINE
  5
146
100
AcDbEntity
  8
Clip_Interface
 62
4
100
AcDbSpline
 70
8
 71
3
 72
8
 73
4
 74
0
 40
0
 40
0
 40
0
 40
0
 40
1
 40
1
 40
1
 40
1
 10
37.643971
 20
661.979585
 30
0.0
 10
36.792731
 20
662.471049
 30
0.0
 10
35.743959
 20
662.471049
 30
0.0
 10
34.892719
 20
661.979585
 30
0.0
  0
SPLINE
  5
147
100
AcDbEntity
  8
Clip_Interface
 62
4
100
AcDbSpline
 70
8
 71
3
 72
8
 73
4
 74
0
 40
0
 40
0
 40
0
 40
0
 40
1
 40
1
 40
1
 40
1
 10
34.892719
 20
661.979585
 30
0.0
 10
34.041478
 20
661.488122
 30
0.0
 10
33.517093
 20
660.579859
 30
0.0
 10
33.517093
 20
659.596931
 30
0.0
  0
LWPOLYLINE
  5
148
100
AcDbEntity
  8
Clip_Interface
 62
4
100
AcDbPolyline
 90
1
 70
1
 10
16.054609
 20
651.167076
 30
0.0
  0
LWPOLYLINE
  5
149
100
AcDbEntity
  8
Clip_Interface
 62
4
100
AcDbPolyline
 90
1
 70
1
 10
33.517093
 20
659.596931
 30
0.0
  0
ENDSEC
  0
SECTION
  2
OBJECTS
  0
DICTIONARY
  5
C
330
0
100
AcDbDictionary
  3
ACAD_GROUP
350
D
  3
ACAD_MLINESTYLE
350
17
  0
DICTIONARY
  5
D
330
C
100
AcDbDictionary
  0
DICTIONARY
  5
1A
330
C
100
AcDbDictionary
  0
DICTIONARY
  5
17
330
C
100
AcDbDictionary
  3
STANDARD
350
18
  0
DICTIONARY
  5
19
330
C
100
AcDbDictionary
  0
ENDSEC
  0
EOF
