  0
SECTION
  2
HEADER
  9
$ACADVER
  1
AC1014
  9
$HANDSEED
  5
FFFF
  9
$MEASUREMENT
 70
     1
  0
ENDSEC
  0
SECTION
  2
TABLES
  0
TABLE
  2
VPORT
  5
8
330
0
100
AcDbSymbolTable
 70
     4
  0
VPORT
  5
2E
330
8
100
AcDbSymbolTableRecord
100
AcDbViewportTableRecord
  2
*ACTIVE
 70
     0
 10
0.0
 20
0.0
 11
1.0
 21
1.0
 12
210.0
 22
148.5
 13
0.0
 23
0.0
 14
10.0
 24
10.0
 15
10.0
 25
10.0
 16
0.0
 26
0.0
 36
1.0
 17
0.0
 27
0.0
 37
0.0
 40
341.0
 41
1.24
 42
50.0
 43
0.0
 44
0.0
 50
0.0
 51
0.0
 71
     0
 72
   100
 73
     1
 74
     3
 75
     0
 76
     0
 77
     0
 78
     0
  0
ENDTAB
  0
TABLE
  2
LTYPE
  5
5
330
0
100
AcDbSymbolTable
 70
     1
  0
LTYPE
  5
14
330
5
100
AcDbSymbolTableRecord
100
AcDbLinetypeTableRecord
  2
BYBLOCK
 70
     0
  3

 72
    65
 73
     0
 40
0.0
  0
LTYPE
  5
15
330
5
100
AcDbSymbolTableRecord
100
AcDbLinetypeTableRecord
  2
BYLAYER
 70
     0
  3

 72
    65
 73
     0
 40
0.0
  0
LTYPE
  5
16
330
5
100
AcDbSymbolTableRecord
100
AcDbLinetypeTableRecord
  2
CONTINUOUS
 70
     0
  3
Solid line
 72
    65
 73
     0
 40
0.0
  0
ENDTAB
  0
TABLE
  2
LAYER
  5
2
100
AcDbSymbolTable
 70
8
  0
LAYER
  5
50
100
AcDbSymbolTableRecord
100
AcDbLayerTableRecord
  2
0
 70
0
  6
CONTINUOUS
  0
LAYER
  5
51
100
AcDbSymbolTableRecord
100
AcDbLayerTableRecord
  2
BG
 70
0
  6
CONTINUOUS
  0
LAYER
  5
52
100
AcDbSymbolTableRecord
100
AcDbLayerTableRecord
  2
Cutout-photo
 70
0
  6
CONTINUOUS
  0
LAYER
  5
53
100
AcDbSymbolTableRecord
100
AcDbLayerTableRecord
  2
Cutout-nikita
 70
0
  6
CONTINUOUS
  0
LAYER
  5
54
100
AcDbSymbolTableRecord
100
AcDbLayerTableRecord
  2
Info_text
 70
0
  6
CONTINUOUS
  0
LAYER
  5
55
100
AcDbSymbolTableRecord
100
AcDbLayerTableRecord
  2
Clip_Interface_Guides
 70
0
  6
CONTINUOUS
  0
LAYER
  5
56
100
AcDbSymbolTableRecord
100
AcDbLayerTableRecord
  2
Clip_Interface
 70
0
  6
CONTINUOUS
  0
LAYER
  5
57
100
AcDbSymbolTableRecord
100
AcDbLayerTableRecord
  2
Foot_inner
 70
0
  6
CONTINUOUS
  0
ENDTAB
  0
TABLE
  2
STYLE
  5
3
330
0
100
AcDbSymbolTable
 70
     1
  0
STYLE
  5
11
330
3
100
AcDbSymbolTableRecord
100
AcDbTextStyleTableRecord
  2
STANDARD
 70
     0
 40
0.0
 41
1.0
 50
0.0
 71
     0
 42
2.5
  3
txt
  4

  0
ENDTAB
  0
TABLE
  2
VIEW
  5
6
330
0
100
AcDbSymbolTable
 70
     0
  0
ENDTAB
  0
TABLE
  2
UCS
  5
7
330
0
100
AcDbSymbolTable
 70
     0
  0
ENDTAB
  0
TABLE
  2
APPID
  5
9
330
0
100
AcDbSymbolTable
 70
     2
  0
APPID
  5
12
330
9
100
AcDbSymbolTableRecord
100
AcDbRegAppTableRecord
  2
ACAD
 70
     0
  0
ENDTAB
  0
TABLE
  2
DIMSTYLE
  5
A
330
0
100
AcDbSymbolTable
 70
     1
  0
DIMSTYLE
105
27
330
A
100
AcDbSymbolTableRecord
100
AcDbDimStyleTableRecord
  2
ISO-25
 70
     0
  3

  4

  5

  6

  7

 40
1.0
 41
2.5
 42
0.625
 43
3.75
 44
1.25
 45
0.0
 46
0.0
 47
0.0
 48
0.0
140
2.5
141
2.5
142
0.0
143
0.03937007874016
144
1.0
145
0.0
146
1.0
147
0.625
 71
     0
 72
     0
 73
     0
 74
     0
 75
     0
 76
     0
 77
     1
 78
     8
170
     0
171
     3
172
     1
173
     0
174
     0
175
     0
176
     0
177
     0
178
     0
270
     2
271
     2
272
     2
273
     2
274
     3
340
11
275
     0
280
     0
281
     0
282
     0
283
     0
284
     8
285
     0
286
     0
287
     3
288
     0
  0
ENDTAB
  0
TABLE
  2
BLOCK_RECORD
  5
1
330
0
100
AcDbSymbolTable
 70
     1
  0
BLOCK_RECORD
  5
1F
330
1
100
AcDbSymbolTableRecord
100
AcDbBlockTableRecord
  2
*MODEL_SPACE
  0
BLOCK_RECORD
  5
1B
330
1
100
AcDbSymbolTableRecord
100
AcDbBlockTableRecord
  2
*PAPER_SPACE
  0
ENDTAB
  0
ENDSEC
  0
SECTION
  2
BLOCKS
  0
BLOCK
  5
20
330
1F
100
AcDbEntity
  8
0
100
AcDbBlockBegin
  2
*MODEL_SPACE
 70
     0
 10
0.0
 20
0.0
 30
0.0
  3
*MODEL_SPACE
  1

  0
ENDBLK
  5
21
330
1F
100
AcDbEntity
  8
0
100
AcDbBlockEnd
  0
BLOCK
  5
1C
330
1B
100
AcDbEntity
 67
     1
  8
0
100
AcDbBlockBegin
  2
*PAPER_SPACE
  1

  0
ENDBLK
  5
1D
330
1B
100
AcDbEntity
 67
     1
  8
0
100
AcDbBlockEnd
  0
ENDSEC
  0
SECTION
  2
ENTITIES
  0
SPLINE
  5
100
100
AcDbEntity
  8
Clip_Interface
 62
4
100
AcDbSpline
 70
8
 71
3
 72
8
 73
4
 74
0
 40
0
 40
0
 40
0
 40
0
 40
1
 40
1
 40
1
 40
1
 10
97.152726
 20
691.847442
 30
0.0
 10
97.100116
 20
690.923284
 30
0.0
 10
96.845915
 20
690.014387
 30
0.0
 10
96.298513
 20
689.270336
 30
0.0
  0
SPLINE
  5
101
100
AcDbEntity
  8
Clip_Interface
 62
4
100
AcDbSpline
 70
8
 71
3
 72
8
 73
4
 74
0
 40
0
 40
0
 40
0
 40
0
 40
1
 40
1
 40
1
 40
1
 10
96.298513
 20
689.270336
 30
0.0
 10
96.298513
 20
689.270336
 30
0.0
 10
96.198017
 20
689.119442
 30
0.0
 10
95.768312
 20
688.625933
 30
0.0
  0
SPLINE
  5
102
100
AcDbEntity
  8
Clip_Interface
 62
4
100
AcDbSpline
 70
8
 71
3
 72
8
 73
4
 74
0
 40
0
 40
0
 40
0
 40
0
 40
1
 40
1
 40
1
 40
1
 10
95.768312
 20
688.625933
 30
0.0
 10
95.338610
 20
688.132424
 30
0.0
 10
95.204358
 20
687.925094
 30
0.0
 10
94.157558
 20
686.881337
 30
0.0
  0
SPLINE
  5
103
100
AcDbEntity
  8
Clip_Interface
 62
4
100
AcDbSpline
 70
8
 71
3
 72
8
 73
4
 74
0
 40
0
 40
0
 40
0
 40
0
 40
1
 40
1
 40
1
 40
1
 10
94.157558
 20
686.881337
 30
0.0
 10
92.980691
 20
685.707897
 30
0.0
 10
93.093340
 20
685.746912
 30
0.0
 10
92.533368
 20
685.166194
 30
0.0
  0
SPLINE
  5
104
100
AcDbEntity
  8
Clip_Interface
 62
4
100
AcDbSpline
 70
8
 71
3
 72
8
 73
4
 74
0
 40
0
 40
0
 40
0
 40
0
 40
1
 40
1
 40
1
 40
1
 10
92.533368
 20
685.166194
 30
0.0
 10
91.973396
 20
684.585481
 30
0.0
 10
91.449693
 20
683.997220
 30
0.0
 10
90.912279
 20
683.368890
 30
0.0
  0
SPLINE
  5
105
100
AcDbEntity
  8
Clip_Interface
 62
4
100
AcDbSpline
 70
8
 71
3
 72
8
 73
4
 74
0
 40
0
 40
0
 40
0
 40
0
 40
1
 40
1
 40
1
 40
1
 10
90.912279
 20
683.368890
 30
0.0
 10
90.534476
 20
682.927168
 30
0.0
 10
89.883458
 20
681.975766
 30
0.0
 10
89.423998
 20
681.242921
 30
0.0
  0
SPLINE
  5
106
100
AcDbEntity
  8
Clip_Interface
 62
4
100
AcDbSpline
 70
8
 71
3
 72
8
 73
4
 74
0
 40
0
 40
0
 40
0
 40
0
 40
1
 40
1
 40
1
 40
1
 10
89.423998
 20
681.242921
 30
0.0
 10
88.027186
 20
679.014978
 30
0.0
 10
86.567181
 20
676.528009
 30
0.0
 10
85.049589
 20
674.354970
 30
0.0
  0
SPLINE
  5
107
100
AcDbEntity
  8
Clip_Interface
 62
4
100
AcDbSpline
 70
8
 71
3
 72
8
 73
4
 74
0
 40
0
 40
0
 40
0
 40
0
 40
1
 40
1
 40
1
 40
1
 10
85.049589
 20
674.354970
 30
0.0
 10
82.771196
 20
671.092544
 30
0.0
 10
79.650684
 20
668.438045
 30
0.0
 10
76.574136
 20
666.739412
 30
0.0
  0
LWPOLYLINE
  5
108
100
AcDbEntity
  8
Clip_Interface
 62
4
100
AcDbPolyline
 90
8
 70
0
 10
11.760006
 20
691.849029
 30
0.0
 10
11.760006
 20
641.981271
 30
0.0
 10
61.627247
 20
641.981271
 30
0.0
 10
111.494484
 20
641.981271
 30
0.0
 10
111.494484
 20
691.849029
 30
0.0
 10
111.377178
 20
691.849029
 30
0.0
 10
97.152726
 20
691.849029
 30
0.0
 10
97.152726
 20
691.847442
 30
0.0
  0
SPLINE
  5
109
100
AcDbEntity
  8
Clip_Interface
 62
4
100
AcDbSpline
 70
8
 71
3
 72
8
 73
4
 74
0
 40
0
 40
0
 40
0
 40
0
 40
1
 40
1
 40
1
 40
1
 10
46.680355
 20
666.739412
 30
0.0
 10
43.603806
 20
668.438045
 30
0.0
 10
40.483295
 20
671.092544
 30
0.0
 10
38.204902
 20
674.354970
 30
0.0
  0
SPLINE
  5
10a
100
AcDbEntity
  8
Clip_Interface
 62
4
100
AcDbSpline
 70
8
 71
3
 72
8
 73
4
 74
0
 40
0
 40
0
 40
0
 40
0
 40
1
 40
1
 40
1
 40
1
 10
38.204902
 20
674.354970
 30
0.0
 10
36.687307
 20
676.528011
 30
0.0
 10
35.227305
 20
679.014978
 30
0.0
 10
33.830492
 20
681.242921
 30
0.0
  0
SPLINE
  5
10b
100
AcDbEntity
  8
Clip_Interface
 62
4
100
AcDbSpline
 70
8
 71
3
 72
8
 73
4
 74
0
 40
0
 40
0
 40
0
 40
0
 40
1
 40
1
 40
1
 40
1
 10
33.830492
 20
681.242921
 30
0.0
 10
33.371033
 20
681.975766
 30
0.0
 10
32.720015
 20
682.927168
 30
0.0
 10
32.342211
 20
683.368890
 30
0.0
  0
SPLINE
  5
10c
100
AcDbEntity
  8
Clip_Interface
 62
4
100
AcDbSpline
 70
8
 71
3
 72
8
 73
4
 74
0
 40
0
 40
0
 40
0
 40
0
 40
1
 40
1
 40
1
 40
1
 10
32.342211
 20
683.368890
 30
0.0
 10
31.804797
 20
683.997222
 30
0.0
 10
31.281094
 20
684.585481
 30
0.0
 10
30.721122
 20
685.166194
 30
0.0
  0
SPLINE
  5
10d
100
AcDbEntity
  8
Clip_Interface
 62
4
100
AcDbSpline
 70
8
 71
3
 72
8
 73
4
 74
0
 40
0
 40
0
 40
0
 40
0
 40
1
 40
1
 40
1
 40
1
 10
30.721122
 20
685.166194
 30
0.0
 10
30.161150
 20
685.746912
 30
0.0
 10
30.273281
 20
685.707897
 30
0.0
 10
29.096414
 20
686.881337
 30
0.0
  0
SPLINE
  5
10e
100
AcDbEntity
  8
Clip_Interface
 62
4
100
AcDbSpline
 70
8
 71
3
 72
8
 73
4
 74
0
 40
0
 40
0
 40
0
 40
0
 40
1
 40
1
 40
1
 40
1
 10
29.096414
 20
686.881337
 30
0.0
 10
28.049614
 20
687.925094
 30
0.0
 10
27.915880
 20
688.132424
 30
0.0
 10
27.486178
 20
688.625933
 30
0.0
  0
SPLINE
  5
10f
100
AcDbEntity
  8
Clip_Interface
 62
4
100
AcDbSpline
 70
8
 71
3
 72
8
 73
4
 74
0
 40
0
 40
0
 40
0
 40
0
 40
1
 40
1
 40
1
 40
1
 10
27.486178
 20
688.625933
 30
0.0
 10
27.056474
 20
689.119442
 30
0.0
 10
26.955977
 20
689.270336
 30
0.0
 10
26.955977
 20
689.270336
 30
0.0
  0
SPLINE
  5
110
100
AcDbEntity
  8
Clip_Interface
 62
4
100
AcDbSpline
 70
8
 71
3
 72
8
 73
4
 74
0
 40
0
 40
0
 40
0
 40
0
 40
1
 40
1
 40
1
 40
1
 10
26.955977
 20
689.270336
 30
0.0
 10
26.408575
 20
690.014387
 30
0.0
 10
26.154376
 20
690.923284
 30
0.0
 10
26.101766
 20
691.847442
 30
0.0
  0
LWPOLYLINE
  5
111
100
AcDbEntity
  8
Clip_Interface
 62
4
100
AcDbPolyline
 90
5
 70
0
 10
76.574136
 20
666.739412
 30
0.0
 10
76.574136
 20
653.923657
 30
0.0
 10
61.627247
 20
653.923657
 30
0.0
 10
46.680355
 20
653.923657
 30
0.0
 10
46.680355
 20
666.739412
 30
0.0
  0
LWPOLYLINE
  5
112
100
AcDbEntity
  8
Clip_Interface
 62
4
100
AcDbPolyline
 90
4
 70
0
 10
26.101766
 20
691.847442
 30
0.0
 10
26.101766
 20
691.849029
 30
0.0
 10
11.877311
 20
691.849029
 30
0.0
 10
11.760006
 20
691.849029
 30
0.0
  0
ENDSEC
  0
SECTION
  2
OBJECTS
  0
DICTIONARY
  5
C
330
0
100
AcDbDictionary
  3
ACAD_GROUP
350
D
  3
ACAD_MLINESTYLE
350
17
  0
DICTIONARY
  5
D
330
C
100
AcDbDictionary
  0
DICTIONARY
  5
1A
330
C
100
AcDbDictionary
  0
DICTIONARY
  5
17
330
C
100
AcDbDictionary
  3
STANDARD
350
18
  0
DICTIONARY
  5
19
330
C
100
AcDbDictionary
  0
ENDSEC
  0
EOF
