  0
SECTION
  2
HEADER
  9
$ACADVER
  1
AC1014
  9
$HANDSEED
  5
FFFF
  9
$MEASUREMENT
 70
     1
  0
ENDSEC
  0
SECTION
  2
TABLES
  0
TABLE
  2
VPORT
  5
8
330
0
100
AcDbSymbolTable
 70
     4
  0
VPORT
  5
2E
330
8
100
AcDbSymbolTableRecord
100
AcDbViewportTableRecord
  2
*ACTIVE
 70
     0
 10
0.0
 20
0.0
 11
1.0
 21
1.0
 12
210.0
 22
148.5
 13
0.0
 23
0.0
 14
10.0
 24
10.0
 15
10.0
 25
10.0
 16
0.0
 26
0.0
 36
1.0
 17
0.0
 27
0.0
 37
0.0
 40
341.0
 41
1.24
 42
50.0
 43
0.0
 44
0.0
 50
0.0
 51
0.0
 71
     0
 72
   100
 73
     1
 74
     3
 75
     0
 76
     0
 77
     0
 78
     0
  0
ENDTAB
  0
TABLE
  2
LTYPE
  5
5
330
0
100
AcDbSymbolTable
 70
     1
  0
LTYPE
  5
14
330
5
100
AcDbSymbolTableRecord
100
AcDbLinetypeTableRecord
  2
BYBLOCK
 70
     0
  3

 72
    65
 73
     0
 40
0.0
  0
LTYPE
  5
15
330
5
100
AcDbSymbolTableRecord
100
AcDbLinetypeTableRecord
  2
BYLAYER
 70
     0
  3

 72
    65
 73
     0
 40
0.0
  0
LTYPE
  5
16
330
5
100
AcDbSymbolTableRecord
100
AcDbLinetypeTableRecord
  2
CONTINUOUS
 70
     0
  3
Solid line
 72
    65
 73
     0
 40
0.0
  0
ENDTAB
  0
TABLE
  2
LAYER
  5
2
100
AcDbSymbolTable
 70
7
  0
LAYER
  5
50
100
AcDbSymbolTableRecord
100
AcDbLayerTableRecord
  2
0
 70
0
  6
CONTINUOUS
  0
LAYER
  5
51
100
AcDbSymbolTableRecord
100
AcDbLayerTableRecord
  2
Cutout-nikita
 70
0
  6
CONTINUOUS
  0
LAYER
  5
52
100
AcDbSymbolTableRecord
100
AcDbLayerTableRecord
  2
Info_text
 70
0
  6
CONTINUOUS
  0
LAYER
  5
53
100
AcDbSymbolTableRecord
100
AcDbLayerTableRecord
  2
Clip_Interface_Guides
 70
0
  6
CONTINUOUS
  0
LAYER
  5
54
100
AcDbSymbolTableRecord
100
AcDbLayerTableRecord
  2
Clip_Interface
 70
0
  6
CONTINUOUS
  0
LAYER
  5
55
100
AcDbSymbolTableRecord
100
AcDbLayerTableRecord
  2
Interface_placement_
 70
0
  6
CONTINUOUS
  0
LAYER
  5
56
100
AcDbSymbolTableRecord
100
AcDbLayerTableRecord
  2
Feet
 70
0
  6
CONTINUOUS
  0
ENDTAB
  0
TABLE
  2
STYLE
  5
3
330
0
100
AcDbSymbolTable
 70
     1
  0
STYLE
  5
11
330
3
100
AcDbSymbolTableRecord
100
AcDbTextStyleTableRecord
  2
STANDARD
 70
     0
 40
0.0
 41
1.0
 50
0.0
 71
     0
 42
2.5
  3
txt
  4

  0
ENDTAB
  0
TABLE
  2
VIEW
  5
6
330
0
100
AcDbSymbolTable
 70
     0
  0
ENDTAB
  0
TABLE
  2
UCS
  5
7
330
0
100
AcDbSymbolTable
 70
     0
  0
ENDTAB
  0
TABLE
  2
APPID
  5
9
330
0
100
AcDbSymbolTable
 70
     2
  0
APPID
  5
12
330
9
100
AcDbSymbolTableRecord
100
AcDbRegAppTableRecord
  2
ACAD
 70
     0
  0
ENDTAB
  0
TABLE
  2
DIMSTYLE
  5
A
330
0
100
AcDbSymbolTable
 70
     1
  0
DIMSTYLE
105
27
330
A
100
AcDbSymbolTableRecord
100
AcDbDimStyleTableRecord
  2
ISO-25
 70
     0
  3

  4

  5

  6

  7

 40
1.0
 41
2.5
 42
0.625
 43
3.75
 44
1.25
 45
0.0
 46
0.0
 47
0.0
 48
0.0
140
2.5
141
2.5
142
0.0
143
0.03937007874016
144
1.0
145
0.0
146
1.0
147
0.625
 71
     0
 72
     0
 73
     0
 74
     0
 75
     0
 76
     0
 77
     1
 78
     8
170
     0
171
     3
172
     1
173
     0
174
     0
175
     0
176
     0
177
     0
178
     0
270
     2
271
     2
272
     2
273
     2
274
     3
340
11
275
     0
280
     0
281
     0
282
     0
283
     0
284
     8
285
     0
286
     0
287
     3
288
     0
  0
ENDTAB
  0
TABLE
  2
BLOCK_RECORD
  5
1
330
0
100
AcDbSymbolTable
 70
     1
  0
BLOCK_RECORD
  5
1F
330
1
100
AcDbSymbolTableRecord
100
AcDbBlockTableRecord
  2
*MODEL_SPACE
  0
BLOCK_RECORD
  5
1B
330
1
100
AcDbSymbolTableRecord
100
AcDbBlockTableRecord
  2
*PAPER_SPACE
  0
ENDTAB
  0
ENDSEC
  0
SECTION
  2
BLOCKS
  0
BLOCK
  5
20
330
1F
100
AcDbEntity
  8
0
100
AcDbBlockBegin
  2
*MODEL_SPACE
 70
     0
 10
0.0
 20
0.0
 30
0.0
  3
*MODEL_SPACE
  1

  0
ENDBLK
  5
21
330
1F
100
AcDbEntity
  8
0
100
AcDbBlockEnd
  0
BLOCK
  5
1C
330
1B
100
AcDbEntity
 67
     1
  8
0
100
AcDbBlockBegin
  2
*PAPER_SPACE
  1

  0
ENDBLK
  5
1D
330
1B
100
AcDbEntity
 67
     1
  8
0
100
AcDbBlockEnd
  0
ENDSEC
  0
SECTION
  2
ENTITIES
  0
SPLINE
  5
100
100
AcDbEntity
  8
Feet
 62
3
100
AcDbSpline
 70
8
 71
3
 72
8
 73
4
 74
0
 40
0
 40
0
 40
0
 40
0
 40
1
 40
1
 40
1
 40
1
 10
1017.405613
 20
663.394341
 30
0.0
 10
1017.405613
 20
655.266101
 30
0.0
 10
1013.069249
 20
647.755298
 30
0.0
 10
1006.029987
 20
643.691178
 30
0.0
  0
SPLINE
  5
101
100
AcDbEntity
  8
Feet
 62
3
100
AcDbSpline
 70
8
 71
3
 72
8
 73
4
 74
0
 40
0
 40
0
 40
0
 40
0
 40
1
 40
1
 40
1
 40
1
 10
1006.029987
 20
643.691178
 30
0.0
 10
998.990724
 20
639.627058
 30
0.0
 10
990.317996
 20
639.627058
 30
0.0
 10
983.278734
 20
643.691178
 30
0.0
  0
SPLINE
  5
102
100
AcDbEntity
  8
Feet
 62
3
100
AcDbSpline
 70
8
 71
3
 72
8
 73
4
 74
0
 40
0
 40
0
 40
0
 40
0
 40
1
 40
1
 40
1
 40
1
 10
983.278734
 20
643.691178
 30
0.0
 10
976.239471
 20
647.755298
 30
0.0
 10
971.903107
 20
655.266101
 30
0.0
 10
971.903107
 20
663.394341
 30
0.0
  0
SPLINE
  5
103
100
AcDbEntity
  8
Feet
 62
3
100
AcDbSpline
 70
8
 71
3
 72
8
 73
4
 74
0
 40
0
 40
0
 40
0
 40
0
 40
1
 40
1
 40
1
 40
1
 10
971.903107
 20
663.394341
 30
0.0
 10
971.903107
 20
671.522581
 30
0.0
 10
976.239471
 20
679.033384
 30
0.0
 10
983.278734
 20
683.097504
 30
0.0
  0
SPLINE
  5
104
100
AcDbEntity
  8
Feet
 62
3
100
AcDbSpline
 70
8
 71
3
 72
8
 73
4
 74
0
 40
0
 40
0
 40
0
 40
0
 40
1
 40
1
 40
1
 40
1
 10
983.278734
 20
683.097504
 30
0.0
 10
990.317996
 20
687.161624
 30
0.0
 10
998.990724
 20
687.161624
 30
0.0
 10
1006.029987
 20
683.097504
 30
0.0
  0
SPLINE
  5
105
100
AcDbEntity
  8
Feet
 62
3
100
AcDbSpline
 70
8
 71
3
 72
8
 73
4
 74
0
 40
0
 40
0
 40
0
 40
0
 40
1
 40
1
 40
1
 40
1
 10
1006.029987
 20
683.097504
 30
0.0
 10
1013.069249
 20
679.033384
 30
0.0
 10
1017.405613
 20
671.522581
 30
0.0
 10
1017.405613
 20
663.394341
 30
0.0
  0
SPLINE
  5
106
100
AcDbEntity
  8
Feet
 62
3
100
AcDbSpline
 70
8
 71
3
 72
8
 73
4
 74
0
 40
0
 40
0
 40
0
 40
0
 40
1
 40
1
 40
1
 40
1
 10
1088.306199
 20
663.394341
 30
0.0
 10
1088.306198
 20
649.724471
 30
0.0
 10
1077.224575
 20
638.642853
 30
0.0
 10
1063.554700
 20
638.642853
 30
0.0
  0
SPLINE
  5
107
100
AcDbEntity
  8
Feet
 62
3
100
AcDbSpline
 70
8
 71
3
 72
8
 73
4
 74
0
 40
0
 40
0
 40
0
 40
0
 40
1
 40
1
 40
1
 40
1
 10
1063.554700
 20
638.642853
 30
0.0
 10
1049.884825
 20
638.642853
 30
0.0
 10
1038.803202
 20
649.724471
 30
0.0
 10
1038.803201
 20
663.394341
 30
0.0
  0
SPLINE
  5
108
100
AcDbEntity
  8
Feet
 62
3
100
AcDbSpline
 70
8
 71
3
 72
8
 73
4
 74
0
 40
0
 40
0
 40
0
 40
0
 40
1
 40
1
 40
1
 40
1
 10
1038.803201
 20
663.394341
 30
0.0
 10
1038.803201
 20
672.237197
 30
0.0
 10
1043.520810
 20
680.408332
 30
0.0
 10
1051.178951
 20
684.829760
 30
0.0
  0
SPLINE
  5
109
100
AcDbEntity
  8
Feet
 62
3
100
AcDbSpline
 70
8
 71
3
 72
8
 73
4
 74
0
 40
0
 40
0
 40
0
 40
0
 40
1
 40
1
 40
1
 40
1
 10
1051.178951
 20
684.829760
 30
0.0
 10
1058.837091
 20
689.251188
 30
0.0
 10
1068.272309
 20
689.251188
 30
0.0
 10
1075.930450
 20
684.829760
 30
0.0
  0
SPLINE
  5
10a
100
AcDbEntity
  8
Feet
 62
3
100
AcDbSpline
 70
8
 71
3
 72
8
 73
4
 74
0
 40
0
 40
0
 40
0
 40
0
 40
1
 40
1
 40
1
 40
1
 10
1075.930450
 20
684.829760
 30
0.0
 10
1083.588590
 20
680.408332
 30
0.0
 10
1088.306199
 20
672.237197
 30
0.0
 10
1088.306199
 20
663.394341
 30
0.0
  0
LWPOLYLINE
  5
10b
100
AcDbEntity
  8
Feet
 62
3
100
AcDbPolyline
 90
1
 70
1
 10
1017.405613
 20
663.394341
 30
0.0
  0
SPLINE
  5
10c
100
AcDbEntity
  8
Feet
 62
3
100
AcDbSpline
 70
8
 71
3
 72
8
 73
4
 74
0
 40
0
 40
0
 40
0
 40
0
 40
1
 40
1
 40
1
 40
1
 10
997.405612
 20
663.394341
 30
0.0
 10
997.405612
 20
662.411413
 30
0.0
 10
996.881227
 20
661.503150
 30
0.0
 10
996.029986
 20
661.011687
 30
0.0
  0
SPLINE
  5
10d
100
AcDbEntity
  8
Feet
 62
3
100
AcDbSpline
 70
8
 71
3
 72
8
 73
4
 74
0
 40
0
 40
0
 40
0
 40
0
 40
1
 40
1
 40
1
 40
1
 10
996.029986
 20
661.011687
 30
0.0
 10
995.178746
 20
660.520223
 30
0.0
 10
994.129974
 20
660.520223
 30
0.0
 10
993.278734
 20
661.011687
 30
0.0
  0
SPLINE
  5
10e
100
AcDbEntity
  8
Feet
 62
3
100
AcDbSpline
 70
8
 71
3
 72
8
 73
4
 74
0
 40
0
 40
0
 40
0
 40
0
 40
1
 40
1
 40
1
 40
1
 10
993.278734
 20
661.011687
 30
0.0
 10
992.427493
 20
661.503150
 30
0.0
 10
991.903108
 20
662.411413
 30
0.0
 10
991.903108
 20
663.394341
 30
0.0
  0
SPLINE
  5
10f
100
AcDbEntity
  8
Feet
 62
3
100
AcDbSpline
 70
8
 71
3
 72
8
 73
4
 74
0
 40
0
 40
0
 40
0
 40
0
 40
1
 40
1
 40
1
 40
1
 10
991.903108
 20
663.394341
 30
0.0
 10
991.903108
 20
664.377269
 30
0.0
 10
992.427493
 20
665.285532
 30
0.0
 10
993.278734
 20
665.776995
 30
0.0
  0
SPLINE
  5
110
100
AcDbEntity
  8
Feet
 62
3
100
AcDbSpline
 70
8
 71
3
 72
8
 73
4
 74
0
 40
0
 40
0
 40
0
 40
0
 40
1
 40
1
 40
1
 40
1
 10
993.278734
 20
665.776995
 30
0.0
 10
994.129974
 20
666.268459
 30
0.0
 10
995.178746
 20
666.268459
 30
0.0
 10
996.029986
 20
665.776995
 30
0.0
  0
SPLINE
  5
111
100
AcDbEntity
  8
Feet
 62
3
100
AcDbSpline
 70
8
 71
3
 72
8
 73
4
 74
0
 40
0
 40
0
 40
0
 40
0
 40
1
 40
1
 40
1
 40
1
 10
996.029986
 20
665.776995
 30
0.0
 10
996.881227
 20
665.285532
 30
0.0
 10
997.405612
 20
664.377269
 30
0.0
 10
997.405612
 20
663.394341
 30
0.0
  0
LWPOLYLINE
  5
112
100
AcDbEntity
  8
Feet
 62
3
100
AcDbPolyline
 90
1
 70
1
 10
1088.306199
 20
663.394341
 30
0.0
  0
SPLINE
  5
113
100
AcDbEntity
  8
Feet
 62
3
100
AcDbSpline
 70
8
 71
3
 72
8
 73
4
 74
0
 40
0
 40
0
 40
0
 40
0
 40
1
 40
1
 40
1
 40
1
 10
1066.305952
 20
663.394341
 30
0.0
 10
1066.305952
 20
662.411413
 30
0.0
 10
1065.781567
 20
661.503150
 30
0.0
 10
1064.930326
 20
661.011687
 30
0.0
  0
SPLINE
  5
114
100
AcDbEntity
  8
Feet
 62
3
100
AcDbSpline
 70
8
 71
3
 72
8
 73
4
 74
0
 40
0
 40
0
 40
0
 40
0
 40
1
 40
1
 40
1
 40
1
 10
1064.930326
 20
661.011687
 30
0.0
 10
1064.079086
 20
660.520223
 30
0.0
 10
1063.030314
 20
660.520223
 30
0.0
 10
1062.179074
 20
661.011687
 30
0.0
  0
SPLINE
  5
115
100
AcDbEntity
  8
Feet
 62
3
100
AcDbSpline
 70
8
 71
3
 72
8
 73
4
 74
0
 40
0
 40
0
 40
0
 40
0
 40
1
 40
1
 40
1
 40
1
 10
1062.179074
 20
661.011687
 30
0.0
 10
1061.327833
 20
661.503150
 30
0.0
 10
1060.803448
 20
662.411413
 30
0.0
 10
1060.803448
 20
663.394341
 30
0.0
  0
SPLINE
  5
116
100
AcDbEntity
  8
Feet
 62
3
100
AcDbSpline
 70
8
 71
3
 72
8
 73
4
 74
0
 40
0
 40
0
 40
0
 40
0
 40
1
 40
1
 40
1
 40
1
 10
1060.803448
 20
663.394341
 30
0.0
 10
1060.803448
 20
664.377269
 30
0.0
 10
1061.327833
 20
665.285532
 30
0.0
 10
1062.179074
 20
665.776995
 30
0.0
  0
SPLINE
  5
117
100
AcDbEntity
  8
Feet
 62
3
100
AcDbSpline
 70
8
 71
3
 72
8
 73
4
 74
0
 40
0
 40
0
 40
0
 40
0
 40
1
 40
1
 40
1
 40
1
 10
1062.179074
 20
665.776995
 30
0.0
 10
1063.030314
 20
666.268459
 30
0.0
 10
1064.079086
 20
666.268459
 30
0.0
 10
1064.930326
 20
665.776995
 30
0.0
  0
SPLINE
  5
118
100
AcDbEntity
  8
Feet
 62
3
100
AcDbSpline
 70
8
 71
3
 72
8
 73
4
 74
0
 40
0
 40
0
 40
0
 40
0
 40
1
 40
1
 40
1
 40
1
 10
1064.930326
 20
665.776995
 30
0.0
 10
1065.781567
 20
665.285532
 30
0.0
 10
1066.305952
 20
664.377269
 30
0.0
 10
1066.305952
 20
663.394341
 30
0.0
  0
LWPOLYLINE
  5
119
100
AcDbEntity
  8
Feet
 62
3
100
AcDbPolyline
 90
1
 70
1
 10
997.405612
 20
663.394341
 30
0.0
  0
LWPOLYLINE
  5
11a
100
AcDbEntity
  8
Feet
 62
3
100
AcDbPolyline
 90
1
 70
1
 10
1066.305952
 20
663.394341
 30
0.0
  0
ENDSEC
  0
SECTION
  2
OBJECTS
  0
DICTIONARY
  5
C
330
0
100
AcDbDictionary
  3
ACAD_GROUP
350
D
  3
ACAD_MLINESTYLE
350
17
  0
DICTIONARY
  5
D
330
C
100
AcDbDictionary
  0
DICTIONARY
  5
1A
330
C
100
AcDbDictionary
  0
DICTIONARY
  5
17
330
C
100
AcDbDictionary
  3
STANDARD
350
18
  0
DICTIONARY
  5
19
330
C
100
AcDbDictionary
  0
ENDSEC
  0
EOF
