  0
SECTION
  2
HEADER
  9
$ACADVER
  1
AC1014
  9
$HANDSEED
  5
FFFF
  9
$MEASUREMENT
 70
     1
  0
ENDSEC
  0
SECTION
  2
TABLES
  0
TABLE
  2
VPORT
  5
8
330
0
100
AcDbSymbolTable
 70
     4
  0
VPORT
  5
2E
330
8
100
AcDbSymbolTableRecord
100
AcDbViewportTableRecord
  2
*ACTIVE
 70
     0
 10
0.0
 20
0.0
 11
1.0
 21
1.0
 12
210.0
 22
148.5
 13
0.0
 23
0.0
 14
10.0
 24
10.0
 15
10.0
 25
10.0
 16
0.0
 26
0.0
 36
1.0
 17
0.0
 27
0.0
 37
0.0
 40
341.0
 41
1.24
 42
50.0
 43
0.0
 44
0.0
 50
0.0
 51
0.0
 71
     0
 72
   100
 73
     1
 74
     3
 75
     0
 76
     0
 77
     0
 78
     0
  0
ENDTAB
  0
TABLE
  2
LTYPE
  5
5
330
0
100
AcDbSymbolTable
 70
     1
  0
LTYPE
  5
14
330
5
100
AcDbSymbolTableRecord
100
AcDbLinetypeTableRecord
  2
BYBLOCK
 70
     0
  3

 72
    65
 73
     0
 40
0.0
  0
LTYPE
  5
15
330
5
100
AcDbSymbolTableRecord
100
AcDbLinetypeTableRecord
  2
BYLAYER
 70
     0
  3

 72
    65
 73
     0
 40
0.0
  0
LTYPE
  5
16
330
5
100
AcDbSymbolTableRecord
100
AcDbLinetypeTableRecord
  2
CONTINUOUS
 70
     0
  3
Solid line
 72
    65
 73
     0
 40
0.0
  0
ENDTAB
  0
TABLE
  2
LAYER
  5
2
100
AcDbSymbolTable
 70
7
  0
LAYER
  5
50
100
AcDbSymbolTableRecord
100
AcDbLayerTableRecord
  2
0
 70
0
  6
CONTINUOUS
  0
LAYER
  5
51
100
AcDbSymbolTableRecord
100
AcDbLayerTableRecord
  2
Cutout-nikita
 70
0
  6
CONTINUOUS
  0
LAYER
  5
52
100
AcDbSymbolTableRecord
100
AcDbLayerTableRecord
  2
Info_text
 70
0
  6
CONTINUOUS
  0
LAYER
  5
53
100
AcDbSymbolTableRecord
100
AcDbLayerTableRecord
  2
Clip_Interface_Guides
 70
0
  6
CONTINUOUS
  0
LAYER
  5
54
100
AcDbSymbolTableRecord
100
AcDbLayerTableRecord
  2
Clip_Interface
 70
0
  6
CONTINUOUS
  0
LAYER
  5
55
100
AcDbSymbolTableRecord
100
AcDbLayerTableRecord
  2
Interface_placement_
 70
0
  6
CONTINUOUS
  0
LAYER
  5
56
100
AcDbSymbolTableRecord
100
AcDbLayerTableRecord
  2
Feet
 70
0
  6
CONTINUOUS
  0
ENDTAB
  0
TABLE
  2
STYLE
  5
3
330
0
100
AcDbSymbolTable
 70
     1
  0
STYLE
  5
11
330
3
100
AcDbSymbolTableRecord
100
AcDbTextStyleTableRecord
  2
STANDARD
 70
     0
 40
0.0
 41
1.0
 50
0.0
 71
     0
 42
2.5
  3
txt
  4

  0
ENDTAB
  0
TABLE
  2
VIEW
  5
6
330
0
100
AcDbSymbolTable
 70
     0
  0
ENDTAB
  0
TABLE
  2
UCS
  5
7
330
0
100
AcDbSymbolTable
 70
     0
  0
ENDTAB
  0
TABLE
  2
APPID
  5
9
330
0
100
AcDbSymbolTable
 70
     2
  0
APPID
  5
12
330
9
100
AcDbSymbolTableRecord
100
AcDbRegAppTableRecord
  2
ACAD
 70
     0
  0
ENDTAB
  0
TABLE
  2
DIMSTYLE
  5
A
330
0
100
AcDbSymbolTable
 70
     1
  0
DIMSTYLE
105
27
330
A
100
AcDbSymbolTableRecord
100
AcDbDimStyleTableRecord
  2
ISO-25
 70
     0
  3

  4

  5

  6

  7

 40
1.0
 41
2.5
 42
0.625
 43
3.75
 44
1.25
 45
0.0
 46
0.0
 47
0.0
 48
0.0
140
2.5
141
2.5
142
0.0
143
0.03937007874016
144
1.0
145
0.0
146
1.0
147
0.625
 71
     0
 72
     0
 73
     0
 74
     0
 75
     0
 76
     0
 77
     1
 78
     8
170
     0
171
     3
172
     1
173
     0
174
     0
175
     0
176
     0
177
     0
178
     0
270
     2
271
     2
272
     2
273
     2
274
     3
340
11
275
     0
280
     0
281
     0
282
     0
283
     0
284
     8
285
     0
286
     0
287
     3
288
     0
  0
ENDTAB
  0
TABLE
  2
BLOCK_RECORD
  5
1
330
0
100
AcDbSymbolTable
 70
     1
  0
BLOCK_RECORD
  5
1F
330
1
100
AcDbSymbolTableRecord
100
AcDbBlockTableRecord
  2
*MODEL_SPACE
  0
BLOCK_RECORD
  5
1B
330
1
100
AcDbSymbolTableRecord
100
AcDbBlockTableRecord
  2
*PAPER_SPACE
  0
ENDTAB
  0
ENDSEC
  0
SECTION
  2
BLOCKS
  0
BLOCK
  5
20
330
1F
100
AcDbEntity
  8
0
100
AcDbBlockBegin
  2
*MODEL_SPACE
 70
     0
 10
0.0
 20
0.0
 30
0.0
  3
*MODEL_SPACE
  1

  0
ENDBLK
  5
21
330
1F
100
AcDbEntity
  8
0
100
AcDbBlockEnd
  0
BLOCK
  5
1C
330
1B
100
AcDbEntity
 67
     1
  8
0
100
AcDbBlockBegin
  2
*PAPER_SPACE
  1

  0
ENDBLK
  5
1D
330
1B
100
AcDbEntity
 67
     1
  8
0
100
AcDbBlockEnd
  0
ENDSEC
  0
SECTION
  2
ENTITIES
  0
SPLINE
  5
100
100
AcDbEntity
  8
Cutout-nikita
 62
1
100
AcDbSpline
 70
8
 71
3
 72
8
 73
4
 74
0
 40
0
 40
0
 40
0
 40
0
 40
1
 40
1
 40
1
 40
1
 10
530.682582
 20
748.778168
 30
0.0
 10
438.900872
 20
748.778168
 30
0.0
 10
345.254312
 20
733.194635
 30
0.0
 10
252.155922
 20
702.408522
 30
0.0
  0
SPLINE
  5
101
100
AcDbEntity
  8
Cutout-nikita
 62
1
100
AcDbSpline
 70
8
 71
3
 72
8
 73
4
 74
0
 40
0
 40
0
 40
0
 40
0
 40
1
 40
1
 40
1
 40
1
 10
252.155922
 20
702.408522
 30
0.0
 10
155.011372
 20
669.302641
 30
0.0
 10
78.535827
 20
601.561007
 30
0.0
 10
36.823747
 20
511.655028
 30
0.0
  0
SPLINE
  5
102
100
AcDbEntity
  8
Cutout-nikita
 62
1
100
AcDbSpline
 70
8
 71
3
 72
8
 73
4
 74
0
 40
0
 40
0
 40
0
 40
0
 40
1
 40
1
 40
1
 40
1
 10
36.823747
 20
511.655028
 30
0.0
 10
-3.260762
 20
425.261078
 30
0.0
 10
-9.729266
 20
321.430208
 30
0.0
 10
18.598501
 20
219.294778
 30
0.0
  0
SPLINE
  5
103
100
AcDbEntity
  8
Cutout-nikita
 62
1
100
AcDbSpline
 70
8
 71
3
 72
8
 73
4
 74
0
 40
0
 40
0
 40
0
 40
0
 40
1
 40
1
 40
1
 40
1
 10
18.598501
 20
219.294778
 30
0.0
 10
18.765259
 20
218.692198
 30
0.0
 10
18.951008
 20
218.098238
 30
0.0
 10
19.156646
 20
217.511168
 30
0.0
  0
SPLINE
  5
104
100
AcDbEntity
  8
Cutout-nikita
 62
1
100
AcDbSpline
 70
8
 71
3
 72
8
 73
4
 74
0
 40
0
 40
0
 40
0
 40
0
 40
1
 40
1
 40
1
 40
1
 10
19.156646
 20
217.511168
 30
0.0
 10
63.054181
 20
91.764888
 30
0.0
 10
148.428982
 20
11.217958
 30
0.0
 10
247.534872
 20
2.046548
 30
0.0
  0
SPLINE
  5
105
100
AcDbEntity
  8
Cutout-nikita
 62
1
100
AcDbSpline
 70
8
 71
3
 72
8
 73
4
 74
0
 40
0
 40
0
 40
0
 40
0
 40
1
 40
1
 40
1
 40
1
 10
247.534872
 20
2.046548
 30
0.0
 10
253.473892
 20
1.498218
 30
0.0
 10
259.512322
 20
1.221128
 30
0.0
 10
265.487762
 20
1.221128
 30
0.0
  0
SPLINE
  5
106
100
AcDbEntity
  8
Cutout-nikita
 62
1
100
AcDbSpline
 70
8
 71
3
 72
8
 73
4
 74
0
 40
0
 40
0
 40
0
 40
0
 40
1
 40
1
 40
1
 40
1
 10
265.487762
 20
1.221128
 30
0.0
 10
307.860512
 20
1.221128
 30
0.0
 10
356.392602
 20
15.820048
 30
0.0
 10
396.312392
 20
33.876718
 30
0.0
  0
SPLINE
  5
107
100
AcDbEntity
  8
Cutout-nikita
 62
1
100
AcDbSpline
 70
8
 71
3
 72
8
 73
4
 74
0
 40
0
 40
0
 40
0
 40
0
 40
1
 40
1
 40
1
 40
1
 10
396.312392
 20
33.876718
 30
0.0
 10
476.567012
 20
70.177768
 30
0.0
 10
513.254302
 20
77.919878
 30
0.0
 10
563.070212
 20
77.919878
 30
0.0
  0
SPLINE
  5
108
100
AcDbEntity
  8
Cutout-nikita
 62
1
100
AcDbSpline
 70
8
 71
3
 72
8
 73
4
 74
0
 40
0
 40
0
 40
0
 40
0
 40
1
 40
1
 40
1
 40
1
 10
563.070212
 20
77.919878
 30
0.0
 10
609.786272
 20
77.919878
 30
0.0
 10
634.463182
 20
76.901758
 30
0.0
 10
701.319012
 20
42.417868
 30
0.0
  0
SPLINE
  5
109
100
AcDbEntity
  8
Cutout-nikita
 62
1
100
AcDbSpline
 70
8
 71
3
 72
8
 73
4
 74
0
 40
0
 40
0
 40
0
 40
0
 40
1
 40
1
 40
1
 40
1
 10
701.319012
 20
42.417868
 30
0.0
 10
740.591692
 20
22.161218
 30
0.0
 10
785.552082
 20
14.398158
 30
0.0
 10
829.253162
 20
18.270048
 30
0.0
  0
SPLINE
  5
10a
100
AcDbEntity
  8
Cutout-nikita
 62
1
100
AcDbSpline
 70
8
 71
3
 72
8
 73
4
 74
0
 40
0
 40
0
 40
0
 40
0
 40
1
 40
1
 40
1
 40
1
 10
829.253162
 20
18.270048
 30
0.0
 10
952.354752
 20
29.176778
 30
0.0
 10
1051.888182
 20
129.736878
 30
0.0
 10
1078.792982
 20
212.858588
 30
0.0
  0
SPLINE
  5
10b
100
AcDbEntity
  8
Cutout-nikita
 62
1
100
AcDbSpline
 70
8
 71
3
 72
8
 73
4
 74
0
 40
0
 40
0
 40
0
 40
0
 40
1
 40
1
 40
1
 40
1
 10
1078.792982
 20
212.858588
 30
0.0
 10
1111.841782
 20
314.962128
 30
0.0
 10
1103.680882
 20
415.855368
 30
0.0
 10
1056.098482
 20
504.357508
 30
0.0
  0
SPLINE
  5
10c
100
AcDbEntity
  8
Cutout-nikita
 62
1
100
AcDbSpline
 70
8
 71
3
 72
8
 73
4
 74
0
 40
0
 40
0
 40
0
 40
0
 40
1
 40
1
 40
1
 40
1
 10
1056.098482
 20
504.357508
 30
0.0
 10
1013.158782
 20
584.225808
 30
0.0
 10
938.874022
 20
649.697161
 30
0.0
 10
846.923252
 20
688.710227
 30
0.0
  0
SPLINE
  5
10d
100
AcDbEntity
  8
Cutout-nikita
 62
1
100
AcDbSpline
 70
8
 71
3
 72
8
 73
4
 74
0
 40
0
 40
0
 40
0
 40
0
 40
1
 40
1
 40
1
 40
1
 10
846.923252
 20
688.710227
 30
0.0
 10
846.660632
 20
688.822670
 30
0.0
 10
846.396272
 20
688.929159
 30
0.0
 10
846.128352
 20
689.031564
 30
0.0
  0
SPLINE
  5
10e
100
AcDbEntity
  8
Cutout-nikita
 62
1
100
AcDbSpline
 70
8
 71
3
 72
8
 73
4
 74
0
 40
0
 40
0
 40
0
 40
0
 40
1
 40
1
 40
1
 40
1
 10
846.128352
 20
689.031564
 30
0.0
 10
740.987462
 20
728.673678
 30
0.0
 10
634.851612
 20
748.778873
 30
0.0
 10
530.682262
 20
748.778873
 30
0.0
  0
SPLINE
  5
10f
100
AcDbEntity
  8
Interface_placement_
 62
1
100
AcDbSpline
 70
8
 71
3
 72
8
 73
4
 74
0
 40
0
 40
0
 40
0
 40
0
 40
1
 40
1
 40
1
 40
1
 10
595.324194
 20
666.832584
 30
0.0
 10
595.324194
 20
665.849656
 30
0.0
 10
594.799808
 20
664.941393
 30
0.0
 10
593.948568
 20
664.449930
 30
0.0
  0
SPLINE
  5
110
100
AcDbEntity
  8
Interface_placement_
 62
1
100
AcDbSpline
 70
8
 71
3
 72
8
 73
4
 74
0
 40
0
 40
0
 40
0
 40
0
 40
1
 40
1
 40
1
 40
1
 10
593.948568
 20
664.449930
 30
0.0
 10
593.097327
 20
663.958466
 30
0.0
 10
592.048556
 20
663.958466
 30
0.0
 10
591.197316
 20
664.449930
 30
0.0
  0
SPLINE
  5
111
100
AcDbEntity
  8
Interface_placement_
 62
1
100
AcDbSpline
 70
8
 71
3
 72
8
 73
4
 74
0
 40
0
 40
0
 40
0
 40
0
 40
1
 40
1
 40
1
 40
1
 10
591.197316
 20
664.449930
 30
0.0
 10
590.346075
 20
664.941393
 30
0.0
 10
589.821689
 20
665.849656
 30
0.0
 10
589.821689
 20
666.832584
 30
0.0
  0
SPLINE
  5
112
100
AcDbEntity
  8
Interface_placement_
 62
1
100
AcDbSpline
 70
8
 71
3
 72
8
 73
4
 74
0
 40
0
 40
0
 40
0
 40
0
 40
1
 40
1
 40
1
 40
1
 10
589.821689
 20
666.832584
 30
0.0
 10
589.821689
 20
667.815512
 30
0.0
 10
590.346075
 20
668.723775
 30
0.0
 10
591.197316
 20
669.215238
 30
0.0
  0
SPLINE
  5
113
100
AcDbEntity
  8
Interface_placement_
 62
1
100
AcDbSpline
 70
8
 71
3
 72
8
 73
4
 74
0
 40
0
 40
0
 40
0
 40
0
 40
1
 40
1
 40
1
 40
1
 10
591.197316
 20
669.215238
 30
0.0
 10
592.048556
 20
669.706702
 30
0.0
 10
593.097327
 20
669.706702
 30
0.0
 10
593.948568
 20
669.215238
 30
0.0
  0
SPLINE
  5
114
100
AcDbEntity
  8
Interface_placement_
 62
1
100
AcDbSpline
 70
8
 71
3
 72
8
 73
4
 74
0
 40
0
 40
0
 40
0
 40
0
 40
1
 40
1
 40
1
 40
1
 10
593.948568
 20
669.215238
 30
0.0
 10
594.799808
 20
668.723775
 30
0.0
 10
595.324194
 20
667.815512
 30
0.0
 10
595.324194
 20
666.832584
 30
0.0
  0
LWPOLYLINE
  5
115
100
AcDbEntity
  8
Cutout-nikita
 62
1
100
AcDbPolyline
 90
2
 70
0
 10
530.682262
 20
748.778873
 30
0.0
 10
530.682582
 20
748.778168
 30
0.0
  0
SPLINE
  5
116
100
AcDbEntity
  8
Interface_placement_
 62
1
100
AcDbSpline
 70
8
 71
3
 72
8
 73
4
 74
0
 40
0
 40
0
 40
0
 40
0
 40
1
 40
1
 40
1
 40
1
 10
595.324194
 20
649.972827
 30
0.0
 10
595.324194
 20
648.989899
 30
0.0
 10
594.799808
 20
648.081636
 30
0.0
 10
593.948568
 20
647.590173
 30
0.0
  0
SPLINE
  5
117
100
AcDbEntity
  8
Interface_placement_
 62
1
100
AcDbSpline
 70
8
 71
3
 72
8
 73
4
 74
0
 40
0
 40
0
 40
0
 40
0
 40
1
 40
1
 40
1
 40
1
 10
593.948568
 20
647.590173
 30
0.0
 10
593.097327
 20
647.098709
 30
0.0
 10
592.048556
 20
647.098709
 30
0.0
 10
591.197316
 20
647.590173
 30
0.0
  0
SPLINE
  5
118
100
AcDbEntity
  8
Interface_placement_
 62
1
100
AcDbSpline
 70
8
 71
3
 72
8
 73
4
 74
0
 40
0
 40
0
 40
0
 40
0
 40
1
 40
1
 40
1
 40
1
 10
591.197316
 20
647.590173
 30
0.0
 10
590.346075
 20
648.081636
 30
0.0
 10
589.821689
 20
648.989899
 30
0.0
 10
589.821689
 20
649.972827
 30
0.0
  0
SPLINE
  5
119
100
AcDbEntity
  8
Interface_placement_
 62
1
100
AcDbSpline
 70
8
 71
3
 72
8
 73
4
 74
0
 40
0
 40
0
 40
0
 40
0
 40
1
 40
1
 40
1
 40
1
 10
589.821689
 20
649.972827
 30
0.0
 10
589.821689
 20
650.955755
 30
0.0
 10
590.346075
 20
651.864018
 30
0.0
 10
591.197316
 20
652.355481
 30
0.0
  0
SPLINE
  5
11a
100
AcDbEntity
  8
Interface_placement_
 62
1
100
AcDbSpline
 70
8
 71
3
 72
8
 73
4
 74
0
 40
0
 40
0
 40
0
 40
0
 40
1
 40
1
 40
1
 40
1
 10
591.197316
 20
652.355481
 30
0.0
 10
592.048556
 20
652.846945
 30
0.0
 10
593.097327
 20
652.846945
 30
0.0
 10
593.948568
 20
652.355481
 30
0.0
  0
SPLINE
  5
11b
100
AcDbEntity
  8
Interface_placement_
 62
1
100
AcDbSpline
 70
8
 71
3
 72
8
 73
4
 74
0
 40
0
 40
0
 40
0
 40
0
 40
1
 40
1
 40
1
 40
1
 10
593.948568
 20
652.355481
 30
0.0
 10
594.799808
 20
651.864018
 30
0.0
 10
595.324194
 20
650.955755
 30
0.0
 10
595.324194
 20
649.972827
 30
0.0
  0
LWPOLYLINE
  5
11c
100
AcDbEntity
  8
Interface_placement_
 62
1
100
AcDbPolyline
 90
1
 70
1
 10
595.324194
 20
666.832584
 30
0.0
  0
SPLINE
  5
11d
100
AcDbEntity
  8
Interface_placement_
 62
1
100
AcDbSpline
 70
8
 71
3
 72
8
 73
4
 74
0
 40
0
 40
0
 40
0
 40
0
 40
1
 40
1
 40
1
 40
1
 10
595.324194
 20
633.113048
 30
0.0
 10
595.324194
 20
632.130120
 30
0.0
 10
594.799808
 20
631.221857
 30
0.0
 10
593.948568
 20
630.730394
 30
0.0
  0
SPLINE
  5
11e
100
AcDbEntity
  8
Interface_placement_
 62
1
100
AcDbSpline
 70
8
 71
3
 72
8
 73
4
 74
0
 40
0
 40
0
 40
0
 40
0
 40
1
 40
1
 40
1
 40
1
 10
593.948568
 20
630.730394
 30
0.0
 10
593.097327
 20
630.238930
 30
0.0
 10
592.048556
 20
630.238930
 30
0.0
 10
591.197316
 20
630.730394
 30
0.0
  0
SPLINE
  5
11f
100
AcDbEntity
  8
Interface_placement_
 62
1
100
AcDbSpline
 70
8
 71
3
 72
8
 73
4
 74
0
 40
0
 40
0
 40
0
 40
0
 40
1
 40
1
 40
1
 40
1
 10
591.197316
 20
630.730394
 30
0.0
 10
590.346075
 20
631.221857
 30
0.0
 10
589.821689
 20
632.130120
 30
0.0
 10
589.821689
 20
633.113048
 30
0.0
  0
SPLINE
  5
120
100
AcDbEntity
  8
Interface_placement_
 62
1
100
AcDbSpline
 70
8
 71
3
 72
8
 73
4
 74
0
 40
0
 40
0
 40
0
 40
0
 40
1
 40
1
 40
1
 40
1
 10
589.821689
 20
633.113048
 30
0.0
 10
589.821689
 20
634.095976
 30
0.0
 10
590.346075
 20
635.004239
 30
0.0
 10
591.197316
 20
635.495702
 30
0.0
  0
SPLINE
  5
121
100
AcDbEntity
  8
Interface_placement_
 62
1
100
AcDbSpline
 70
8
 71
3
 72
8
 73
4
 74
0
 40
0
 40
0
 40
0
 40
0
 40
1
 40
1
 40
1
 40
1
 10
591.197316
 20
635.495702
 30
0.0
 10
592.048556
 20
635.987166
 30
0.0
 10
593.097327
 20
635.987166
 30
0.0
 10
593.948568
 20
635.495702
 30
0.0
  0
SPLINE
  5
122
100
AcDbEntity
  8
Interface_placement_
 62
1
100
AcDbSpline
 70
8
 71
3
 72
8
 73
4
 74
0
 40
0
 40
0
 40
0
 40
0
 40
1
 40
1
 40
1
 40
1
 10
593.948568
 20
635.495702
 30
0.0
 10
594.799808
 20
635.004239
 30
0.0
 10
595.324194
 20
634.095976
 30
0.0
 10
595.324194
 20
633.113048
 30
0.0
  0
LWPOLYLINE
  5
123
100
AcDbEntity
  8
Interface_placement_
 62
1
100
AcDbPolyline
 90
1
 70
1
 10
595.324194
 20
649.972827
 30
0.0
  0
SPLINE
  5
124
100
AcDbEntity
  8
Interface_placement_
 62
1
100
AcDbSpline
 70
8
 71
3
 72
8
 73
4
 74
0
 40
0
 40
0
 40
0
 40
0
 40
1
 40
1
 40
1
 40
1
 10
577.861708
 20
641.542903
 30
0.0
 10
577.861708
 20
640.559975
 30
0.0
 10
577.337322
 20
639.651712
 30
0.0
 10
576.486082
 20
639.160249
 30
0.0
  0
SPLINE
  5
125
100
AcDbEntity
  8
Interface_placement_
 62
1
100
AcDbSpline
 70
8
 71
3
 72
8
 73
4
 74
0
 40
0
 40
0
 40
0
 40
0
 40
1
 40
1
 40
1
 40
1
 10
576.486082
 20
639.160249
 30
0.0
 10
575.634841
 20
638.668785
 30
0.0
 10
574.586070
 20
638.668785
 30
0.0
 10
573.734830
 20
639.160249
 30
0.0
  0
SPLINE
  5
126
100
AcDbEntity
  8
Interface_placement_
 62
1
100
AcDbSpline
 70
8
 71
3
 72
8
 73
4
 74
0
 40
0
 40
0
 40
0
 40
0
 40
1
 40
1
 40
1
 40
1
 10
573.734830
 20
639.160249
 30
0.0
 10
572.883589
 20
639.651712
 30
0.0
 10
572.359203
 20
640.559975
 30
0.0
 10
572.359203
 20
641.542903
 30
0.0
  0
SPLINE
  5
127
100
AcDbEntity
  8
Interface_placement_
 62
1
100
AcDbSpline
 70
8
 71
3
 72
8
 73
4
 74
0
 40
0
 40
0
 40
0
 40
0
 40
1
 40
1
 40
1
 40
1
 10
572.359203
 20
641.542903
 30
0.0
 10
572.359203
 20
643.062378
 30
0.0
 10
573.590981
 20
644.294155
 30
0.0
 10
575.110456
 20
644.294155
 30
0.0
  0
SPLINE
  5
128
100
AcDbEntity
  8
Interface_placement_
 62
1
100
AcDbSpline
 70
8
 71
3
 72
8
 73
4
 74
0
 40
0
 40
0
 40
0
 40
0
 40
1
 40
1
 40
1
 40
1
 10
575.110456
 20
644.294155
 30
0.0
 10
576.629930
 20
644.294155
 30
0.0
 10
577.861708
 20
643.062378
 30
0.0
 10
577.861708
 20
641.542903
 30
0.0
  0
LWPOLYLINE
  5
129
100
AcDbEntity
  8
Interface_placement_
 62
1
100
AcDbPolyline
 90
1
 70
1
 10
595.324194
 20
633.113048
 30
0.0
  0
SPLINE
  5
12a
100
AcDbEntity
  8
Interface_placement_
 62
1
100
AcDbSpline
 70
8
 71
3
 72
8
 73
4
 74
0
 40
0
 40
0
 40
0
 40
0
 40
1
 40
1
 40
1
 40
1
 10
504.428980
 20
666.832584
 30
0.0
 10
504.428980
 20
665.849656
 30
0.0
 10
504.953366
 20
664.941393
 30
0.0
 10
505.804607
 20
664.449930
 30
0.0
  0
SPLINE
  5
12b
100
AcDbEntity
  8
Interface_placement_
 62
1
100
AcDbSpline
 70
8
 71
3
 72
8
 73
4
 74
0
 40
0
 40
0
 40
0
 40
0
 40
1
 40
1
 40
1
 40
1
 10
505.804607
 20
664.449930
 30
0.0
 10
506.655847
 20
663.958466
 30
0.0
 10
507.704618
 20
663.958466
 30
0.0
 10
508.555859
 20
664.449930
 30
0.0
  0
SPLINE
  5
12c
100
AcDbEntity
  8
Interface_placement_
 62
1
100
AcDbSpline
 70
8
 71
3
 72
8
 73
4
 74
0
 40
0
 40
0
 40
0
 40
0
 40
1
 40
1
 40
1
 40
1
 10
508.555859
 20
664.449930
 30
0.0
 10
509.407099
 20
664.941393
 30
0.0
 10
509.931485
 20
665.849656
 30
0.0
 10
509.931485
 20
666.832584
 30
0.0
  0
SPLINE
  5
12d
100
AcDbEntity
  8
Interface_placement_
 62
1
100
AcDbSpline
 70
8
 71
3
 72
8
 73
4
 74
0
 40
0
 40
0
 40
0
 40
0
 40
1
 40
1
 40
1
 40
1
 10
509.931485
 20
666.832584
 30
0.0
 10
509.931485
 20
667.815512
 30
0.0
 10
509.407099
 20
668.723775
 30
0.0
 10
508.555859
 20
669.215238
 30
0.0
  0
SPLINE
  5
12e
100
AcDbEntity
  8
Interface_placement_
 62
1
100
AcDbSpline
 70
8
 71
3
 72
8
 73
4
 74
0
 40
0
 40
0
 40
0
 40
0
 40
1
 40
1
 40
1
 40
1
 10
508.555859
 20
669.215238
 30
0.0
 10
507.704618
 20
669.706702
 30
0.0
 10
506.655847
 20
669.706702
 30
0.0
 10
505.804607
 20
669.215238
 30
0.0
  0
SPLINE
  5
12f
100
AcDbEntity
  8
Interface_placement_
 62
1
100
AcDbSpline
 70
8
 71
3
 72
8
 73
4
 74
0
 40
0
 40
0
 40
0
 40
0
 40
1
 40
1
 40
1
 40
1
 10
505.804607
 20
669.215238
 30
0.0
 10
504.953366
 20
668.723775
 30
0.0
 10
504.428980
 20
667.815512
 30
0.0
 10
504.428980
 20
666.832584
 30
0.0
  0
LWPOLYLINE
  5
130
100
AcDbEntity
  8
Interface_placement_
 62
1
100
AcDbPolyline
 90
1
 70
1
 10
577.861708
 20
641.542903
 30
0.0
  0
SPLINE
  5
131
100
AcDbEntity
  8
Interface_placement_
 62
1
100
AcDbSpline
 70
8
 71
3
 72
8
 73
4
 74
0
 40
0
 40
0
 40
0
 40
0
 40
1
 40
1
 40
1
 40
1
 10
504.428980
 20
649.972827
 30
0.0
 10
504.428980
 20
648.989899
 30
0.0
 10
504.953366
 20
648.081636
 30
0.0
 10
505.804607
 20
647.590173
 30
0.0
  0
SPLINE
  5
132
100
AcDbEntity
  8
Interface_placement_
 62
1
100
AcDbSpline
 70
8
 71
3
 72
8
 73
4
 74
0
 40
0
 40
0
 40
0
 40
0
 40
1
 40
1
 40
1
 40
1
 10
505.804607
 20
647.590173
 30
0.0
 10
506.655847
 20
647.098709
 30
0.0
 10
507.704618
 20
647.098709
 30
0.0
 10
508.555859
 20
647.590173
 30
0.0
  0
SPLINE
  5
133
100
AcDbEntity
  8
Interface_placement_
 62
1
100
AcDbSpline
 70
8
 71
3
 72
8
 73
4
 74
0
 40
0
 40
0
 40
0
 40
0
 40
1
 40
1
 40
1
 40
1
 10
508.555859
 20
647.590173
 30
0.0
 10
509.407099
 20
648.081636
 30
0.0
 10
509.931485
 20
648.989899
 30
0.0
 10
509.931485
 20
649.972827
 30
0.0
  0
SPLINE
  5
134
100
AcDbEntity
  8
Interface_placement_
 62
1
100
AcDbSpline
 70
8
 71
3
 72
8
 73
4
 74
0
 40
0
 40
0
 40
0
 40
0
 40
1
 40
1
 40
1
 40
1
 10
509.931485
 20
649.972827
 30
0.0
 10
509.931485
 20
650.955755
 30
0.0
 10
509.407099
 20
651.864018
 30
0.0
 10
508.555859
 20
652.355481
 30
0.0
  0
SPLINE
  5
135
100
AcDbEntity
  8
Interface_placement_
 62
1
100
AcDbSpline
 70
8
 71
3
 72
8
 73
4
 74
0
 40
0
 40
0
 40
0
 40
0
 40
1
 40
1
 40
1
 40
1
 10
508.555859
 20
652.355481
 30
0.0
 10
507.704618
 20
652.846945
 30
0.0
 10
506.655847
 20
652.846945
 30
0.0
 10
505.804607
 20
652.355481
 30
0.0
  0
SPLINE
  5
136
100
AcDbEntity
  8
Interface_placement_
 62
1
100
AcDbSpline
 70
8
 71
3
 72
8
 73
4
 74
0
 40
0
 40
0
 40
0
 40
0
 40
1
 40
1
 40
1
 40
1
 10
505.804607
 20
652.355481
 30
0.0
 10
504.953366
 20
651.864018
 30
0.0
 10
504.428980
 20
650.955755
 30
0.0
 10
504.428980
 20
649.972827
 30
0.0
  0
LWPOLYLINE
  5
137
100
AcDbEntity
  8
Interface_placement_
 62
1
100
AcDbPolyline
 90
1
 70
1
 10
504.428980
 20
666.832584
 30
0.0
  0
SPLINE
  5
138
100
AcDbEntity
  8
Interface_placement_
 62
1
100
AcDbSpline
 70
8
 71
3
 72
8
 73
4
 74
0
 40
0
 40
0
 40
0
 40
0
 40
1
 40
1
 40
1
 40
1
 10
504.428980
 20
633.113048
 30
0.0
 10
504.428980
 20
632.130120
 30
0.0
 10
504.953366
 20
631.221857
 30
0.0
 10
505.804607
 20
630.730394
 30
0.0
  0
SPLINE
  5
139
100
AcDbEntity
  8
Interface_placement_
 62
1
100
AcDbSpline
 70
8
 71
3
 72
8
 73
4
 74
0
 40
0
 40
0
 40
0
 40
0
 40
1
 40
1
 40
1
 40
1
 10
505.804607
 20
630.730394
 30
0.0
 10
506.655847
 20
630.238930
 30
0.0
 10
507.704618
 20
630.238930
 30
0.0
 10
508.555859
 20
630.730394
 30
0.0
  0
SPLINE
  5
13a
100
AcDbEntity
  8
Interface_placement_
 62
1
100
AcDbSpline
 70
8
 71
3
 72
8
 73
4
 74
0
 40
0
 40
0
 40
0
 40
0
 40
1
 40
1
 40
1
 40
1
 10
508.555859
 20
630.730394
 30
0.0
 10
509.407099
 20
631.221857
 30
0.0
 10
509.931485
 20
632.130120
 30
0.0
 10
509.931485
 20
633.113048
 30
0.0
  0
SPLINE
  5
13b
100
AcDbEntity
  8
Interface_placement_
 62
1
100
AcDbSpline
 70
8
 71
3
 72
8
 73
4
 74
0
 40
0
 40
0
 40
0
 40
0
 40
1
 40
1
 40
1
 40
1
 10
509.931485
 20
633.113048
 30
0.0
 10
509.931485
 20
634.095976
 30
0.0
 10
509.407099
 20
635.004239
 30
0.0
 10
508.555859
 20
635.495702
 30
0.0
  0
SPLINE
  5
13c
100
AcDbEntity
  8
Interface_placement_
 62
1
100
AcDbSpline
 70
8
 71
3
 72
8
 73
4
 74
0
 40
0
 40
0
 40
0
 40
0
 40
1
 40
1
 40
1
 40
1
 10
508.555859
 20
635.495702
 30
0.0
 10
507.704618
 20
635.987166
 30
0.0
 10
506.655847
 20
635.987166
 30
0.0
 10
505.804607
 20
635.495702
 30
0.0
  0
SPLINE
  5
13d
100
AcDbEntity
  8
Interface_placement_
 62
1
100
AcDbSpline
 70
8
 71
3
 72
8
 73
4
 74
0
 40
0
 40
0
 40
0
 40
0
 40
1
 40
1
 40
1
 40
1
 10
505.804607
 20
635.495702
 30
0.0
 10
504.953366
 20
635.004239
 30
0.0
 10
504.428980
 20
634.095976
 30
0.0
 10
504.428980
 20
633.113048
 30
0.0
  0
LWPOLYLINE
  5
13e
100
AcDbEntity
  8
Interface_placement_
 62
1
100
AcDbPolyline
 90
1
 70
1
 10
504.428980
 20
649.972827
 30
0.0
  0
SPLINE
  5
13f
100
AcDbEntity
  8
Interface_placement_
 62
1
100
AcDbSpline
 70
8
 71
3
 72
8
 73
4
 74
0
 40
0
 40
0
 40
0
 40
0
 40
1
 40
1
 40
1
 40
1
 10
521.891464
 20
641.542903
 30
0.0
 10
521.891464
 20
640.559975
 30
0.0
 10
522.415850
 20
639.651712
 30
0.0
 10
523.267091
 20
639.160249
 30
0.0
  0
SPLINE
  5
140
100
AcDbEntity
  8
Interface_placement_
 62
1
100
AcDbSpline
 70
8
 71
3
 72
8
 73
4
 74
0
 40
0
 40
0
 40
0
 40
0
 40
1
 40
1
 40
1
 40
1
 10
523.267091
 20
639.160249
 30
0.0
 10
524.118331
 20
638.668785
 30
0.0
 10
525.167102
 20
638.668785
 30
0.0
 10
526.018343
 20
639.160249
 30
0.0
  0
SPLINE
  5
141
100
AcDbEntity
  8
Interface_placement_
 62
1
100
AcDbSpline
 70
8
 71
3
 72
8
 73
4
 74
0
 40
0
 40
0
 40
0
 40
0
 40
1
 40
1
 40
1
 40
1
 10
526.018343
 20
639.160249
 30
0.0
 10
526.869583
 20
639.651712
 30
0.0
 10
527.393969
 20
640.559975
 30
0.0
 10
527.393969
 20
641.542903
 30
0.0
  0
SPLINE
  5
142
100
AcDbEntity
  8
Interface_placement_
 62
1
100
AcDbSpline
 70
8
 71
3
 72
8
 73
4
 74
0
 40
0
 40
0
 40
0
 40
0
 40
1
 40
1
 40
1
 40
1
 10
527.393969
 20
641.542903
 30
0.0
 10
527.393969
 20
642.525831
 30
0.0
 10
526.869583
 20
643.434094
 30
0.0
 10
526.018343
 20
643.925557
 30
0.0
  0
SPLINE
  5
143
100
AcDbEntity
  8
Interface_placement_
 62
1
100
AcDbSpline
 70
8
 71
3
 72
8
 73
4
 74
0
 40
0
 40
0
 40
0
 40
0
 40
1
 40
1
 40
1
 40
1
 10
526.018343
 20
643.925557
 30
0.0
 10
525.167102
 20
644.417021
 30
0.0
 10
524.118331
 20
644.417021
 30
0.0
 10
523.267091
 20
643.925557
 30
0.0
  0
SPLINE
  5
144
100
AcDbEntity
  8
Interface_placement_
 62
1
100
AcDbSpline
 70
8
 71
3
 72
8
 73
4
 74
0
 40
0
 40
0
 40
0
 40
0
 40
1
 40
1
 40
1
 40
1
 10
523.267091
 20
643.925557
 30
0.0
 10
522.415850
 20
643.434094
 30
0.0
 10
521.891464
 20
642.525831
 30
0.0
 10
521.891464
 20
641.542903
 30
0.0
  0
LWPOLYLINE
  5
145
100
AcDbEntity
  8
Interface_placement_
 62
1
100
AcDbPolyline
 90
1
 70
1
 10
504.428980
 20
633.113048
 30
0.0
  0
SPLINE
  5
146
100
AcDbEntity
  8
Interface_placement_
 62
1
100
AcDbSpline
 70
8
 71
3
 72
8
 73
4
 74
0
 40
0
 40
0
 40
0
 40
0
 40
1
 40
1
 40
1
 40
1
 10
153.344610
 20
143.715332
 30
0.0
 10
153.926510
 20
144.507506
 30
0.0
 10
154.886827
 20
144.929065
 30
0.0
 10
155.863820
 20
144.821212
 30
0.0
  0
SPLINE
  5
147
100
AcDbEntity
  8
Interface_placement_
 62
1
100
AcDbSpline
 70
8
 71
3
 72
8
 73
4
 74
0
 40
0
 40
0
 40
0
 40
0
 40
1
 40
1
 40
1
 40
1
 10
155.863820
 20
144.821212
 30
0.0
 10
156.840813
 20
144.713359
 30
0.0
 10
157.686052
 20
144.092479
 30
0.0
 10
158.081145
 20
143.192453
 30
0.0
  0
SPLINE
  5
148
100
AcDbEntity
  8
Interface_placement_
 62
1
100
AcDbSpline
 70
8
 71
3
 72
8
 73
4
 74
0
 40
0
 40
0
 40
0
 40
0
 40
1
 40
1
 40
1
 40
1
 10
158.081145
 20
143.192453
 30
0.0
 10
158.476238
 20
142.292426
 30
0.0
 10
158.361161
 20
141.249987
 30
0.0
 10
157.779261
 20
140.457813
 30
0.0
  0
SPLINE
  5
149
100
AcDbEntity
  8
Interface_placement_
 62
1
100
AcDbSpline
 70
8
 71
3
 72
8
 73
4
 74
0
 40
0
 40
0
 40
0
 40
0
 40
1
 40
1
 40
1
 40
1
 10
157.779261
 20
140.457813
 30
0.0
 10
157.197361
 20
139.665638
 30
0.0
 10
156.237044
 20
139.244079
 30
0.0
 10
155.260051
 20
139.351932
 30
0.0
  0
SPLINE
  5
14a
100
AcDbEntity
  8
Interface_placement_
 62
1
100
AcDbSpline
 70
8
 71
3
 72
8
 73
4
 74
0
 40
0
 40
0
 40
0
 40
0
 40
1
 40
1
 40
1
 40
1
 10
155.260051
 20
139.351932
 30
0.0
 10
154.283058
 20
139.459785
 30
0.0
 10
153.437819
 20
140.080665
 30
0.0
 10
153.042726
 20
140.980692
 30
0.0
  0
SPLINE
  5
14b
100
AcDbEntity
  8
Interface_placement_
 62
1
100
AcDbSpline
 70
8
 71
3
 72
8
 73
4
 74
0
 40
0
 40
0
 40
0
 40
0
 40
1
 40
1
 40
1
 40
1
 10
153.042726
 20
140.980692
 30
0.0
 10
152.647633
 20
141.880719
 30
0.0
 10
152.762710
 20
142.923157
 30
0.0
 10
153.344610
 20
143.715332
 30
0.0
  0
LWPOLYLINE
  5
14c
100
AcDbEntity
  8
Interface_placement_
 62
1
100
AcDbPolyline
 90
1
 70
1
 10
521.891464
 20
641.542903
 30
0.0
  0
SPLINE
  5
14d
100
AcDbEntity
  8
Interface_placement_
 62
1
100
AcDbSpline
 70
8
 71
3
 72
8
 73
4
 74
0
 40
0
 40
0
 40
0
 40
0
 40
1
 40
1
 40
1
 40
1
 10
163.325697
 20
157.303168
 30
0.0
 10
163.907597
 20
158.095343
 30
0.0
 10
164.867914
 20
158.516902
 30
0.0
 10
165.844907
 20
158.409049
 30
0.0
  0
SPLINE
  5
14e
100
AcDbEntity
  8
Interface_placement_
 62
1
100
AcDbSpline
 70
8
 71
3
 72
8
 73
4
 74
0
 40
0
 40
0
 40
0
 40
0
 40
1
 40
1
 40
1
 40
1
 10
165.844907
 20
158.409049
 30
0.0
 10
166.821899
 20
158.301196
 30
0.0
 10
167.667139
 20
157.680316
 30
0.0
 10
168.062232
 20
156.780289
 30
0.0
  0
SPLINE
  5
14f
100
AcDbEntity
  8
Interface_placement_
 62
1
100
AcDbSpline
 70
8
 71
3
 72
8
 73
4
 74
0
 40
0
 40
0
 40
0
 40
0
 40
1
 40
1
 40
1
 40
1
 10
168.062232
 20
156.780289
 30
0.0
 10
168.457325
 20
155.880262
 30
0.0
 10
168.342248
 20
154.837824
 30
0.0
 10
167.760348
 20
154.045649
 30
0.0
  0
SPLINE
  5
150
100
AcDbEntity
  8
Interface_placement_
 62
1
100
AcDbSpline
 70
8
 71
3
 72
8
 73
4
 74
0
 40
0
 40
0
 40
0
 40
0
 40
1
 40
1
 40
1
 40
1
 10
167.760348
 20
154.045649
 30
0.0
 10
167.178448
 20
153.253475
 30
0.0
 10
166.218131
 20
152.831916
 30
0.0
 10
165.241138
 20
152.939769
 30
0.0
  0
SPLINE
  5
151
100
AcDbEntity
  8
Interface_placement_
 62
1
100
AcDbSpline
 70
8
 71
3
 72
8
 73
4
 74
0
 40
0
 40
0
 40
0
 40
0
 40
1
 40
1
 40
1
 40
1
 10
165.241138
 20
152.939769
 30
0.0
 10
164.264145
 20
153.047622
 30
0.0
 10
163.418906
 20
153.668501
 30
0.0
 10
163.023813
 20
154.568528
 30
0.0
  0
SPLINE
  5
152
100
AcDbEntity
  8
Interface_placement_
 62
1
100
AcDbSpline
 70
8
 71
3
 72
8
 73
4
 74
0
 40
0
 40
0
 40
0
 40
0
 40
1
 40
1
 40
1
 40
1
 10
163.023813
 20
154.568528
 30
0.0
 10
162.628719
 20
155.468555
 30
0.0
 10
162.743797
 20
156.510994
 30
0.0
 10
163.325697
 20
157.303168
 30
0.0
  0
LWPOLYLINE
  5
153
100
AcDbEntity
  8
Interface_placement_
 62
1
100
AcDbPolyline
 90
1
 70
1
 10
153.344610
 20
143.715332
 30
0.0
  0
SPLINE
  5
154
100
AcDbEntity
  8
Interface_placement_
 62
1
100
AcDbSpline
 70
8
 71
3
 72
8
 73
4
 74
0
 40
0
 40
0
 40
0
 40
0
 40
1
 40
1
 40
1
 40
1
 10
173.306797
 20
170.891023
 30
0.0
 10
173.888696
 20
171.683197
 30
0.0
 10
174.849014
 20
172.104756
 30
0.0
 10
175.826007
 20
171.996903
 30
0.0
  0
SPLINE
  5
155
100
AcDbEntity
  8
Interface_placement_
 62
1
100
AcDbSpline
 70
8
 71
3
 72
8
 73
4
 74
0
 40
0
 40
0
 40
0
 40
0
 40
1
 40
1
 40
1
 40
1
 10
175.826007
 20
171.996903
 30
0.0
 10
176.802999
 20
171.889051
 30
0.0
 10
177.648239
 20
171.268171
 30
0.0
 10
178.043332
 20
170.368144
 30
0.0
  0
SPLINE
  5
156
100
AcDbEntity
  8
Interface_placement_
 62
1
100
AcDbSpline
 70
8
 71
3
 72
8
 73
4
 74
0
 40
0
 40
0
 40
0
 40
0
 40
1
 40
1
 40
1
 40
1
 10
178.043332
 20
170.368144
 30
0.0
 10
178.438425
 20
169.468117
 30
0.0
 10
178.323347
 20
168.425678
 30
0.0
 10
177.741448
 20
167.633504
 30
0.0
  0
SPLINE
  5
157
100
AcDbEntity
  8
Interface_placement_
 62
1
100
AcDbSpline
 70
8
 71
3
 72
8
 73
4
 74
0
 40
0
 40
0
 40
0
 40
0
 40
1
 40
1
 40
1
 40
1
 10
177.741448
 20
167.633504
 30
0.0
 10
177.159548
 20
166.841330
 30
0.0
 10
176.199231
 20
166.419771
 30
0.0
 10
175.222238
 20
166.527624
 30
0.0
  0
SPLINE
  5
158
100
AcDbEntity
  8
Interface_placement_
 62
1
100
AcDbSpline
 70
8
 71
3
 72
8
 73
4
 74
0
 40
0
 40
0
 40
0
 40
0
 40
1
 40
1
 40
1
 40
1
 10
175.222238
 20
166.527624
 30
0.0
 10
174.245245
 20
166.635476
 30
0.0
 10
173.400005
 20
167.256356
 30
0.0
 10
173.004912
 20
168.156383
 30
0.0
  0
SPLINE
  5
159
100
AcDbEntity
  8
Interface_placement_
 62
1
100
AcDbSpline
 70
8
 71
3
 72
8
 73
4
 74
0
 40
0
 40
0
 40
0
 40
0
 40
1
 40
1
 40
1
 40
1
 10
173.004912
 20
168.156383
 30
0.0
 10
172.609819
 20
169.056410
 30
0.0
 10
172.724897
 20
170.098849
 30
0.0
 10
173.306797
 20
170.891023
 30
0.0
  0
LWPOLYLINE
  5
15a
100
AcDbEntity
  8
Interface_placement_
 62
1
100
AcDbPolyline
 90
1
 70
1
 10
163.325697
 20
157.303168
 30
0.0
  0
SPLINE
  5
15b
100
AcDbEntity
  8
Interface_placement_
 62
1
100
AcDbSpline
 70
8
 71
3
 72
8
 73
4
 74
0
 40
0
 40
0
 40
0
 40
0
 40
1
 40
1
 40
1
 40
1
 10
182.389863
 20
153.759217
 30
0.0
 10
182.971763
 20
154.551391
 30
0.0
 10
183.932080
 20
154.972950
 30
0.0
 10
184.909073
 20
154.865098
 30
0.0
  0
SPLINE
  5
15c
100
AcDbEntity
  8
Interface_placement_
 62
1
100
AcDbSpline
 70
8
 71
3
 72
8
 73
4
 74
0
 40
0
 40
0
 40
0
 40
0
 40
1
 40
1
 40
1
 40
1
 10
184.909073
 20
154.865098
 30
0.0
 10
185.886066
 20
154.757245
 30
0.0
 10
186.731306
 20
154.136365
 30
0.0
 10
187.126399
 20
153.236338
 30
0.0
  0
SPLINE
  5
15d
100
AcDbEntity
  8
Interface_placement_
 62
1
100
AcDbSpline
 70
8
 71
3
 72
8
 73
4
 74
0
 40
0
 40
0
 40
0
 40
0
 40
1
 40
1
 40
1
 40
1
 10
187.126399
 20
153.236338
 30
0.0
 10
187.521492
 20
152.336311
 30
0.0
 10
187.406414
 20
151.293872
 30
0.0
 10
186.824514
 20
150.501698
 30
0.0
  0
SPLINE
  5
15e
100
AcDbEntity
  8
Interface_placement_
 62
1
100
AcDbSpline
 70
8
 71
3
 72
8
 73
4
 74
0
 40
0
 40
0
 40
0
 40
0
 40
1
 40
1
 40
1
 40
1
 10
186.824514
 20
150.501698
 30
0.0
 10
185.924975
 20
149.277103
 30
0.0
 10
184.203024
 20
149.013593
 30
0.0
 10
182.978429
 20
149.913132
 30
0.0
  0
SPLINE
  5
15f
100
AcDbEntity
  8
Interface_placement_
 62
1
100
AcDbSpline
 70
8
 71
3
 72
8
 73
4
 74
0
 40
0
 40
0
 40
0
 40
0
 40
1
 40
1
 40
1
 40
1
 10
182.978429
 20
149.913132
 30
0.0
 10
181.753834
 20
150.812671
 30
0.0
 10
181.490324
 20
152.534622
 30
0.0
 10
182.389863
 20
153.759217
 30
0.0
  0
LWPOLYLINE
  5
160
100
AcDbEntity
  8
Interface_placement_
 62
1
100
AcDbPolyline
 90
1
 70
1
 10
173.306797
 20
170.891023
 30
0.0
  0
SPLINE
  5
161
100
AcDbEntity
  8
Interface_placement_
 62
1
100
AcDbSpline
 70
8
 71
3
 72
8
 73
4
 74
0
 40
0
 40
0
 40
0
 40
0
 40
1
 40
1
 40
1
 40
1
 10
226.600075
 20
89.904768
 30
0.0
 10
227.181975
 20
90.696942
 30
0.0
 10
227.297052
 20
91.739381
 30
0.0
 10
226.901959
 20
92.639408
 30
0.0
  0
SPLINE
  5
162
100
AcDbEntity
  8
Interface_placement_
 62
1
100
AcDbSpline
 70
8
 71
3
 72
8
 73
4
 74
0
 40
0
 40
0
 40
0
 40
0
 40
1
 40
1
 40
1
 40
1
 10
226.901959
 20
92.639408
 30
0.0
 10
226.506866
 20
93.539435
 30
0.0
 10
225.661627
 20
94.160315
 30
0.0
 10
224.684634
 20
94.268167
 30
0.0
  0
SPLINE
  5
163
100
AcDbEntity
  8
Interface_placement_
 62
1
100
AcDbSpline
 70
8
 71
3
 72
8
 73
4
 74
0
 40
0
 40
0
 40
0
 40
0
 40
1
 40
1
 40
1
 40
1
 10
224.684634
 20
94.268167
 30
0.0
 10
223.707641
 20
94.376020
 30
0.0
 10
222.747324
 20
93.954461
 30
0.0
 10
222.165424
 20
93.162287
 30
0.0
  0
SPLINE
  5
164
100
AcDbEntity
  8
Interface_placement_
 62
1
100
AcDbSpline
 70
8
 71
3
 72
8
 73
4
 74
0
 40
0
 40
0
 40
0
 40
0
 40
1
 40
1
 40
1
 40
1
 10
222.165424
 20
93.162287
 30
0.0
 10
221.583524
 20
92.370113
 30
0.0
 10
221.468447
 20
91.327674
 30
0.0
 10
221.863540
 20
90.427647
 30
0.0
  0
SPLINE
  5
165
100
AcDbEntity
  8
Interface_placement_
 62
1
100
AcDbSpline
 70
8
 71
3
 72
8
 73
4
 74
0
 40
0
 40
0
 40
0
 40
0
 40
1
 40
1
 40
1
 40
1
 10
221.863540
 20
90.427647
 30
0.0
 10
222.258633
 20
89.527620
 30
0.0
 10
223.103872
 20
88.906740
 30
0.0
 10
224.080865
 20
88.798888
 30
0.0
  0
SPLINE
  5
166
100
AcDbEntity
  8
Interface_placement_
 62
1
100
AcDbSpline
 70
8
 71
3
 72
8
 73
4
 74
0
 40
0
 40
0
 40
0
 40
0
 40
1
 40
1
 40
1
 40
1
 10
224.080865
 20
88.798888
 30
0.0
 10
225.057858
 20
88.691035
 30
0.0
 10
226.018175
 20
89.112594
 30
0.0
 10
226.600075
 20
89.904768
 30
0.0
  0
LWPOLYLINE
  5
167
100
AcDbEntity
  8
Interface_placement_
 62
1
100
AcDbPolyline
 90
1
 70
1
 10
182.389863
 20
153.759217
 30
0.0
  0
SPLINE
  5
168
100
AcDbEntity
  8
Interface_placement_
 62
1
100
AcDbSpline
 70
8
 71
3
 72
8
 73
4
 74
0
 40
0
 40
0
 40
0
 40
0
 40
1
 40
1
 40
1
 40
1
 10
236.581162
 20
103.492605
 30
0.0
 10
237.163062
 20
104.284779
 30
0.0
 10
237.278139
 20
105.327218
 30
0.0
 10
236.883046
 20
106.227245
 30
0.0
  0
SPLINE
  5
169
100
AcDbEntity
  8
Interface_placement_
 62
1
100
AcDbSpline
 70
8
 71
3
 72
8
 73
4
 74
0
 40
0
 40
0
 40
0
 40
0
 40
1
 40
1
 40
1
 40
1
 10
236.883046
 20
106.227245
 30
0.0
 10
236.487953
 20
107.127272
 30
0.0
 10
235.642713
 20
107.748151
 30
0.0
 10
234.665721
 20
107.856004
 30
0.0
  0
SPLINE
  5
16a
100
AcDbEntity
  8
Interface_placement_
 62
1
100
AcDbSpline
 70
8
 71
3
 72
8
 73
4
 74
0
 40
0
 40
0
 40
0
 40
0
 40
1
 40
1
 40
1
 40
1
 10
234.665721
 20
107.856004
 30
0.0
 10
233.688728
 20
107.963857
 30
0.0
 10
232.728411
 20
107.542298
 30
0.0
 10
232.146511
 20
106.750124
 30
0.0
  0
SPLINE
  5
16b
100
AcDbEntity
  8
Interface_placement_
 62
1
100
AcDbSpline
 70
8
 71
3
 72
8
 73
4
 74
0
 40
0
 40
0
 40
0
 40
0
 40
1
 40
1
 40
1
 40
1
 10
232.146511
 20
106.750124
 30
0.0
 10
231.564611
 20
105.957950
 30
0.0
 10
231.449533
 20
104.915511
 30
0.0
 10
231.844626
 20
104.015484
 30
0.0
  0
SPLINE
  5
16c
100
AcDbEntity
  8
Interface_placement_
 62
1
100
AcDbSpline
 70
8
 71
3
 72
8
 73
4
 74
0
 40
0
 40
0
 40
0
 40
0
 40
1
 40
1
 40
1
 40
1
 10
231.844626
 20
104.015484
 30
0.0
 10
232.239720
 20
103.115457
 30
0.0
 10
233.084959
 20
102.494577
 30
0.0
 10
234.061952
 20
102.386724
 30
0.0
  0
SPLINE
  5
16d
100
AcDbEntity
  8
Interface_placement_
 62
1
100
AcDbSpline
 70
8
 71
3
 72
8
 73
4
 74
0
 40
0
 40
0
 40
0
 40
0
 40
1
 40
1
 40
1
 40
1
 10
234.061952
 20
102.386724
 30
0.0
 10
235.038945
 20
102.278872
 30
0.0
 10
235.999262
 20
102.700431
 30
0.0
 10
236.581162
 20
103.492605
 30
0.0
  0
LWPOLYLINE
  5
16e
100
AcDbEntity
  8
Interface_placement_
 62
1
100
AcDbPolyline
 90
1
 70
1
 10
226.600075
 20
89.904768
 30
0.0
  0
SPLINE
  5
16f
100
AcDbEntity
  8
Interface_placement_
 62
1
100
AcDbSpline
 70
8
 71
3
 72
8
 73
4
 74
0
 40
0
 40
0
 40
0
 40
0
 40
1
 40
1
 40
1
 40
1
 10
246.562262
 20
117.080459
 30
0.0
 10
247.144161
 20
117.872634
 30
0.0
 10
247.259239
 20
118.915072
 30
0.0
 10
246.864146
 20
119.815099
 30
0.0
  0
SPLINE
  5
170
100
AcDbEntity
  8
Interface_placement_
 62
1
100
AcDbSpline
 70
8
 71
3
 72
8
 73
4
 74
0
 40
0
 40
0
 40
0
 40
0
 40
1
 40
1
 40
1
 40
1
 10
246.864146
 20
119.815099
 30
0.0
 10
246.469053
 20
120.715126
 30
0.0
 10
245.623813
 20
121.336006
 30
0.0
 10
244.646821
 20
121.443859
 30
0.0
  0
SPLINE
  5
171
100
AcDbEntity
  8
Interface_placement_
 62
1
100
AcDbSpline
 70
8
 71
3
 72
8
 73
4
 74
0
 40
0
 40
0
 40
0
 40
0
 40
1
 40
1
 40
1
 40
1
 10
244.646821
 20
121.443859
 30
0.0
 10
243.669828
 20
121.551712
 30
0.0
 10
242.709510
 20
121.130153
 30
0.0
 10
242.127611
 20
120.337978
 30
0.0
  0
SPLINE
  5
172
100
AcDbEntity
  8
Interface_placement_
 62
1
100
AcDbSpline
 70
8
 71
3
 72
8
 73
4
 74
0
 40
0
 40
0
 40
0
 40
0
 40
1
 40
1
 40
1
 40
1
 10
242.127611
 20
120.337978
 30
0.0
 10
241.545711
 20
119.545804
 30
0.0
 10
241.430633
 20
118.503366
 30
0.0
 10
241.825726
 20
117.603339
 30
0.0
  0
SPLINE
  5
173
100
AcDbEntity
  8
Interface_placement_
 62
1
100
AcDbSpline
 70
8
 71
3
 72
8
 73
4
 74
0
 40
0
 40
0
 40
0
 40
0
 40
1
 40
1
 40
1
 40
1
 10
241.825726
 20
117.603339
 30
0.0
 10
242.220819
 20
116.703312
 30
0.0
 10
243.066059
 20
116.082432
 30
0.0
 10
244.043052
 20
115.974579
 30
0.0
  0
SPLINE
  5
174
100
AcDbEntity
  8
Interface_placement_
 62
1
100
AcDbSpline
 70
8
 71
3
 72
8
 73
4
 74
0
 40
0
 40
0
 40
0
 40
0
 40
1
 40
1
 40
1
 40
1
 10
244.043052
 20
115.974579
 30
0.0
 10
245.020045
 20
115.866726
 30
0.0
 10
245.980362
 20
116.288285
 30
0.0
 10
246.562262
 20
117.080459
 30
0.0
  0
LWPOLYLINE
  5
175
100
AcDbEntity
  8
Interface_placement_
 62
1
100
AcDbPolyline
 90
1
 70
1
 10
236.581162
 20
103.492605
 30
0.0
  0
SPLINE
  5
176
100
AcDbEntity
  8
Interface_placement_
 62
1
100
AcDbSpline
 70
8
 71
3
 72
8
 73
4
 74
0
 40
0
 40
0
 40
0
 40
0
 40
1
 40
1
 40
1
 40
1
 10
227.498138
 20
120.624465
 30
0.0
 10
228.080037
 20
121.416639
 30
0.0
 10
228.195115
 20
122.459078
 30
0.0
 10
227.800022
 20
123.359105
 30
0.0
  0
SPLINE
  5
177
100
AcDbEntity
  8
Interface_placement_
 62
1
100
AcDbSpline
 70
8
 71
3
 72
8
 73
4
 74
0
 40
0
 40
0
 40
0
 40
0
 40
1
 40
1
 40
1
 40
1
 10
227.800022
 20
123.359105
 30
0.0
 10
227.404929
 20
124.259132
 30
0.0
 10
226.559689
 20
124.880012
 30
0.0
 10
225.582697
 20
124.987865
 30
0.0
  0
SPLINE
  5
178
100
AcDbEntity
  8
Interface_placement_
 62
1
100
AcDbSpline
 70
8
 71
3
 72
8
 73
4
 74
0
 40
0
 40
0
 40
0
 40
0
 40
1
 40
1
 40
1
 40
1
 10
225.582697
 20
124.987865
 30
0.0
 10
224.605704
 20
125.095718
 30
0.0
 10
223.645386
 20
124.674158
 30
0.0
 10
223.063487
 20
123.881984
 30
0.0
  0
SPLINE
  5
179
100
AcDbEntity
  8
Interface_placement_
 62
1
100
AcDbSpline
 70
8
 71
3
 72
8
 73
4
 74
0
 40
0
 40
0
 40
0
 40
0
 40
1
 40
1
 40
1
 40
1
 10
223.063487
 20
123.881984
 30
0.0
 10
222.481587
 20
123.089810
 30
0.0
 10
222.366509
 20
122.047371
 30
0.0
 10
222.761602
 20
121.147344
 30
0.0
  0
SPLINE
  5
17a
100
AcDbEntity
  8
Interface_placement_
 62
1
100
AcDbSpline
 70
8
 71
3
 72
8
 73
4
 74
0
 40
0
 40
0
 40
0
 40
0
 40
1
 40
1
 40
1
 40
1
 10
222.761602
 20
121.147344
 30
0.0
 10
223.156695
 20
120.247317
 30
0.0
 10
224.001935
 20
119.626438
 30
0.0
 10
224.978928
 20
119.518585
 30
0.0
  0
SPLINE
  5
17b
100
AcDbEntity
  8
Interface_placement_
 62
1
100
AcDbSpline
 70
8
 71
3
 72
8
 73
4
 74
0
 40
0
 40
0
 40
0
 40
0
 40
1
 40
1
 40
1
 40
1
 10
224.978928
 20
119.518585
 30
0.0
 10
225.955921
 20
119.410732
 30
0.0
 10
226.916238
 20
119.832291
 30
0.0
 10
227.498138
 20
120.624465
 30
0.0
  0
LWPOLYLINE
  5
17c
100
AcDbEntity
  8
Interface_placement_
 62
1
100
AcDbPolyline
 90
1
 70
1
 10
246.562262
 20
117.080459
 30
0.0
  0
SPLINE
  5
17d
100
AcDbEntity
  8
Interface_placement_
 62
1
100
AcDbSpline
 70
8
 71
3
 72
8
 73
4
 74
0
 40
0
 40
0
 40
0
 40
0
 40
1
 40
1
 40
1
 40
1
 10
948.252813
 20
163.594249
 30
0.0
 10
947.705014
 20
164.410376
 30
0.0
 10
946.763428
 20
164.872262
 30
0.0
 10
945.782742
 20
164.805917
 30
0.0
  0
SPLINE
  5
17e
100
AcDbEntity
  8
Interface_placement_
 62
1
100
AcDbSpline
 70
8
 71
3
 72
8
 73
4
 74
0
 40
0
 40
0
 40
0
 40
0
 40
1
 40
1
 40
1
 40
1
 10
945.782742
 20
164.805917
 30
0.0
 10
944.802056
 20
164.739573
 30
0.0
 10
943.931258
 20
164.155079
 30
0.0
 10
943.498371
 20
163.272607
 30
0.0
  0
SPLINE
  5
17f
100
AcDbEntity
  8
Interface_placement_
 62
1
100
AcDbSpline
 70
8
 71
3
 72
8
 73
4
 74
0
 40
0
 40
0
 40
0
 40
0
 40
1
 40
1
 40
1
 40
1
 10
943.498371
 20
163.272607
 30
0.0
 10
943.065484
 20
162.390136
 30
0.0
 10
943.136272
 20
161.343756
 30
0.0
 10
943.684071
 20
160.527629
 30
0.0
  0
SPLINE
  5
180
100
AcDbEntity
  8
Interface_placement_
 62
1
100
AcDbSpline
 70
8
 71
3
 72
8
 73
4
 74
0
 40
0
 40
0
 40
0
 40
0
 40
1
 40
1
 40
1
 40
1
 10
943.684071
 20
160.527629
 30
0.0
 10
944.231870
 20
159.711502
 30
0.0
 10
945.173456
 20
159.249617
 30
0.0
 10
946.154142
 20
159.315961
 30
0.0
  0
SPLINE
  5
181
100
AcDbEntity
  8
Interface_placement_
 62
1
100
AcDbSpline
 70
8
 71
3
 72
8
 73
4
 74
0
 40
0
 40
0
 40
0
 40
0
 40
1
 40
1
 40
1
 40
1
 10
946.154142
 20
159.315961
 30
0.0
 10
947.134828
 20
159.382305
 30
0.0
 10
948.005625
 20
159.966800
 30
0.0
 10
948.438513
 20
160.849271
 30
0.0
  0
SPLINE
  5
182
100
AcDbEntity
  8
Interface_placement_
 62
1
100
AcDbSpline
 70
8
 71
3
 72
8
 73
4
 74
0
 40
0
 40
0
 40
0
 40
0
 40
1
 40
1
 40
1
 40
1
 10
948.438513
 20
160.849271
 30
0.0
 10
948.871400
 20
161.731742
 30
0.0
 10
948.800612
 20
162.778122
 30
0.0
 10
948.252813
 20
163.594249
 30
0.0
  0
LWPOLYLINE
  5
183
100
AcDbEntity
  8
Interface_placement_
 62
1
100
AcDbPolyline
 90
1
 70
1
 10
227.498138
 20
120.624465
 30
0.0
  0
SPLINE
  5
184
100
AcDbEntity
  8
Interface_placement_
 62
1
100
AcDbSpline
 70
8
 71
3
 72
8
 73
4
 74
0
 40
0
 40
0
 40
0
 40
0
 40
1
 40
1
 40
1
 40
1
 10
938.856643
 20
177.592942
 30
0.0
 10
938.308844
 20
178.409069
 30
0.0
 10
937.367259
 20
178.870954
 30
0.0
 10
936.386572
 20
178.804610
 30
0.0
  0
SPLINE
  5
185
100
AcDbEntity
  8
Interface_placement_
 62
1
100
AcDbSpline
 70
8
 71
3
 72
8
 73
4
 74
0
 40
0
 40
0
 40
0
 40
0
 40
1
 40
1
 40
1
 40
1
 10
936.386572
 20
178.804610
 30
0.0
 10
935.405886
 20
178.738266
 30
0.0
 10
934.535089
 20
178.153771
 30
0.0
 10
934.102202
 20
177.271300
 30
0.0
  0
SPLINE
  5
186
100
AcDbEntity
  8
Interface_placement_
 62
1
100
AcDbSpline
 70
8
 71
3
 72
8
 73
4
 74
0
 40
0
 40
0
 40
0
 40
0
 40
1
 40
1
 40
1
 40
1
 10
934.102202
 20
177.271300
 30
0.0
 10
933.669314
 20
176.388829
 30
0.0
 10
933.740103
 20
175.342449
 30
0.0
 10
934.287902
 20
174.526322
 30
0.0
  0
SPLINE
  5
187
100
AcDbEntity
  8
Interface_placement_
 62
1
100
AcDbSpline
 70
8
 71
3
 72
8
 73
4
 74
0
 40
0
 40
0
 40
0
 40
0
 40
1
 40
1
 40
1
 40
1
 10
934.287902
 20
174.526322
 30
0.0
 10
934.835700
 20
173.710195
 30
0.0
 10
935.777286
 20
173.248310
 30
0.0
 10
936.757972
 20
173.314654
 30
0.0
  0
SPLINE
  5
188
100
AcDbEntity
  8
Interface_placement_
 62
1
100
AcDbSpline
 70
8
 71
3
 72
8
 73
4
 74
0
 40
0
 40
0
 40
0
 40
0
 40
1
 40
1
 40
1
 40
1
 10
936.757972
 20
173.314654
 30
0.0
 10
937.738659
 20
173.380998
 30
0.0
 10
938.609456
 20
173.965492
 30
0.0
 10
939.042343
 20
174.847964
 30
0.0
  0
SPLINE
  5
189
100
AcDbEntity
  8
Interface_placement_
 62
1
100
AcDbSpline
 70
8
 71
3
 72
8
 73
4
 74
0
 40
0
 40
0
 40
0
 40
0
 40
1
 40
1
 40
1
 40
1
 10
939.042343
 20
174.847964
 30
0.0
 10
939.475231
 20
175.730435
 30
0.0
 10
939.404442
 20
176.776815
 30
0.0
 10
938.856643
 20
177.592942
 30
0.0
  0
LWPOLYLINE
  5
18a
100
AcDbEntity
  8
Interface_placement_
 62
1
100
AcDbPolyline
 90
1
 70
1
 10
948.252813
 20
163.594249
 30
0.0
  0
SPLINE
  5
18b
100
AcDbEntity
  8
Interface_placement_
 62
1
100
AcDbSpline
 70
8
 71
3
 72
8
 73
4
 74
0
 40
0
 40
0
 40
0
 40
0
 40
1
 40
1
 40
1
 40
1
 10
929.460461
 20
191.591653
 30
0.0
 10
928.912663
 20
192.407780
 30
0.0
 10
927.971077
 20
192.869665
 30
0.0
 10
926.990391
 20
192.803321
 30
0.0
  0
SPLINE
  5
18c
100
AcDbEntity
  8
Interface_placement_
 62
1
100
AcDbSpline
 70
8
 71
3
 72
8
 73
4
 74
0
 40
0
 40
0
 40
0
 40
0
 40
1
 40
1
 40
1
 40
1
 10
926.990391
 20
192.803321
 30
0.0
 10
926.009704
 20
192.736977
 30
0.0
 10
925.138907
 20
192.152482
 30
0.0
 10
924.706020
 20
191.270011
 30
0.0
  0
SPLINE
  5
18d
100
AcDbEntity
  8
Interface_placement_
 62
1
100
AcDbSpline
 70
8
 71
3
 72
8
 73
4
 74
0
 40
0
 40
0
 40
0
 40
0
 40
1
 40
1
 40
1
 40
1
 10
924.706020
 20
191.270011
 30
0.0
 10
924.273132
 20
190.387540
 30
0.0
 10
924.343921
 20
189.341160
 30
0.0
 10
924.891720
 20
188.525033
 30
0.0
  0
SPLINE
  5
18e
100
AcDbEntity
  8
Interface_placement_
 62
1
100
AcDbSpline
 70
8
 71
3
 72
8
 73
4
 74
0
 40
0
 40
0
 40
0
 40
0
 40
1
 40
1
 40
1
 40
1
 10
924.891720
 20
188.525033
 30
0.0
 10
925.439519
 20
187.708906
 30
0.0
 10
926.381104
 20
187.247020
 30
0.0
 10
927.361791
 20
187.313365
 30
0.0
  0
SPLINE
  5
18f
100
AcDbEntity
  8
Interface_placement_
 62
1
100
AcDbSpline
 70
8
 71
3
 72
8
 73
4
 74
0
 40
0
 40
0
 40
0
 40
0
 40
1
 40
1
 40
1
 40
1
 10
927.361791
 20
187.313365
 30
0.0
 10
928.342477
 20
187.379709
 30
0.0
 10
929.213274
 20
187.964203
 30
0.0
 10
929.646161
 20
188.846675
 30
0.0
  0
SPLINE
  5
190
100
AcDbEntity
  8
Interface_placement_
 62
1
100
AcDbSpline
 70
8
 71
3
 72
8
 73
4
 74
0
 40
0
 40
0
 40
0
 40
0
 40
1
 40
1
 40
1
 40
1
 10
929.646161
 20
188.846675
 30
0.0
 10
930.079049
 20
189.729146
 30
0.0
 10
930.008260
 20
190.775526
 30
0.0
 10
929.460461
 20
191.591653
 30
0.0
  0
LWPOLYLINE
  5
191
100
AcDbEntity
  8
Interface_placement_
 62
1
100
AcDbPolyline
 90
1
 70
1
 10
938.856643
 20
177.592942
 30
0.0
  0
SPLINE
  5
192
100
AcDbEntity
  8
Interface_placement_
 62
1
100
AcDbSpline
 70
8
 71
3
 72
8
 73
4
 74
0
 40
0
 40
0
 40
0
 40
0
 40
1
 40
1
 40
1
 40
1
 10
919.659393
 20
174.860248
 30
0.0
 10
919.111594
 20
175.676375
 30
0.0
 10
918.170009
 20
176.138260
 30
0.0
 10
917.189322
 20
176.071916
 30
0.0
  0
SPLINE
  5
193
100
AcDbEntity
  8
Interface_placement_
 62
1
100
AcDbSpline
 70
8
 71
3
 72
8
 73
4
 74
0
 40
0
 40
0
 40
0
 40
0
 40
1
 40
1
 40
1
 40
1
 10
917.189322
 20
176.071916
 30
0.0
 10
916.208636
 20
176.005571
 30
0.0
 10
915.337839
 20
175.421077
 30
0.0
 10
914.904952
 20
174.538606
 30
0.0
  0
SPLINE
  5
194
100
AcDbEntity
  8
Interface_placement_
 62
1
100
AcDbSpline
 70
8
 71
3
 72
8
 73
4
 74
0
 40
0
 40
0
 40
0
 40
0
 40
1
 40
1
 40
1
 40
1
 10
914.904952
 20
174.538606
 30
0.0
 10
914.472064
 20
173.656134
 30
0.0
 10
914.542853
 20
172.609755
 30
0.0
 10
915.090652
 20
171.793628
 30
0.0
  0
SPLINE
  5
195
100
AcDbEntity
  8
Interface_placement_
 62
1
100
AcDbSpline
 70
8
 71
3
 72
8
 73
4
 74
0
 40
0
 40
0
 40
0
 40
0
 40
1
 40
1
 40
1
 40
1
 10
915.090652
 20
171.793628
 30
0.0
 10
915.937475
 20
170.532004
 30
0.0
 10
917.646709
 20
170.195743
 30
0.0
 10
918.908332
 20
171.042567
 30
0.0
  0
SPLINE
  5
196
100
AcDbEntity
  8
Interface_placement_
 62
1
100
AcDbSpline
 70
8
 71
3
 72
8
 73
4
 74
0
 40
0
 40
0
 40
0
 40
0
 40
1
 40
1
 40
1
 40
1
 10
918.908332
 20
171.042567
 30
0.0
 10
920.169955
 20
171.889391
 30
0.0
 10
920.506217
 20
173.598624
 30
0.0
 10
919.659393
 20
174.860248
 30
0.0
  0
LWPOLYLINE
  5
197
100
AcDbEntity
  8
Interface_placement_
 62
1
100
AcDbPolyline
 90
1
 70
1
 10
929.460461
 20
191.591653
 30
0.0
  0
SPLINE
  5
198
100
AcDbEntity
  8
Interface_placement_
 62
1
100
AcDbSpline
 70
8
 71
3
 72
8
 73
4
 74
0
 40
0
 40
0
 40
0
 40
0
 40
1
 40
1
 40
1
 40
1
 10
872.782320
 20
112.937123
 30
0.0
 10
872.234521
 20
113.753250
 30
0.0
 10
872.163733
 20
114.799630
 30
0.0
 10
872.596620
 20
115.682101
 30
0.0
  0
SPLINE
  5
199
100
AcDbEntity
  8
Interface_placement_
 62
1
100
AcDbSpline
 70
8
 71
3
 72
8
 73
4
 74
0
 40
0
 40
0
 40
0
 40
0
 40
1
 40
1
 40
1
 40
1
 10
872.596620
 20
115.682101
 30
0.0
 10
873.029508
 20
116.564573
 30
0.0
 10
873.900305
 20
117.149067
 30
0.0
 10
874.880991
 20
117.215411
 30
0.0
  0
SPLINE
  5
19a
100
AcDbEntity
  8
Interface_placement_
 62
1
100
AcDbSpline
 70
8
 71
3
 72
8
 73
4
 74
0
 40
0
 40
0
 40
0
 40
0
 40
1
 40
1
 40
1
 40
1
 10
874.880991
 20
117.215411
 30
0.0
 10
875.861677
 20
117.281756
 30
0.0
 10
876.803263
 20
116.819870
 30
0.0
 10
877.351062
 20
116.003743
 30
0.0
  0
SPLINE
  5
19b
100
AcDbEntity
  8
Interface_placement_
 62
1
100
AcDbSpline
 70
8
 71
3
 72
8
 73
4
 74
0
 40
0
 40
0
 40
0
 40
0
 40
1
 40
1
 40
1
 40
1
 10
877.351062
 20
116.003743
 30
0.0
 10
877.898861
 20
115.187616
 30
0.0
 10
877.969649
 20
114.141236
 30
0.0
 10
877.536762
 20
113.258765
 30
0.0
  0
SPLINE
  5
19c
100
AcDbEntity
  8
Interface_placement_
 62
1
100
AcDbSpline
 70
8
 71
3
 72
8
 73
4
 74
0
 40
0
 40
0
 40
0
 40
0
 40
1
 40
1
 40
1
 40
1
 10
877.536762
 20
113.258765
 30
0.0
 10
877.103875
 20
112.376294
 30
0.0
 10
876.233077
 20
111.791799
 30
0.0
 10
875.252391
 20
111.725455
 30
0.0
  0
SPLINE
  5
19d
100
AcDbEntity
  8
Interface_placement_
 62
1
100
AcDbSpline
 70
8
 71
3
 72
8
 73
4
 74
0
 40
0
 40
0
 40
0
 40
0
 40
1
 40
1
 40
1
 40
1
 10
875.252391
 20
111.725455
 30
0.0
 10
874.271705
 20
111.659111
 30
0.0
 10
873.330119
 20
112.120996
 30
0.0
 10
872.782320
 20
112.937123
 30
0.0
  0
LWPOLYLINE
  5
19e
100
AcDbEntity
  8
Interface_placement_
 62
1
100
AcDbPolyline
 90
1
 70
1
 10
919.659393
 20
174.860248
 30
0.0
  0
SPLINE
  5
19f
100
AcDbEntity
  8
Interface_placement_
 62
1
100
AcDbSpline
 70
8
 71
3
 72
8
 73
4
 74
0
 40
0
 40
0
 40
0
 40
0
 40
1
 40
1
 40
1
 40
1
 10
863.386151
 20
126.935816
 30
0.0
 10
862.838352
 20
127.751943
 30
0.0
 10
862.767564
 20
128.798323
 30
0.0
 10
863.200451
 20
129.680794
 30
0.0
  0
SPLINE
  5
1a0
100
AcDbEntity
  8
Interface_placement_
 62
1
100
AcDbSpline
 70
8
 71
3
 72
8
 73
4
 74
0
 40
0
 40
0
 40
0
 40
0
 40
1
 40
1
 40
1
 40
1
 10
863.200451
 20
129.680794
 30
0.0
 10
863.633338
 20
130.563265
 30
0.0
 10
864.504135
 20
131.147760
 30
0.0
 10
865.484822
 20
131.214104
 30
0.0
  0
SPLINE
  5
1a1
100
AcDbEntity
  8
Interface_placement_
 62
1
100
AcDbSpline
 70
8
 71
3
 72
8
 73
4
 74
0
 40
0
 40
0
 40
0
 40
0
 40
1
 40
1
 40
1
 40
1
 10
865.484822
 20
131.214104
 30
0.0
 10
866.465508
 20
131.280448
 30
0.0
 10
867.407094
 20
130.818563
 30
0.0
 10
867.954892
 20
130.002436
 30
0.0
  0
SPLINE
  5
1a2
100
AcDbEntity
  8
Interface_placement_
 62
1
100
AcDbSpline
 70
8
 71
3
 72
8
 73
4
 74
0
 40
0
 40
0
 40
0
 40
0
 40
1
 40
1
 40
1
 40
1
 10
867.954892
 20
130.002436
 30
0.0
 10
868.502691
 20
129.186309
 30
0.0
 10
868.573480
 20
128.139929
 30
0.0
 10
868.140592
 20
127.257458
 30
0.0
  0
SPLINE
  5
1a3
100
AcDbEntity
  8
Interface_placement_
 62
1
100
AcDbSpline
 70
8
 71
3
 72
8
 73
4
 74
0
 40
0
 40
0
 40
0
 40
0
 40
1
 40
1
 40
1
 40
1
 10
868.140592
 20
127.257458
 30
0.0
 10
867.707705
 20
126.374986
 30
0.0
 10
866.836908
 20
125.790492
 30
0.0
 10
865.856222
 20
125.724148
 30
0.0
  0
SPLINE
  5
1a4
100
AcDbEntity
  8
Interface_placement_
 62
1
100
AcDbSpline
 70
8
 71
3
 72
8
 73
4
 74
0
 40
0
 40
0
 40
0
 40
0
 40
1
 40
1
 40
1
 40
1
 10
865.856222
 20
125.724148
 30
0.0
 10
864.875535
 20
125.657803
 30
0.0
 10
863.933950
 20
126.119689
 30
0.0
 10
863.386151
 20
126.935816
 30
0.0
  0
LWPOLYLINE
  5
1a5
100
AcDbEntity
  8
Interface_placement_
 62
1
100
AcDbPolyline
 90
1
 70
1
 10
872.782320
 20
112.937123
 30
0.0
  0
SPLINE
  5
1a6
100
AcDbEntity
  8
Interface_placement_
 62
1
100
AcDbSpline
 70
8
 71
3
 72
8
 73
4
 74
0
 40
0
 40
0
 40
0
 40
0
 40
1
 40
1
 40
1
 40
1
 10
853.989969
 20
140.934527
 30
0.0
 10
853.442170
 20
141.750654
 30
0.0
 10
853.371382
 20
142.797034
 30
0.0
 10
853.804269
 20
143.679505
 30
0.0
  0
SPLINE
  5
1a7
100
AcDbEntity
  8
Interface_placement_
 62
1
100
AcDbSpline
 70
8
 71
3
 72
8
 73
4
 74
0
 40
0
 40
0
 40
0
 40
0
 40
1
 40
1
 40
1
 40
1
 10
853.804269
 20
143.679505
 30
0.0
 10
854.237156
 20
144.561976
 30
0.0
 10
855.107954
 20
145.146471
 30
0.0
 10
856.088640
 20
145.212815
 30
0.0
  0
SPLINE
  5
1a8
100
AcDbEntity
  8
Interface_placement_
 62
1
100
AcDbSpline
 70
8
 71
3
 72
8
 73
4
 74
0
 40
0
 40
0
 40
0
 40
0
 40
1
 40
1
 40
1
 40
1
 10
856.088640
 20
145.212815
 30
0.0
 10
857.069326
 20
145.279159
 30
0.0
 10
858.010912
 20
144.817274
 30
0.0
 10
858.558711
 20
144.001147
 30
0.0
  0
SPLINE
  5
1a9
100
AcDbEntity
  8
Interface_placement_
 62
1
100
AcDbSpline
 70
8
 71
3
 72
8
 73
4
 74
0
 40
0
 40
0
 40
0
 40
0
 40
1
 40
1
 40
1
 40
1
 10
858.558711
 20
144.001147
 30
0.0
 10
859.106510
 20
143.185020
 30
0.0
 10
859.177298
 20
142.138640
 30
0.0
 10
858.744411
 20
141.256169
 30
0.0
  0
SPLINE
  5
1aa
100
AcDbEntity
  8
Interface_placement_
 62
1
100
AcDbSpline
 70
8
 71
3
 72
8
 73
4
 74
0
 40
0
 40
0
 40
0
 40
0
 40
1
 40
1
 40
1
 40
1
 10
858.744411
 20
141.256169
 30
0.0
 10
858.311523
 20
140.373697
 30
0.0
 10
857.440726
 20
139.789203
 30
0.0
 10
856.460040
 20
139.722859
 30
0.0
  0
SPLINE
  5
1ab
100
AcDbEntity
  8
Interface_placement_
 62
1
100
AcDbSpline
 70
8
 71
3
 72
8
 73
4
 74
0
 40
0
 40
0
 40
0
 40
0
 40
1
 40
1
 40
1
 40
1
 10
856.460040
 20
139.722859
 30
0.0
 10
855.479354
 20
139.656514
 30
0.0
 10
854.537768
 20
140.118400
 30
0.0
 10
853.989969
 20
140.934527
 30
0.0
  0
LWPOLYLINE
  5
1ac
100
AcDbEntity
  8
Interface_placement_
 62
1
100
AcDbPolyline
 90
1
 70
1
 10
863.386151
 20
126.935816
 30
0.0
  0
SPLINE
  5
1ad
100
AcDbEntity
  8
Interface_placement_
 62
1
100
AcDbSpline
 70
8
 71
3
 72
8
 73
4
 74
0
 40
0
 40
0
 40
0
 40
0
 40
1
 40
1
 40
1
 40
1
 10
873.187179
 20
143.667277
 30
0.0
 10
872.639380
 20
144.483404
 30
0.0
 10
872.568592
 20
145.529784
 30
0.0
 10
873.001479
 20
146.412255
 30
0.0
  0
SPLINE
  5
1ae
100
AcDbEntity
  8
Interface_placement_
 62
1
100
AcDbSpline
 70
8
 71
3
 72
8
 73
4
 74
0
 40
0
 40
0
 40
0
 40
0
 40
1
 40
1
 40
1
 40
1
 10
873.001479
 20
146.412255
 30
0.0
 10
873.434366
 20
147.294727
 30
0.0
 10
874.305163
 20
147.879221
 30
0.0
 10
875.285850
 20
147.945565
 30
0.0
  0
SPLINE
  5
1af
100
AcDbEntity
  8
Interface_placement_
 62
1
100
AcDbSpline
 70
8
 71
3
 72
8
 73
4
 74
0
 40
0
 40
0
 40
0
 40
0
 40
1
 40
1
 40
1
 40
1
 10
875.285850
 20
147.945565
 30
0.0
 10
876.266536
 20
148.011910
 30
0.0
 10
877.208122
 20
147.550024
 30
0.0
 10
877.755921
 20
146.733897
 30
0.0
  0
SPLINE
  5
1b0
100
AcDbEntity
  8
Interface_placement_
 62
1
100
AcDbSpline
 70
8
 71
3
 72
8
 73
4
 74
0
 40
0
 40
0
 40
0
 40
0
 40
1
 40
1
 40
1
 40
1
 10
877.755921
 20
146.733897
 30
0.0
 10
878.303719
 20
145.917770
 30
0.0
 10
878.374508
 20
144.871390
 30
0.0
 10
877.941621
 20
143.988919
 30
0.0
  0
SPLINE
  5
1b1
100
AcDbEntity
  8
Interface_placement_
 62
1
100
AcDbSpline
 70
8
 71
3
 72
8
 73
4
 74
0
 40
0
 40
0
 40
0
 40
0
 40
1
 40
1
 40
1
 40
1
 10
877.941621
 20
143.988919
 30
0.0
 10
877.508733
 20
143.106448
 30
0.0
 10
876.637936
 20
142.521953
 30
0.0
 10
875.657250
 20
142.455609
 30
0.0
  0
SPLINE
  5
1b2
100
AcDbEntity
  8
Interface_placement_
 62
1
100
AcDbSpline
 70
8
 71
3
 72
8
 73
4
 74
0
 40
0
 40
0
 40
0
 40
0
 40
1
 40
1
 40
1
 40
1
 10
875.657250
 20
142.455609
 30
0.0
 10
874.676563
 20
142.389265
 30
0.0
 10
873.734978
 20
142.851150
 30
0.0
 10
873.187179
 20
143.667277
 30
0.0
  0
LWPOLYLINE
  5
1b3
100
AcDbEntity
  8
Interface_placement_
 62
1
100
AcDbPolyline
 90
1
 70
1
 10
853.989969
 20
140.934527
 30
0.0
  0
SPLINE
  5
1b4
100
AcDbEntity
  8
Interface_placement_
 62
1
100
AcDbSpline
 70
8
 71
3
 72
8
 73
4
 74
0
 40
0
 40
0
 40
0
 40
0
 40
1
 40
1
 40
1
 40
1
 10
169.317319
 20
553.969454
 30
0.0
 10
169.899219
 20
553.177280
 30
0.0
 10
170.859536
 20
552.755721
 30
0.0
 10
171.836529
 20
552.863574
 30
0.0
  0
SPLINE
  5
1b5
100
AcDbEntity
  8
Interface_placement_
 62
1
100
AcDbSpline
 70
8
 71
3
 72
8
 73
4
 74
0
 40
0
 40
0
 40
0
 40
0
 40
1
 40
1
 40
1
 40
1
 10
171.836529
 20
552.863574
 30
0.0
 10
172.813522
 20
552.971427
 30
0.0
 10
173.658761
 20
553.592306
 30
0.0
 10
174.053854
 20
554.492333
 30
0.0
  0
SPLINE
  5
1b6
100
AcDbEntity
  8
Interface_placement_
 62
1
100
AcDbSpline
 70
8
 71
3
 72
8
 73
4
 74
0
 40
0
 40
0
 40
0
 40
0
 40
1
 40
1
 40
1
 40
1
 10
174.053854
 20
554.492333
 30
0.0
 10
174.448947
 20
555.392360
 30
0.0
 10
174.333870
 20
556.434799
 30
0.0
 10
173.751970
 20
557.226973
 30
0.0
  0
SPLINE
  5
1b7
100
AcDbEntity
  8
Interface_placement_
 62
1
100
AcDbSpline
 70
8
 71
3
 72
8
 73
4
 74
0
 40
0
 40
0
 40
0
 40
0
 40
1
 40
1
 40
1
 40
1
 10
173.751970
 20
557.226973
 30
0.0
 10
173.170070
 20
558.019147
 30
0.0
 10
172.209753
 20
558.440707
 30
0.0
 10
171.232760
 20
558.332854
 30
0.0
  0
SPLINE
  5
1b8
100
AcDbEntity
  8
Interface_placement_
 62
1
100
AcDbSpline
 70
8
 71
3
 72
8
 73
4
 74
0
 40
0
 40
0
 40
0
 40
0
 40
1
 40
1
 40
1
 40
1
 10
171.232760
 20
558.332854
 30
0.0
 10
170.255767
 20
558.225001
 30
0.0
 10
169.410528
 20
557.604121
 30
0.0
 10
169.015435
 20
556.704094
 30
0.0
  0
SPLINE
  5
1b9
100
AcDbEntity
  8
Interface_placement_
 62
1
100
AcDbSpline
 70
8
 71
3
 72
8
 73
4
 74
0
 40
0
 40
0
 40
0
 40
0
 40
1
 40
1
 40
1
 40
1
 10
169.015435
 20
556.704094
 30
0.0
 10
168.620342
 20
555.804067
 30
0.0
 10
168.735419
 20
554.761628
 30
0.0
 10
169.317319
 20
553.969454
 30
0.0
  0
LWPOLYLINE
  5
1ba
100
AcDbEntity
  8
Interface_placement_
 62
1
100
AcDbPolyline
 90
1
 70
1
 10
873.187179
 20
143.667277
 30
0.0
  0
SPLINE
  5
1bb
100
AcDbEntity
  8
Interface_placement_
 62
1
100
AcDbSpline
 70
8
 71
3
 72
8
 73
4
 74
0
 40
0
 40
0
 40
0
 40
0
 40
1
 40
1
 40
1
 40
1
 10
179.298406
 20
540.381617
 30
0.0
 10
179.880306
 20
539.589443
 30
0.0
 10
180.840623
 20
539.167884
 30
0.0
 10
181.817616
 20
539.275737
 30
0.0
  0
SPLINE
  5
1bc
100
AcDbEntity
  8
Interface_placement_
 62
1
100
AcDbSpline
 70
8
 71
3
 72
8
 73
4
 74
0
 40
0
 40
0
 40
0
 40
0
 40
1
 40
1
 40
1
 40
1
 10
181.817616
 20
539.275737
 30
0.0
 10
182.794609
 20
539.383590
 30
0.0
 10
183.639848
 20
540.004469
 30
0.0
 10
184.034941
 20
540.904496
 30
0.0
  0
SPLINE
  5
1bd
100
AcDbEntity
  8
Interface_placement_
 62
1
100
AcDbSpline
 70
8
 71
3
 72
8
 73
4
 74
0
 40
0
 40
0
 40
0
 40
0
 40
1
 40
1
 40
1
 40
1
 10
184.034941
 20
540.904496
 30
0.0
 10
184.430034
 20
541.804523
 30
0.0
 10
184.314957
 20
542.846962
 30
0.0
 10
183.733057
 20
543.639136
 30
0.0
  0
SPLINE
  5
1be
100
AcDbEntity
  8
Interface_placement_
 62
1
100
AcDbSpline
 70
8
 71
3
 72
8
 73
4
 74
0
 40
0
 40
0
 40
0
 40
0
 40
1
 40
1
 40
1
 40
1
 10
183.733057
 20
543.639136
 30
0.0
 10
183.151157
 20
544.431310
 30
0.0
 10
182.190840
 20
544.852870
 30
0.0
 10
181.213847
 20
544.745017
 30
0.0
  0
SPLINE
  5
1bf
100
AcDbEntity
  8
Interface_placement_
 62
1
100
AcDbSpline
 70
8
 71
3
 72
8
 73
4
 74
0
 40
0
 40
0
 40
0
 40
0
 40
1
 40
1
 40
1
 40
1
 10
181.213847
 20
544.745017
 30
0.0
 10
180.236854
 20
544.637164
 30
0.0
 10
179.391615
 20
544.016284
 30
0.0
 10
178.996522
 20
543.116257
 30
0.0
  0
SPLINE
  5
1c0
100
AcDbEntity
  8
Interface_placement_
 62
1
100
AcDbSpline
 70
8
 71
3
 72
8
 73
4
 74
0
 40
0
 40
0
 40
0
 40
0
 40
1
 40
1
 40
1
 40
1
 10
178.996522
 20
543.116257
 30
0.0
 10
178.601429
 20
542.216230
 30
0.0
 10
178.716506
 20
541.173791
 30
0.0
 10
179.298406
 20
540.381617
 30
0.0
  0
LWPOLYLINE
  5
1c1
100
AcDbEntity
  8
Interface_placement_
 62
1
100
AcDbPolyline
 90
1
 70
1
 10
169.317319
 20
553.969454
 30
0.0
  0
SPLINE
  5
1c2
100
AcDbEntity
  8
Interface_placement_
 62
1
100
AcDbSpline
 70
8
 71
3
 72
8
 73
4
 74
0
 40
0
 40
0
 40
0
 40
0
 40
1
 40
1
 40
1
 40
1
 10
189.279506
 20
526.793763
 30
0.0
 10
189.861406
 20
526.001589
 30
0.0
 10
190.821723
 20
525.580029
 30
0.0
 10
191.798716
 20
525.687882
 30
0.0
  0
SPLINE
  5
1c3
100
AcDbEntity
  8
Interface_placement_
 62
1
100
AcDbSpline
 70
8
 71
3
 72
8
 73
4
 74
0
 40
0
 40
0
 40
0
 40
0
 40
1
 40
1
 40
1
 40
1
 10
191.798716
 20
525.687882
 30
0.0
 10
192.775708
 20
525.795735
 30
0.0
 10
193.620948
 20
526.416615
 30
0.0
 10
194.016041
 20
527.316642
 30
0.0
  0
SPLINE
  5
1c4
100
AcDbEntity
  8
Interface_placement_
 62
1
100
AcDbSpline
 70
8
 71
3
 72
8
 73
4
 74
0
 40
0
 40
0
 40
0
 40
0
 40
1
 40
1
 40
1
 40
1
 10
194.016041
 20
527.316642
 30
0.0
 10
194.411134
 20
528.216669
 30
0.0
 10
194.296057
 20
529.259108
 30
0.0
 10
193.714157
 20
530.051282
 30
0.0
  0
SPLINE
  5
1c5
100
AcDbEntity
  8
Interface_placement_
 62
1
100
AcDbSpline
 70
8
 71
3
 72
8
 73
4
 74
0
 40
0
 40
0
 40
0
 40
0
 40
1
 40
1
 40
1
 40
1
 10
193.714157
 20
530.051282
 30
0.0
 10
193.132257
 20
530.843456
 30
0.0
 10
192.171940
 20
531.265015
 30
0.0
 10
191.194947
 20
531.157162
 30
0.0
  0
SPLINE
  5
1c6
100
AcDbEntity
  8
Interface_placement_
 62
1
100
AcDbSpline
 70
8
 71
3
 72
8
 73
4
 74
0
 40
0
 40
0
 40
0
 40
0
 40
1
 40
1
 40
1
 40
1
 10
191.194947
 20
531.157162
 30
0.0
 10
190.217954
 20
531.049309
 30
0.0
 10
189.372715
 20
530.428430
 30
0.0
 10
188.977621
 20
529.528403
 30
0.0
  0
SPLINE
  5
1c7
100
AcDbEntity
  8
Interface_placement_
 62
1
100
AcDbSpline
 70
8
 71
3
 72
8
 73
4
 74
0
 40
0
 40
0
 40
0
 40
0
 40
1
 40
1
 40
1
 40
1
 10
188.977621
 20
529.528403
 30
0.0
 10
188.582528
 20
528.628376
 30
0.0
 10
188.697606
 20
527.585937
 30
0.0
 10
189.279506
 20
526.793763
 30
0.0
  0
LWPOLYLINE
  5
1c8
100
AcDbEntity
  8
Interface_placement_
 62
1
100
AcDbPolyline
 90
1
 70
1
 10
179.298406
 20
540.381617
 30
0.0
  0
SPLINE
  5
1c9
100
AcDbEntity
  8
Interface_placement_
 62
1
100
AcDbSpline
 70
8
 71
3
 72
8
 73
4
 74
0
 40
0
 40
0
 40
0
 40
0
 40
1
 40
1
 40
1
 40
1
 10
198.362572
 20
543.925569
 30
0.0
 10
198.944472
 20
543.133395
 30
0.0
 10
199.904790
 20
542.711835
 30
0.0
 10
200.881782
 20
542.819688
 30
0.0
  0
SPLINE
  5
1ca
100
AcDbEntity
  8
Interface_placement_
 62
1
100
AcDbSpline
 70
8
 71
3
 72
8
 73
4
 74
0
 40
0
 40
0
 40
0
 40
0
 40
1
 40
1
 40
1
 40
1
 10
200.881782
 20
542.819688
 30
0.0
 10
201.858775
 20
542.927541
 30
0.0
 10
202.704015
 20
543.548421
 30
0.0
 10
203.099108
 20
544.448448
 30
0.0
  0
SPLINE
  5
1cb
100
AcDbEntity
  8
Interface_placement_
 62
1
100
AcDbSpline
 70
8
 71
3
 72
8
 73
4
 74
0
 40
0
 40
0
 40
0
 40
0
 40
1
 40
1
 40
1
 40
1
 10
203.099108
 20
544.448448
 30
0.0
 10
203.494201
 20
545.348475
 30
0.0
 10
203.379123
 20
546.390914
 30
0.0
 10
202.797223
 20
547.183088
 30
0.0
  0
SPLINE
  5
1cc
100
AcDbEntity
  8
Interface_placement_
 62
1
100
AcDbSpline
 70
8
 71
3
 72
8
 73
4
 74
0
 40
0
 40
0
 40
0
 40
0
 40
1
 40
1
 40
1
 40
1
 10
202.797223
 20
547.183088
 30
0.0
 10
201.897684
 20
548.407683
 30
0.0
 10
200.175734
 20
548.671193
 30
0.0
 10
198.951139
 20
547.771654
 30
0.0
  0
SPLINE
  5
1cd
100
AcDbEntity
  8
Interface_placement_
 62
1
100
AcDbSpline
 70
8
 71
3
 72
8
 73
4
 74
0
 40
0
 40
0
 40
0
 40
0
 40
1
 40
1
 40
1
 40
1
 10
198.951139
 20
547.771654
 30
0.0
 10
197.726544
 20
546.872115
 30
0.0
 10
197.463034
 20
545.150164
 30
0.0
 10
198.362572
 20
543.925569
 30
0.0
  0
LWPOLYLINE
  5
1ce
100
AcDbEntity
  8
Interface_placement_
 62
1
100
AcDbPolyline
 90
1
 70
1
 10
189.279506
 20
526.793763
 30
0.0
  0
SPLINE
  5
1cf
100
AcDbEntity
  8
Interface_placement_
 62
1
100
AcDbSpline
 70
8
 71
3
 72
8
 73
4
 74
0
 40
0
 40
0
 40
0
 40
0
 40
1
 40
1
 40
1
 40
1
 10
242.572784
 20
607.780018
 30
0.0
 10
243.154684
 20
606.987844
 30
0.0
 10
243.269761
 20
605.945405
 30
0.0
 10
242.874668
 20
605.045378
 30
0.0
  0
SPLINE
  5
1d0
100
AcDbEntity
  8
Interface_placement_
 62
1
100
AcDbSpline
 70
8
 71
3
 72
8
 73
4
 74
0
 40
0
 40
0
 40
0
 40
0
 40
1
 40
1
 40
1
 40
1
 10
242.874668
 20
605.045378
 30
0.0
 10
242.479575
 20
604.145351
 30
0.0
 10
241.634336
 20
603.524471
 30
0.0
 10
240.657343
 20
603.416619
 30
0.0
  0
SPLINE
  5
1d1
100
AcDbEntity
  8
Interface_placement_
 62
1
100
AcDbSpline
 70
8
 71
3
 72
8
 73
4
 74
0
 40
0
 40
0
 40
0
 40
0
 40
1
 40
1
 40
1
 40
1
 10
240.657343
 20
603.416619
 30
0.0
 10
239.680350
 20
603.308766
 30
0.0
 10
238.720033
 20
603.730325
 30
0.0
 10
238.138133
 20
604.522499
 30
0.0
  0
SPLINE
  5
1d2
100
AcDbEntity
  8
Interface_placement_
 62
1
100
AcDbSpline
 70
8
 71
3
 72
8
 73
4
 74
0
 40
0
 40
0
 40
0
 40
0
 40
1
 40
1
 40
1
 40
1
 10
238.138133
 20
604.522499
 30
0.0
 10
237.556233
 20
605.314673
 30
0.0
 10
237.441156
 20
606.357112
 30
0.0
 10
237.836249
 20
607.257139
 30
0.0
  0
SPLINE
  5
1d3
100
AcDbEntity
  8
Interface_placement_
 62
1
100
AcDbSpline
 70
8
 71
3
 72
8
 73
4
 74
0
 40
0
 40
0
 40
0
 40
0
 40
1
 40
1
 40
1
 40
1
 10
237.836249
 20
607.257139
 30
0.0
 10
238.231342
 20
608.157166
 30
0.0
 10
239.076581
 20
608.778046
 30
0.0
 10
240.053574
 20
608.885898
 30
0.0
  0
SPLINE
  5
1d4
100
AcDbEntity
  8
Interface_placement_
 62
1
100
AcDbSpline
 70
8
 71
3
 72
8
 73
4
 74
0
 40
0
 40
0
 40
0
 40
0
 40
1
 40
1
 40
1
 40
1
 10
240.053574
 20
608.885898
 30
0.0
 10
241.030567
 20
608.993751
 30
0.0
 10
241.990884
 20
608.572192
 30
0.0
 10
242.572784
 20
607.780018
 30
0.0
  0
LWPOLYLINE
  5
1d5
100
AcDbEntity
  8
Interface_placement_
 62
1
100
AcDbPolyline
 90
1
 70
1
 10
198.362572
 20
543.925569
 30
0.0
  0
SPLINE
  5
1d6
100
AcDbEntity
  8
Interface_placement_
 62
1
100
AcDbSpline
 70
8
 71
3
 72
8
 73
4
 74
0
 40
0
 40
0
 40
0
 40
0
 40
1
 40
1
 40
1
 40
1
 10
252.553871
 20
594.192181
 30
0.0
 10
253.135771
 20
593.400007
 30
0.0
 10
253.250848
 20
592.357568
 30
0.0
 10
252.855755
 20
591.457541
 30
0.0
  0
SPLINE
  5
1d7
100
AcDbEntity
  8
Interface_placement_
 62
1
100
AcDbSpline
 70
8
 71
3
 72
8
 73
4
 74
0
 40
0
 40
0
 40
0
 40
0
 40
1
 40
1
 40
1
 40
1
 10
252.855755
 20
591.457541
 30
0.0
 10
252.460662
 20
590.557514
 30
0.0
 10
251.615423
 20
589.936635
 30
0.0
 10
250.638430
 20
589.828782
 30
0.0
  0
SPLINE
  5
1d8
100
AcDbEntity
  8
Interface_placement_
 62
1
100
AcDbSpline
 70
8
 71
3
 72
8
 73
4
 74
0
 40
0
 40
0
 40
0
 40
0
 40
1
 40
1
 40
1
 40
1
 10
250.638430
 20
589.828782
 30
0.0
 10
249.661437
 20
589.720929
 30
0.0
 10
248.701120
 20
590.142488
 30
0.0
 10
248.119220
 20
590.934662
 30
0.0
  0
SPLINE
  5
1d9
100
AcDbEntity
  8
Interface_placement_
 62
1
100
AcDbSpline
 70
8
 71
3
 72
8
 73
4
 74
0
 40
0
 40
0
 40
0
 40
0
 40
1
 40
1
 40
1
 40
1
 10
248.119220
 20
590.934662
 30
0.0
 10
247.537320
 20
591.726836
 30
0.0
 10
247.422243
 20
592.769275
 30
0.0
 10
247.817336
 20
593.669302
 30
0.0
  0
SPLINE
  5
1da
100
AcDbEntity
  8
Interface_placement_
 62
1
100
AcDbSpline
 70
8
 71
3
 72
8
 73
4
 74
0
 40
0
 40
0
 40
0
 40
0
 40
1
 40
1
 40
1
 40
1
 10
247.817336
 20
593.669302
 30
0.0
 10
248.212429
 20
594.569329
 30
0.0
 10
249.057668
 20
595.190209
 30
0.0
 10
250.034661
 20
595.298062
 30
0.0
  0
SPLINE
  5
1db
100
AcDbEntity
  8
Interface_placement_
 62
1
100
AcDbSpline
 70
8
 71
3
 72
8
 73
4
 74
0
 40
0
 40
0
 40
0
 40
0
 40
1
 40
1
 40
1
 40
1
 10
250.034661
 20
595.298062
 30
0.0
 10
251.011654
 20
595.405914
 30
0.0
 10
251.971971
 20
594.984355
 30
0.0
 10
252.553871
 20
594.192181
 30
0.0
  0
LWPOLYLINE
  5
1dc
100
AcDbEntity
  8
Interface_placement_
 62
1
100
AcDbPolyline
 90
1
 70
1
 10
242.572784
 20
607.780018
 30
0.0
  0
SPLINE
  5
1dd
100
AcDbEntity
  8
Interface_placement_
 62
1
100
AcDbSpline
 70
8
 71
3
 72
8
 73
4
 74
0
 40
0
 40
0
 40
0
 40
0
 40
1
 40
1
 40
1
 40
1
 10
262.534971
 20
580.604326
 30
0.0
 10
263.116871
 20
579.812152
 30
0.0
 10
263.231948
 20
578.769714
 30
0.0
 10
262.836855
 20
577.869687
 30
0.0
  0
SPLINE
  5
1de
100
AcDbEntity
  8
Interface_placement_
 62
1
100
AcDbSpline
 70
8
 71
3
 72
8
 73
4
 74
0
 40
0
 40
0
 40
0
 40
0
 40
1
 40
1
 40
1
 40
1
 10
262.836855
 20
577.869687
 30
0.0
 10
262.441762
 20
576.969660
 30
0.0
 10
261.596523
 20
576.348780
 30
0.0
 10
260.619530
 20
576.240927
 30
0.0
  0
SPLINE
  5
1df
100
AcDbEntity
  8
Interface_placement_
 62
1
100
AcDbSpline
 70
8
 71
3
 72
8
 73
4
 74
0
 40
0
 40
0
 40
0
 40
0
 40
1
 40
1
 40
1
 40
1
 10
260.619530
 20
576.240927
 30
0.0
 10
259.642537
 20
576.133074
 30
0.0
 10
258.682220
 20
576.554633
 30
0.0
 10
258.100320
 20
577.346807
 30
0.0
  0
SPLINE
  5
1e0
100
AcDbEntity
  8
Interface_placement_
 62
1
100
AcDbSpline
 70
8
 71
3
 72
8
 73
4
 74
0
 40
0
 40
0
 40
0
 40
0
 40
1
 40
1
 40
1
 40
1
 10
258.100320
 20
577.346807
 30
0.0
 10
257.518420
 20
578.138982
 30
0.0
 10
257.403343
 20
579.181420
 30
0.0
 10
257.798436
 20
580.081447
 30
0.0
  0
SPLINE
  5
1e1
100
AcDbEntity
  8
Interface_placement_
 62
1
100
AcDbSpline
 70
8
 71
3
 72
8
 73
4
 74
0
 40
0
 40
0
 40
0
 40
0
 40
1
 40
1
 40
1
 40
1
 10
257.798436
 20
580.081447
 30
0.0
 10
258.193529
 20
580.981474
 30
0.0
 10
259.038768
 20
581.602354
 30
0.0
 10
260.015761
 20
581.710207
 30
0.0
  0
SPLINE
  5
1e2
100
AcDbEntity
  8
Interface_placement_
 62
1
100
AcDbSpline
 70
8
 71
3
 72
8
 73
4
 74
0
 40
0
 40
0
 40
0
 40
0
 40
1
 40
1
 40
1
 40
1
 10
260.015761
 20
581.710207
 30
0.0
 10
260.992754
 20
581.818060
 30
0.0
 10
261.953071
 20
581.396501
 30
0.0
 10
262.534971
 20
580.604326
 30
0.0
  0
LWPOLYLINE
  5
1e3
100
AcDbEntity
  8
Interface_placement_
 62
1
100
AcDbPolyline
 90
1
 70
1
 10
252.553871
 20
594.192181
 30
0.0
  0
SPLINE
  5
1e4
100
AcDbEntity
  8
Interface_placement_
 62
1
100
AcDbSpline
 70
8
 71
3
 72
8
 73
4
 74
0
 40
0
 40
0
 40
0
 40
0
 40
1
 40
1
 40
1
 40
1
 10
243.470847
 20
577.060321
 30
0.0
 10
244.052747
 20
576.268147
 30
0.0
 10
244.167824
 20
575.225708
 30
0.0
 10
243.772731
 20
574.325681
 30
0.0
  0
SPLINE
  5
1e5
100
AcDbEntity
  8
Interface_placement_
 62
1
100
AcDbSpline
 70
8
 71
3
 72
8
 73
4
 74
0
 40
0
 40
0
 40
0
 40
0
 40
1
 40
1
 40
1
 40
1
 10
243.772731
 20
574.325681
 30
0.0
 10
243.377638
 20
573.425654
 30
0.0
 10
242.532398
 20
572.804774
 30
0.0
 10
241.555406
 20
572.696921
 30
0.0
  0
SPLINE
  5
1e6
100
AcDbEntity
  8
Interface_placement_
 62
1
100
AcDbSpline
 70
8
 71
3
 72
8
 73
4
 74
0
 40
0
 40
0
 40
0
 40
0
 40
1
 40
1
 40
1
 40
1
 10
241.555406
 20
572.696921
 30
0.0
 10
240.578413
 20
572.589068
 30
0.0
 10
239.618096
 20
573.010628
 30
0.0
 10
239.036196
 20
573.802802
 30
0.0
  0
SPLINE
  5
1e7
100
AcDbEntity
  8
Interface_placement_
 62
1
100
AcDbSpline
 70
8
 71
3
 72
8
 73
4
 74
0
 40
0
 40
0
 40
0
 40
0
 40
1
 40
1
 40
1
 40
1
 10
239.036196
 20
573.802802
 30
0.0
 10
238.454296
 20
574.594976
 30
0.0
 10
238.339218
 20
575.637415
 30
0.0
 10
238.734311
 20
576.537442
 30
0.0
  0
SPLINE
  5
1e8
100
AcDbEntity
  8
Interface_placement_
 62
1
100
AcDbSpline
 70
8
 71
3
 72
8
 73
4
 74
0
 40
0
 40
0
 40
0
 40
0
 40
1
 40
1
 40
1
 40
1
 10
238.734311
 20
576.537442
 30
0.0
 10
239.129405
 20
577.437469
 30
0.0
 10
239.974644
 20
578.058348
 30
0.0
 10
240.951637
 20
578.166201
 30
0.0
  0
SPLINE
  5
1e9
100
AcDbEntity
  8
Interface_placement_
 62
1
100
AcDbSpline
 70
8
 71
3
 72
8
 73
4
 74
0
 40
0
 40
0
 40
0
 40
0
 40
1
 40
1
 40
1
 40
1
 10
240.951637
 20
578.166201
 30
0.0
 10
241.928630
 20
578.274054
 30
0.0
 10
242.888947
 20
577.852495
 30
0.0
 10
243.470847
 20
577.060321
 30
0.0
  0
LWPOLYLINE
  5
1ea
100
AcDbEntity
  8
Interface_placement_
 62
1
100
AcDbPolyline
 90
1
 70
1
 10
262.534971
 20
580.604326
 30
0.0
  0
SPLINE
  5
1eb
100
AcDbEntity
  8
Interface_placement_
 62
1
100
AcDbSpline
 70
8
 71
3
 72
8
 73
4
 74
0
 40
0
 40
0
 40
0
 40
0
 40
1
 40
1
 40
1
 40
1
 10
934.585868
 20
531.526445
 30
0.0
 10
933.994028
 20
530.741669
 30
0.0
 10
933.028473
 20
530.332250
 30
0.0
 10
932.052917
 20
530.452411
 30
0.0
  0
SPLINE
  5
1ec
100
AcDbEntity
  8
Interface_placement_
 62
1
100
AcDbSpline
 70
8
 71
3
 72
8
 73
4
 74
0
 40
0
 40
0
 40
0
 40
0
 40
1
 40
1
 40
1
 40
1
 10
932.052917
 20
530.452411
 30
0.0
 10
931.077362
 20
530.572571
 30
0.0
 10
930.240016
 20
531.204057
 30
0.0
 10
929.856301
 20
532.108993
 30
0.0
  0
SPLINE
  5
1ed
100
AcDbEntity
  8
Interface_placement_
 62
1
100
AcDbSpline
 70
8
 71
3
 72
8
 73
4
 74
0
 40
0
 40
0
 40
0
 40
0
 40
1
 40
1
 40
1
 40
1
 10
929.856301
 20
532.108993
 30
0.0
 10
929.472585
 20
533.013929
 30
0.0
 10
929.600795
 20
534.054835
 30
0.0
 10
930.192635
 20
534.839610
 30
0.0
  0
SPLINE
  5
1ee
100
AcDbEntity
  8
Interface_placement_
 62
1
100
AcDbSpline
 70
8
 71
3
 72
8
 73
4
 74
0
 40
0
 40
0
 40
0
 40
0
 40
1
 40
1
 40
1
 40
1
 10
930.192635
 20
534.839610
 30
0.0
 10
930.784475
 20
535.624386
 30
0.0
 10
931.750031
 20
536.033805
 30
0.0
 10
932.725586
 20
535.913645
 30
0.0
  0
SPLINE
  5
1ef
100
AcDbEntity
  8
Interface_placement_
 62
1
100
AcDbSpline
 70
8
 71
3
 72
8
 73
4
 74
0
 40
0
 40
0
 40
0
 40
0
 40
1
 40
1
 40
1
 40
1
 10
932.725586
 20
535.913645
 30
0.0
 10
933.701142
 20
535.793484
 30
0.0
 10
934.538487
 20
535.161998
 30
0.0
 10
934.922203
 20
534.257062
 30
0.0
  0
SPLINE
  5
1f0
100
AcDbEntity
  8
Interface_placement_
 62
1
100
AcDbSpline
 70
8
 71
3
 72
8
 73
4
 74
0
 40
0
 40
0
 40
0
 40
0
 40
1
 40
1
 40
1
 40
1
 10
934.922203
 20
534.257062
 30
0.0
 10
935.305918
 20
533.352126
 30
0.0
 10
935.177708
 20
532.311220
 30
0.0
 10
934.585868
 20
531.526445
 30
0.0
  0
LWPOLYLINE
  5
1f1
100
AcDbEntity
  8
Interface_placement_
 62
1
100
AcDbPolyline
 90
1
 70
1
 10
243.470847
 20
577.060321
 30
0.0
  0
SPLINE
  5
1f2
100
AcDbEntity
  8
Interface_placement_
 62
1
100
AcDbSpline
 70
8
 71
3
 72
8
 73
4
 74
0
 40
0
 40
0
 40
0
 40
0
 40
1
 40
1
 40
1
 40
1
 10
924.434280
 20
518.065514
 30
0.0
 10
923.842440
 20
517.280738
 30
0.0
 10
922.876885
 20
516.871319
 30
0.0
 10
921.901329
 20
516.991479
 30
0.0
  0
SPLINE
  5
1f3
100
AcDbEntity
  8
Interface_placement_
 62
1
100
AcDbSpline
 70
8
 71
3
 72
8
 73
4
 74
0
 40
0
 40
0
 40
0
 40
0
 40
1
 40
1
 40
1
 40
1
 10
921.901329
 20
516.991479
 30
0.0
 10
920.925774
 20
517.111640
 30
0.0
 10
920.088428
 20
517.743126
 30
0.0
 10
919.704713
 20
518.648062
 30
0.0
  0
SPLINE
  5
1f4
100
AcDbEntity
  8
Interface_placement_
 62
1
100
AcDbSpline
 70
8
 71
3
 72
8
 73
4
 74
0
 40
0
 40
0
 40
0
 40
0
 40
1
 40
1
 40
1
 40
1
 10
919.704713
 20
518.648062
 30
0.0
 10
919.320997
 20
519.552998
 30
0.0
 10
919.449207
 20
520.593904
 30
0.0
 10
920.041047
 20
521.378679
 30
0.0
  0
SPLINE
  5
1f5
100
AcDbEntity
  8
Interface_placement_
 62
1
100
AcDbSpline
 70
8
 71
3
 72
8
 73
4
 74
0
 40
0
 40
0
 40
0
 40
0
 40
1
 40
1
 40
1
 40
1
 10
920.041047
 20
521.378679
 30
0.0
 10
920.632887
 20
522.163455
 30
0.0
 10
921.598443
 20
522.572874
 30
0.0
 10
922.573998
 20
522.452713
 30
0.0
  0
SPLINE
  5
1f6
100
AcDbEntity
  8
Interface_placement_
 62
1
100
AcDbSpline
 70
8
 71
3
 72
8
 73
4
 74
0
 40
0
 40
0
 40
0
 40
0
 40
1
 40
1
 40
1
 40
1
 10
922.573998
 20
522.452713
 30
0.0
 10
923.549554
 20
522.332553
 30
0.0
 10
924.386899
 20
521.701067
 30
0.0
 10
924.770615
 20
520.796131
 30
0.0
  0
SPLINE
  5
1f7
100
AcDbEntity
  8
Interface_placement_
 62
1
100
AcDbSpline
 70
8
 71
3
 72
8
 73
4
 74
0
 40
0
 40
0
 40
0
 40
0
 40
1
 40
1
 40
1
 40
1
 10
924.770615
 20
520.796131
 30
0.0
 10
925.154330
 20
519.891195
 30
0.0
 10
925.026120
 20
518.850289
 30
0.0
 10
924.434280
 20
518.065514
 30
0.0
  0
LWPOLYLINE
  5
1f8
100
AcDbEntity
  8
Interface_placement_
 62
1
100
AcDbPolyline
 90
1
 70
1
 10
934.585868
 20
531.526445
 30
0.0
  0
SPLINE
  5
1f9
100
AcDbEntity
  8
Interface_placement_
 62
1
100
AcDbSpline
 70
8
 71
3
 72
8
 73
4
 74
0
 40
0
 40
0
 40
0
 40
0
 40
1
 40
1
 40
1
 40
1
 10
914.282679
 20
504.604565
 30
0.0
 10
913.690839
 20
503.819790
 30
0.0
 10
912.725283
 20
503.410370
 30
0.0
 10
911.749728
 20
503.530531
 30
0.0
  0
SPLINE
  5
1fa
100
AcDbEntity
  8
Interface_placement_
 62
1
100
AcDbSpline
 70
8
 71
3
 72
8
 73
4
 74
0
 40
0
 40
0
 40
0
 40
0
 40
1
 40
1
 40
1
 40
1
 10
911.749728
 20
503.530531
 30
0.0
 10
910.774173
 20
503.650691
 30
0.0
 10
909.936827
 20
504.282177
 30
0.0
 10
909.553112
 20
505.187113
 30
0.0
  0
SPLINE
  5
1fb
100
AcDbEntity
  8
Interface_placement_
 62
1
100
AcDbSpline
 70
8
 71
3
 72
8
 73
4
 74
0
 40
0
 40
0
 40
0
 40
0
 40
1
 40
1
 40
1
 40
1
 10
909.553112
 20
505.187113
 30
0.0
 10
909.169396
 20
506.092050
 30
0.0
 10
909.297606
 20
507.132955
 30
0.0
 10
909.889446
 20
507.917730
 30
0.0
  0
SPLINE
  5
1fc
100
AcDbEntity
  8
Interface_placement_
 62
1
100
AcDbSpline
 70
8
 71
3
 72
8
 73
4
 74
0
 40
0
 40
0
 40
0
 40
0
 40
1
 40
1
 40
1
 40
1
 10
909.889446
 20
507.917730
 30
0.0
 10
910.481286
 20
508.702506
 30
0.0
 10
911.446841
 20
509.111925
 30
0.0
 10
912.422397
 20
508.991765
 30
0.0
  0
SPLINE
  5
1fd
100
AcDbEntity
  8
Interface_placement_
 62
1
100
AcDbSpline
 70
8
 71
3
 72
8
 73
4
 74
0
 40
0
 40
0
 40
0
 40
0
 40
1
 40
1
 40
1
 40
1
 10
912.422397
 20
508.991765
 30
0.0
 10
913.397952
 20
508.871604
 30
0.0
 10
914.235298
 20
508.240118
 30
0.0
 10
914.619013
 20
507.335182
 30
0.0
  0
SPLINE
  5
1fe
100
AcDbEntity
  8
Interface_placement_
 62
1
100
AcDbSpline
 70
8
 71
3
 72
8
 73
4
 74
0
 40
0
 40
0
 40
0
 40
0
 40
1
 40
1
 40
1
 40
1
 10
914.619013
 20
507.335182
 30
0.0
 10
915.002729
 20
506.430246
 30
0.0
 10
914.874519
 20
505.389341
 30
0.0
 10
914.282679
 20
504.604565
 30
0.0
  0
LWPOLYLINE
  5
1ff
100
AcDbEntity
  8
Interface_placement_
 62
1
100
AcDbPolyline
 90
1
 70
1
 10
924.434280
 20
518.065514
 30
0.0
  0
SPLINE
  5
200
100
AcDbEntity
  8
Interface_placement_
 62
1
100
AcDbSpline
 70
8
 71
3
 72
8
 73
4
 74
0
 40
0
 40
0
 40
0
 40
0
 40
1
 40
1
 40
1
 40
1
 10
905.416305
 20
521.849515
 30
0.0
 10
904.824465
 20
521.064739
 30
0.0
 10
903.858910
 20
520.655320
 30
0.0
 10
902.883354
 20
520.775480
 30
0.0
  0
SPLINE
  5
201
100
AcDbEntity
  8
Interface_placement_
 62
1
100
AcDbSpline
 70
8
 71
3
 72
8
 73
4
 74
0
 40
0
 40
0
 40
0
 40
0
 40
1
 40
1
 40
1
 40
1
 10
902.883354
 20
520.775480
 30
0.0
 10
901.907799
 20
520.895641
 30
0.0
 10
901.070453
 20
521.527127
 30
0.0
 10
900.686738
 20
522.432063
 30
0.0
  0
SPLINE
  5
202
100
AcDbEntity
  8
Interface_placement_
 62
1
100
AcDbSpline
 70
8
 71
3
 72
8
 73
4
 74
0
 40
0
 40
0
 40
0
 40
0
 40
1
 40
1
 40
1
 40
1
 10
900.686738
 20
522.432063
 30
0.0
 10
900.303022
 20
523.336999
 30
0.0
 10
900.431232
 20
524.377905
 30
0.0
 10
901.023072
 20
525.162680
 30
0.0
  0
SPLINE
  5
203
100
AcDbEntity
  8
Interface_placement_
 62
1
100
AcDbSpline
 70
8
 71
3
 72
8
 73
4
 74
0
 40
0
 40
0
 40
0
 40
0
 40
1
 40
1
 40
1
 40
1
 10
901.023072
 20
525.162680
 30
0.0
 10
901.937978
 20
526.375838
 30
0.0
 10
903.663114
 20
526.617619
 30
0.0
 10
904.876271
 20
525.702714
 30
0.0
  0
SPLINE
  5
204
100
AcDbEntity
  8
Interface_placement_
 62
1
100
AcDbSpline
 70
8
 71
3
 72
8
 73
4
 74
0
 40
0
 40
0
 40
0
 40
0
 40
1
 40
1
 40
1
 40
1
 10
904.876271
 20
525.702714
 30
0.0
 10
906.089429
 20
524.787808
 30
0.0
 10
906.331210
 20
523.062672
 30
0.0
 10
905.416305
 20
521.849515
 30
0.0
  0
LWPOLYLINE
  5
205
100
AcDbEntity
  8
Interface_placement_
 62
1
100
AcDbPolyline
 90
1
 70
1
 10
914.282679
 20
504.604565
 30
0.0
  0
SPLINE
  5
206
100
AcDbEntity
  8
Interface_placement_
 62
1
100
AcDbSpline
 70
8
 71
3
 72
8
 73
4
 74
0
 40
0
 40
0
 40
0
 40
0
 40
1
 40
1
 40
1
 40
1
 10
862.014584
 20
586.256223
 30
0.0
 10
861.422744
 20
585.471448
 30
0.0
 10
861.294534
 20
584.430542
 30
0.0
 10
861.678250
 20
583.525606
 30
0.0
  0
SPLINE
  5
207
100
AcDbEntity
  8
Interface_placement_
 62
1
100
AcDbSpline
 70
8
 71
3
 72
8
 73
4
 74
0
 40
0
 40
0
 40
0
 40
0
 40
1
 40
1
 40
1
 40
1
 10
861.678250
 20
583.525606
 30
0.0
 10
862.061965
 20
582.620670
 30
0.0
 10
862.899311
 20
581.989184
 30
0.0
 10
863.874866
 20
581.869024
 30
0.0
  0
SPLINE
  5
208
100
AcDbEntity
  8
Interface_placement_
 62
1
100
AcDbSpline
 70
8
 71
3
 72
8
 73
4
 74
0
 40
0
 40
0
 40
0
 40
0
 40
1
 40
1
 40
1
 40
1
 10
863.874866
 20
581.869024
 30
0.0
 10
864.850422
 20
581.748863
 30
0.0
 10
865.815977
 20
582.158282
 30
0.0
 10
866.407817
 20
582.943058
 30
0.0
  0
SPLINE
  5
209
100
AcDbEntity
  8
Interface_placement_
 62
1
100
AcDbSpline
 70
8
 71
3
 72
8
 73
4
 74
0
 40
0
 40
0
 40
0
 40
0
 40
1
 40
1
 40
1
 40
1
 10
866.407817
 20
582.943058
 30
0.0
 10
866.999657
 20
583.727833
 30
0.0
 10
867.127867
 20
584.768739
 30
0.0
 10
866.744151
 20
585.673675
 30
0.0
  0
SPLINE
  5
20a
100
AcDbEntity
  8
Interface_placement_
 62
1
100
AcDbSpline
 70
8
 71
3
 72
8
 73
4
 74
0
 40
0
 40
0
 40
0
 40
0
 40
1
 40
1
 40
1
 40
1
 10
866.744151
 20
585.673675
 30
0.0
 10
866.360436
 20
586.578611
 30
0.0
 10
865.523090
 20
587.210097
 30
0.0
 10
864.547535
 20
587.330257
 30
0.0
  0
SPLINE
  5
20b
100
AcDbEntity
  8
Interface_placement_
 62
1
100
AcDbSpline
 70
8
 71
3
 72
8
 73
4
 74
0
 40
0
 40
0
 40
0
 40
0
 40
1
 40
1
 40
1
 40
1
 10
864.547535
 20
587.330257
 30
0.0
 10
863.571979
 20
587.450418
 30
0.0
 10
862.606424
 20
587.040999
 30
0.0
 10
862.014584
 20
586.256223
 30
0.0
  0
LWPOLYLINE
  5
20c
100
AcDbEntity
  8
Interface_placement_
 62
1
100
AcDbPolyline
 90
1
 70
1
 10
905.416305
 20
521.849515
 30
0.0
  0
SPLINE
  5
20d
100
AcDbEntity
  8
Interface_placement_
 62
1
100
AcDbSpline
 70
8
 71
3
 72
8
 73
4
 74
0
 40
0
 40
0
 40
0
 40
0
 40
1
 40
1
 40
1
 40
1
 10
851.862996
 20
572.795292
 30
0.0
 10
851.271156
 20
572.010517
 30
0.0
 10
851.142946
 20
570.969611
 30
0.0
 10
851.526662
 20
570.064675
 30
0.0
  0
SPLINE
  5
20e
100
AcDbEntity
  8
Interface_placement_
 62
1
100
AcDbSpline
 70
8
 71
3
 72
8
 73
4
 74
0
 40
0
 40
0
 40
0
 40
0
 40
1
 40
1
 40
1
 40
1
 10
851.526662
 20
570.064675
 30
0.0
 10
851.910377
 20
569.159739
 30
0.0
 10
852.747723
 20
568.528253
 30
0.0
 10
853.723278
 20
568.408092
 30
0.0
  0
SPLINE
  5
20f
100
AcDbEntity
  8
Interface_placement_
 62
1
100
AcDbSpline
 70
8
 71
3
 72
8
 73
4
 74
0
 40
0
 40
0
 40
0
 40
0
 40
1
 40
1
 40
1
 40
1
 10
853.723278
 20
568.408092
 30
0.0
 10
854.698834
 20
568.287932
 30
0.0
 10
855.664389
 20
568.697351
 30
0.0
 10
856.256229
 20
569.482127
 30
0.0
  0
SPLINE
  5
210
100
AcDbEntity
  8
Interface_placement_
 62
1
100
AcDbSpline
 70
8
 71
3
 72
8
 73
4
 74
0
 40
0
 40
0
 40
0
 40
0
 40
1
 40
1
 40
1
 40
1
 10
856.256229
 20
569.482127
 30
0.0
 10
856.848069
 20
570.266902
 30
0.0
 10
856.976279
 20
571.307807
 30
0.0
 10
856.592563
 20
572.212744
 30
0.0
  0
SPLINE
  5
211
100
AcDbEntity
  8
Interface_placement_
 62
1
100
AcDbSpline
 70
8
 71
3
 72
8
 73
4
 74
0
 40
0
 40
0
 40
0
 40
0
 40
1
 40
1
 40
1
 40
1
 10
856.592563
 20
572.212744
 30
0.0
 10
856.208848
 20
573.117680
 30
0.0
 10
855.371502
 20
573.749166
 30
0.0
 10
854.395947
 20
573.869326
 30
0.0
  0
SPLINE
  5
212
100
AcDbEntity
  8
Interface_placement_
 62
1
100
AcDbSpline
 70
8
 71
3
 72
8
 73
4
 74
0
 40
0
 40
0
 40
0
 40
0
 40
1
 40
1
 40
1
 40
1
 10
854.395947
 20
573.869326
 30
0.0
 10
853.420391
 20
573.989487
 30
0.0
 10
852.454836
 20
573.580067
 30
0.0
 10
851.862996
 20
572.795292
 30
0.0
  0
LWPOLYLINE
  5
213
100
AcDbEntity
  8
Interface_placement_
 62
1
100
AcDbPolyline
 90
1
 70
1
 10
862.014584
 20
586.256223
 30
0.0
  0
SPLINE
  5
214
100
AcDbEntity
  8
Interface_placement_
 62
1
100
AcDbSpline
 70
8
 71
3
 72
8
 73
4
 74
0
 40
0
 40
0
 40
0
 40
0
 40
1
 40
1
 40
1
 40
1
 10
841.711395
 20
559.334343
 30
0.0
 10
841.119555
 20
558.549568
 30
0.0
 10
840.991345
 20
557.508663
 30
0.0
 10
841.375060
 20
556.603726
 30
0.0
  0
SPLINE
  5
215
100
AcDbEntity
  8
Interface_placement_
 62
1
100
AcDbSpline
 70
8
 71
3
 72
8
 73
4
 74
0
 40
0
 40
0
 40
0
 40
0
 40
1
 40
1
 40
1
 40
1
 10
841.375060
 20
556.603726
 30
0.0
 10
841.758776
 20
555.698790
 30
0.0
 10
842.596121
 20
555.067304
 30
0.0
 10
843.571677
 20
554.947144
 30
0.0
  0
SPLINE
  5
216
100
AcDbEntity
  8
Interface_placement_
 62
1
100
AcDbSpline
 70
8
 71
3
 72
8
 73
4
 74
0
 40
0
 40
0
 40
0
 40
0
 40
1
 40
1
 40
1
 40
1
 10
843.571677
 20
554.947144
 30
0.0
 10
844.547232
 20
554.826983
 30
0.0
 10
845.512788
 20
555.236403
 30
0.0
 10
846.104628
 20
556.021178
 30
0.0
  0
SPLINE
  5
217
100
AcDbEntity
  8
Interface_placement_
 62
1
100
AcDbSpline
 70
8
 71
3
 72
8
 73
4
 74
0
 40
0
 40
0
 40
0
 40
0
 40
1
 40
1
 40
1
 40
1
 10
846.104628
 20
556.021178
 30
0.0
 10
846.696468
 20
556.805953
 30
0.0
 10
846.824678
 20
557.846859
 30
0.0
 10
846.440962
 20
558.751795
 30
0.0
  0
SPLINE
  5
218
100
AcDbEntity
  8
Interface_placement_
 62
1
100
AcDbSpline
 70
8
 71
3
 72
8
 73
4
 74
0
 40
0
 40
0
 40
0
 40
0
 40
1
 40
1
 40
1
 40
1
 10
846.440962
 20
558.751795
 30
0.0
 10
846.057247
 20
559.656731
 30
0.0
 10
845.219901
 20
560.288217
 30
0.0
 10
844.244346
 20
560.408378
 30
0.0
  0
SPLINE
  5
219
100
AcDbEntity
  8
Interface_placement_
 62
1
100
AcDbSpline
 70
8
 71
3
 72
8
 73
4
 74
0
 40
0
 40
0
 40
0
 40
0
 40
1
 40
1
 40
1
 40
1
 10
844.244346
 20
560.408378
 30
0.0
 10
843.268790
 20
560.528538
 30
0.0
 10
842.303235
 20
560.119119
 30
0.0
 10
841.711395
 20
559.334343
 30
0.0
  0
LWPOLYLINE
  5
21a
100
AcDbEntity
  8
Interface_placement_
 62
1
100
AcDbPolyline
 90
1
 70
1
 10
851.862996
 20
572.795292
 30
0.0
  0
SPLINE
  5
21b
100
AcDbEntity
  8
Interface_placement_
 62
1
100
AcDbSpline
 70
8
 71
3
 72
8
 73
4
 74
0
 40
0
 40
0
 40
0
 40
0
 40
1
 40
1
 40
1
 40
1
 10
860.729327
 20
555.550288
 30
0.0
 10
860.137487
 20
554.765513
 30
0.0
 10
860.009277
 20
553.724608
 30
0.0
 10
860.392992
 20
552.819671
 30
0.0
  0
SPLINE
  5
21c
100
AcDbEntity
  8
Interface_placement_
 62
1
100
AcDbSpline
 70
8
 71
3
 72
8
 73
4
 74
0
 40
0
 40
0
 40
0
 40
0
 40
1
 40
1
 40
1
 40
1
 10
860.392992
 20
552.819671
 30
0.0
 10
860.776708
 20
551.914735
 30
0.0
 10
861.614053
 20
551.283250
 30
0.0
 10
862.589609
 20
551.163089
 30
0.0
  0
SPLINE
  5
21d
100
AcDbEntity
  8
Interface_placement_
 62
1
100
AcDbSpline
 70
8
 71
3
 72
8
 73
4
 74
0
 40
0
 40
0
 40
0
 40
0
 40
1
 40
1
 40
1
 40
1
 10
862.589609
 20
551.163089
 30
0.0
 10
863.565164
 20
551.042928
 30
0.0
 10
864.530720
 20
551.452348
 30
0.0
 10
865.122560
 20
552.237123
 30
0.0
  0
SPLINE
  5
21e
100
AcDbEntity
  8
Interface_placement_
 62
1
100
AcDbSpline
 70
8
 71
3
 72
8
 73
4
 74
0
 40
0
 40
0
 40
0
 40
0
 40
1
 40
1
 40
1
 40
1
 10
865.122560
 20
552.237123
 30
0.0
 10
865.714399
 20
553.021899
 30
0.0
 10
865.842609
 20
554.062804
 30
0.0
 10
865.458894
 20
554.967740
 30
0.0
  0
SPLINE
  5
21f
100
AcDbEntity
  8
Interface_placement_
 62
1
100
AcDbSpline
 70
8
 71
3
 72
8
 73
4
 74
0
 40
0
 40
0
 40
0
 40
0
 40
1
 40
1
 40
1
 40
1
 10
865.458894
 20
554.967740
 30
0.0
 10
865.075178
 20
555.872676
 30
0.0
 10
864.237833
 20
556.504162
 30
0.0
 10
863.262278
 20
556.624323
 30
0.0
  0
SPLINE
  5
220
100
AcDbEntity
  8
Interface_placement_
 62
1
100
AcDbSpline
 70
8
 71
3
 72
8
 73
4
 74
0
 40
0
 40
0
 40
0
 40
0
 40
1
 40
1
 40
1
 40
1
 10
863.262278
 20
556.624323
 30
0.0
 10
862.286722
 20
556.744483
 30
0.0
 10
861.321167
 20
556.335064
 30
0.0
 10
860.729327
 20
555.550288
 30
0.0
  0
LWPOLYLINE
  5
221
100
AcDbEntity
  8
Interface_placement_
 62
1
100
AcDbPolyline
 90
1
 70
1
 10
841.711395
 20
559.334343
 30
0.0
  0
LWPOLYLINE
  5
222
100
AcDbEntity
  8
Interface_placement_
 62
1
100
AcDbPolyline
 90
1
 70
1
 10
860.729327
 20
555.550288
 30
0.0
  0
ENDSEC
  0
SECTION
  2
OBJECTS
  0
DICTIONARY
  5
C
330
0
100
AcDbDictionary
  3
ACAD_GROUP
350
D
  3
ACAD_MLINESTYLE
350
17
  0
DICTIONARY
  5
D
330
C
100
AcDbDictionary
  0
DICTIONARY
  5
1A
330
C
100
AcDbDictionary
  0
DICTIONARY
  5
17
330
C
100
AcDbDictionary
  3
STANDARD
350
18
  0
DICTIONARY
  5
19
330
C
100
AcDbDictionary
  0
ENDSEC
  0
EOF
